%TF.GenerationSoftware,KiCad,Pcbnew,5.1.6-c6e7f7d~87~ubuntu18.04.1*%
%TF.CreationDate,2020-09-17T09:17:57+10:00*%
%TF.ProjectId,MSPY-FR2355,4d535059-2d46-4523-9233-35352e6b6963,rev?*%
%TF.SameCoordinates,Original*%
%TF.FileFunction,Copper,L1,Top*%
%TF.FilePolarity,Positive*%
%FSLAX46Y46*%
G04 Gerber Fmt 4.6, Leading zero omitted, Abs format (unit mm)*
G04 Created by KiCad (PCBNEW 5.1.6-c6e7f7d~87~ubuntu18.04.1) date 2020-09-17 09:17:57*
%MOMM*%
%LPD*%
G01*
G04 APERTURE LIST*
%TA.AperFunction,ComponentPad*%
%ADD10O,1.700000X1.700000*%
%TD*%
%TA.AperFunction,ComponentPad*%
%ADD11R,1.700000X1.700000*%
%TD*%
%TA.AperFunction,ComponentPad*%
%ADD12C,2.000000*%
%TD*%
%TA.AperFunction,SMDPad,CuDef*%
%ADD13R,1.300000X1.600000*%
%TD*%
%TA.AperFunction,ViaPad*%
%ADD14C,0.800000*%
%TD*%
%TA.AperFunction,Conductor*%
%ADD15C,0.250000*%
%TD*%
%TA.AperFunction,Conductor*%
%ADD16C,0.500000*%
%TD*%
%TA.AperFunction,Conductor*%
%ADD17C,0.254000*%
%TD*%
G04 APERTURE END LIST*
D10*
%TO.P,J2,23*%
%TO.N,GND*%
X149352000Y-69596000D03*
%TO.P,J2,22*%
%TO.N,~RST~*%
X149352000Y-72136000D03*
%TO.P,J2,21*%
%TO.N,P4*%
X149352000Y-74676000D03*
%TO.P,J2,20*%
%TO.N,P3*%
X149352000Y-77216000D03*
%TO.P,J2,19*%
%TO.N,P2*%
X149352000Y-79756000D03*
%TO.P,J2,18*%
%TO.N,P1*%
X149352000Y-82296000D03*
%TO.P,J2,17*%
%TO.N,P48*%
X149352000Y-84836000D03*
%TO.P,J2,16*%
%TO.N,P47*%
X149352000Y-87376000D03*
%TO.P,J2,15*%
%TO.N,P46*%
X149352000Y-89916000D03*
%TO.P,J2,14*%
%TO.N,P45*%
X149352000Y-92456000D03*
%TO.P,J2,13*%
%TO.N,P44*%
X149352000Y-94996000D03*
%TO.P,J2,12*%
%TO.N,P43*%
X149352000Y-97536000D03*
%TO.P,J2,11*%
%TO.N,P42*%
X149352000Y-100076000D03*
%TO.P,J2,10*%
%TO.N,P41*%
X149352000Y-102616000D03*
%TO.P,J2,9*%
%TO.N,P40*%
X149352000Y-105156000D03*
%TO.P,J2,8*%
%TO.N,P39*%
X149352000Y-107696000D03*
%TO.P,J2,7*%
%TO.N,P38*%
X149352000Y-110236000D03*
%TO.P,J2,6*%
%TO.N,P37*%
X149352000Y-112776000D03*
%TO.P,J2,5*%
%TO.N,P36*%
X149352000Y-115316000D03*
%TO.P,J2,4*%
%TO.N,P35*%
X149352000Y-117856000D03*
%TO.P,J2,3*%
%TO.N,P34*%
X149352000Y-120396000D03*
%TO.P,J2,2*%
%TO.N,P33*%
X149352000Y-122936000D03*
D11*
%TO.P,J2,1*%
%TO.N,P32*%
X149352000Y-125476000D03*
%TD*%
D10*
%TO.P,J1,23*%
%TO.N,P31*%
X131572000Y-125476000D03*
%TO.P,J1,22*%
%TO.N,P30*%
X131572000Y-122936000D03*
%TO.P,J1,21*%
%TO.N,P29*%
X131572000Y-120396000D03*
%TO.P,J1,20*%
%TO.N,P28*%
X131572000Y-117856000D03*
%TO.P,J1,19*%
%TO.N,P27*%
X131572000Y-115316000D03*
%TO.P,J1,18*%
%TO.N,P26*%
X131572000Y-112776000D03*
%TO.P,J1,17*%
%TO.N,P25*%
X131572000Y-110236000D03*
%TO.P,J1,16*%
%TO.N,P24*%
X131572000Y-107696000D03*
%TO.P,J1,15*%
%TO.N,P23*%
X131572000Y-105156000D03*
%TO.P,J1,14*%
%TO.N,P22*%
X131572000Y-102616000D03*
%TO.P,J1,13*%
%TO.N,P21*%
X131572000Y-100076000D03*
%TO.P,J1,12*%
%TO.N,P20*%
X131572000Y-97536000D03*
%TO.P,J1,11*%
%TO.N,P19*%
X131572000Y-94996000D03*
%TO.P,J1,10*%
%TO.N,P18*%
X131572000Y-92456000D03*
%TO.P,J1,9*%
%TO.N,P17*%
X131572000Y-89916000D03*
%TO.P,J1,8*%
%TO.N,P16*%
X131572000Y-87376000D03*
%TO.P,J1,7*%
%TO.N,P15*%
X131572000Y-84836000D03*
%TO.P,J1,6*%
%TO.N,P14*%
X131572000Y-82296000D03*
%TO.P,J1,5*%
%TO.N,P13*%
X131572000Y-79756000D03*
%TO.P,J1,4*%
%TO.N,P12*%
X131572000Y-77216000D03*
%TO.P,J1,3*%
%TO.N,P11*%
X131572000Y-74676000D03*
%TO.P,J1,2*%
%TO.N,P10*%
X131572000Y-72136000D03*
D11*
%TO.P,J1,1*%
%TO.N,+3V3*%
X131572000Y-69596000D03*
%TD*%
D12*
%TO.P,SW1,1*%
%TO.N,~RST~*%
X143787000Y-119761000D03*
%TO.P,SW1,2*%
%TO.N,GND*%
X143787000Y-124261000D03*
%TO.P,SW1,1*%
%TO.N,~RST~*%
X137287000Y-119761000D03*
%TO.P,SW1,2*%
%TO.N,GND*%
X137287000Y-124261000D03*
%TD*%
D13*
%TO.P,Y1,4*%
%TO.N,GND*%
X139938000Y-83440000D03*
%TO.P,Y1,3*%
%TO.N,XIN*%
X139938000Y-86740000D03*
%TO.P,Y1,2*%
%TO.N,GND*%
X137938000Y-86740000D03*
%TO.P,Y1,1*%
%TO.N,XOUT*%
X137938000Y-83440000D03*
%TD*%
%TO.P,U1,48*%
%TO.N,P48*%
%TA.AperFunction,SMDPad,CuDef*%
G36*
G01*
X143962000Y-90826000D02*
X145287000Y-90826000D01*
G75*
G02*
X145362000Y-90901000I0J-75000D01*
G01*
X145362000Y-91051000D01*
G75*
G02*
X145287000Y-91126000I-75000J0D01*
G01*
X143962000Y-91126000D01*
G75*
G02*
X143887000Y-91051000I0J75000D01*
G01*
X143887000Y-90901000D01*
G75*
G02*
X143962000Y-90826000I75000J0D01*
G01*
G37*
%TD.AperFunction*%
%TO.P,U1,47*%
%TO.N,P47*%
%TA.AperFunction,SMDPad,CuDef*%
G36*
G01*
X143962000Y-91326000D02*
X145287000Y-91326000D01*
G75*
G02*
X145362000Y-91401000I0J-75000D01*
G01*
X145362000Y-91551000D01*
G75*
G02*
X145287000Y-91626000I-75000J0D01*
G01*
X143962000Y-91626000D01*
G75*
G02*
X143887000Y-91551000I0J75000D01*
G01*
X143887000Y-91401000D01*
G75*
G02*
X143962000Y-91326000I75000J0D01*
G01*
G37*
%TD.AperFunction*%
%TO.P,U1,46*%
%TO.N,P46*%
%TA.AperFunction,SMDPad,CuDef*%
G36*
G01*
X143962000Y-91826000D02*
X145287000Y-91826000D01*
G75*
G02*
X145362000Y-91901000I0J-75000D01*
G01*
X145362000Y-92051000D01*
G75*
G02*
X145287000Y-92126000I-75000J0D01*
G01*
X143962000Y-92126000D01*
G75*
G02*
X143887000Y-92051000I0J75000D01*
G01*
X143887000Y-91901000D01*
G75*
G02*
X143962000Y-91826000I75000J0D01*
G01*
G37*
%TD.AperFunction*%
%TO.P,U1,45*%
%TO.N,P45*%
%TA.AperFunction,SMDPad,CuDef*%
G36*
G01*
X143962000Y-92326000D02*
X145287000Y-92326000D01*
G75*
G02*
X145362000Y-92401000I0J-75000D01*
G01*
X145362000Y-92551000D01*
G75*
G02*
X145287000Y-92626000I-75000J0D01*
G01*
X143962000Y-92626000D01*
G75*
G02*
X143887000Y-92551000I0J75000D01*
G01*
X143887000Y-92401000D01*
G75*
G02*
X143962000Y-92326000I75000J0D01*
G01*
G37*
%TD.AperFunction*%
%TO.P,U1,44*%
%TO.N,P44*%
%TA.AperFunction,SMDPad,CuDef*%
G36*
G01*
X143962000Y-92826000D02*
X145287000Y-92826000D01*
G75*
G02*
X145362000Y-92901000I0J-75000D01*
G01*
X145362000Y-93051000D01*
G75*
G02*
X145287000Y-93126000I-75000J0D01*
G01*
X143962000Y-93126000D01*
G75*
G02*
X143887000Y-93051000I0J75000D01*
G01*
X143887000Y-92901000D01*
G75*
G02*
X143962000Y-92826000I75000J0D01*
G01*
G37*
%TD.AperFunction*%
%TO.P,U1,43*%
%TO.N,P43*%
%TA.AperFunction,SMDPad,CuDef*%
G36*
G01*
X143962000Y-93326000D02*
X145287000Y-93326000D01*
G75*
G02*
X145362000Y-93401000I0J-75000D01*
G01*
X145362000Y-93551000D01*
G75*
G02*
X145287000Y-93626000I-75000J0D01*
G01*
X143962000Y-93626000D01*
G75*
G02*
X143887000Y-93551000I0J75000D01*
G01*
X143887000Y-93401000D01*
G75*
G02*
X143962000Y-93326000I75000J0D01*
G01*
G37*
%TD.AperFunction*%
%TO.P,U1,42*%
%TO.N,P42*%
%TA.AperFunction,SMDPad,CuDef*%
G36*
G01*
X143962000Y-93826000D02*
X145287000Y-93826000D01*
G75*
G02*
X145362000Y-93901000I0J-75000D01*
G01*
X145362000Y-94051000D01*
G75*
G02*
X145287000Y-94126000I-75000J0D01*
G01*
X143962000Y-94126000D01*
G75*
G02*
X143887000Y-94051000I0J75000D01*
G01*
X143887000Y-93901000D01*
G75*
G02*
X143962000Y-93826000I75000J0D01*
G01*
G37*
%TD.AperFunction*%
%TO.P,U1,41*%
%TO.N,P41*%
%TA.AperFunction,SMDPad,CuDef*%
G36*
G01*
X143962000Y-94326000D02*
X145287000Y-94326000D01*
G75*
G02*
X145362000Y-94401000I0J-75000D01*
G01*
X145362000Y-94551000D01*
G75*
G02*
X145287000Y-94626000I-75000J0D01*
G01*
X143962000Y-94626000D01*
G75*
G02*
X143887000Y-94551000I0J75000D01*
G01*
X143887000Y-94401000D01*
G75*
G02*
X143962000Y-94326000I75000J0D01*
G01*
G37*
%TD.AperFunction*%
%TO.P,U1,40*%
%TO.N,P40*%
%TA.AperFunction,SMDPad,CuDef*%
G36*
G01*
X143962000Y-94826000D02*
X145287000Y-94826000D01*
G75*
G02*
X145362000Y-94901000I0J-75000D01*
G01*
X145362000Y-95051000D01*
G75*
G02*
X145287000Y-95126000I-75000J0D01*
G01*
X143962000Y-95126000D01*
G75*
G02*
X143887000Y-95051000I0J75000D01*
G01*
X143887000Y-94901000D01*
G75*
G02*
X143962000Y-94826000I75000J0D01*
G01*
G37*
%TD.AperFunction*%
%TO.P,U1,39*%
%TO.N,P39*%
%TA.AperFunction,SMDPad,CuDef*%
G36*
G01*
X143962000Y-95326000D02*
X145287000Y-95326000D01*
G75*
G02*
X145362000Y-95401000I0J-75000D01*
G01*
X145362000Y-95551000D01*
G75*
G02*
X145287000Y-95626000I-75000J0D01*
G01*
X143962000Y-95626000D01*
G75*
G02*
X143887000Y-95551000I0J75000D01*
G01*
X143887000Y-95401000D01*
G75*
G02*
X143962000Y-95326000I75000J0D01*
G01*
G37*
%TD.AperFunction*%
%TO.P,U1,38*%
%TO.N,P38*%
%TA.AperFunction,SMDPad,CuDef*%
G36*
G01*
X143962000Y-95826000D02*
X145287000Y-95826000D01*
G75*
G02*
X145362000Y-95901000I0J-75000D01*
G01*
X145362000Y-96051000D01*
G75*
G02*
X145287000Y-96126000I-75000J0D01*
G01*
X143962000Y-96126000D01*
G75*
G02*
X143887000Y-96051000I0J75000D01*
G01*
X143887000Y-95901000D01*
G75*
G02*
X143962000Y-95826000I75000J0D01*
G01*
G37*
%TD.AperFunction*%
%TO.P,U1,37*%
%TO.N,P37*%
%TA.AperFunction,SMDPad,CuDef*%
G36*
G01*
X143962000Y-96326000D02*
X145287000Y-96326000D01*
G75*
G02*
X145362000Y-96401000I0J-75000D01*
G01*
X145362000Y-96551000D01*
G75*
G02*
X145287000Y-96626000I-75000J0D01*
G01*
X143962000Y-96626000D01*
G75*
G02*
X143887000Y-96551000I0J75000D01*
G01*
X143887000Y-96401000D01*
G75*
G02*
X143962000Y-96326000I75000J0D01*
G01*
G37*
%TD.AperFunction*%
%TO.P,U1,36*%
%TO.N,P36*%
%TA.AperFunction,SMDPad,CuDef*%
G36*
G01*
X143137000Y-97151000D02*
X143287000Y-97151000D01*
G75*
G02*
X143362000Y-97226000I0J-75000D01*
G01*
X143362000Y-98551000D01*
G75*
G02*
X143287000Y-98626000I-75000J0D01*
G01*
X143137000Y-98626000D01*
G75*
G02*
X143062000Y-98551000I0J75000D01*
G01*
X143062000Y-97226000D01*
G75*
G02*
X143137000Y-97151000I75000J0D01*
G01*
G37*
%TD.AperFunction*%
%TO.P,U1,35*%
%TO.N,P35*%
%TA.AperFunction,SMDPad,CuDef*%
G36*
G01*
X142637000Y-97151000D02*
X142787000Y-97151000D01*
G75*
G02*
X142862000Y-97226000I0J-75000D01*
G01*
X142862000Y-98551000D01*
G75*
G02*
X142787000Y-98626000I-75000J0D01*
G01*
X142637000Y-98626000D01*
G75*
G02*
X142562000Y-98551000I0J75000D01*
G01*
X142562000Y-97226000D01*
G75*
G02*
X142637000Y-97151000I75000J0D01*
G01*
G37*
%TD.AperFunction*%
%TO.P,U1,34*%
%TO.N,P34*%
%TA.AperFunction,SMDPad,CuDef*%
G36*
G01*
X142137000Y-97151000D02*
X142287000Y-97151000D01*
G75*
G02*
X142362000Y-97226000I0J-75000D01*
G01*
X142362000Y-98551000D01*
G75*
G02*
X142287000Y-98626000I-75000J0D01*
G01*
X142137000Y-98626000D01*
G75*
G02*
X142062000Y-98551000I0J75000D01*
G01*
X142062000Y-97226000D01*
G75*
G02*
X142137000Y-97151000I75000J0D01*
G01*
G37*
%TD.AperFunction*%
%TO.P,U1,33*%
%TO.N,P33*%
%TA.AperFunction,SMDPad,CuDef*%
G36*
G01*
X141637000Y-97151000D02*
X141787000Y-97151000D01*
G75*
G02*
X141862000Y-97226000I0J-75000D01*
G01*
X141862000Y-98551000D01*
G75*
G02*
X141787000Y-98626000I-75000J0D01*
G01*
X141637000Y-98626000D01*
G75*
G02*
X141562000Y-98551000I0J75000D01*
G01*
X141562000Y-97226000D01*
G75*
G02*
X141637000Y-97151000I75000J0D01*
G01*
G37*
%TD.AperFunction*%
%TO.P,U1,32*%
%TO.N,P32*%
%TA.AperFunction,SMDPad,CuDef*%
G36*
G01*
X141137000Y-97151000D02*
X141287000Y-97151000D01*
G75*
G02*
X141362000Y-97226000I0J-75000D01*
G01*
X141362000Y-98551000D01*
G75*
G02*
X141287000Y-98626000I-75000J0D01*
G01*
X141137000Y-98626000D01*
G75*
G02*
X141062000Y-98551000I0J75000D01*
G01*
X141062000Y-97226000D01*
G75*
G02*
X141137000Y-97151000I75000J0D01*
G01*
G37*
%TD.AperFunction*%
%TO.P,U1,31*%
%TO.N,P31*%
%TA.AperFunction,SMDPad,CuDef*%
G36*
G01*
X140637000Y-97151000D02*
X140787000Y-97151000D01*
G75*
G02*
X140862000Y-97226000I0J-75000D01*
G01*
X140862000Y-98551000D01*
G75*
G02*
X140787000Y-98626000I-75000J0D01*
G01*
X140637000Y-98626000D01*
G75*
G02*
X140562000Y-98551000I0J75000D01*
G01*
X140562000Y-97226000D01*
G75*
G02*
X140637000Y-97151000I75000J0D01*
G01*
G37*
%TD.AperFunction*%
%TO.P,U1,30*%
%TO.N,P30*%
%TA.AperFunction,SMDPad,CuDef*%
G36*
G01*
X140137000Y-97151000D02*
X140287000Y-97151000D01*
G75*
G02*
X140362000Y-97226000I0J-75000D01*
G01*
X140362000Y-98551000D01*
G75*
G02*
X140287000Y-98626000I-75000J0D01*
G01*
X140137000Y-98626000D01*
G75*
G02*
X140062000Y-98551000I0J75000D01*
G01*
X140062000Y-97226000D01*
G75*
G02*
X140137000Y-97151000I75000J0D01*
G01*
G37*
%TD.AperFunction*%
%TO.P,U1,29*%
%TO.N,P29*%
%TA.AperFunction,SMDPad,CuDef*%
G36*
G01*
X139637000Y-97151000D02*
X139787000Y-97151000D01*
G75*
G02*
X139862000Y-97226000I0J-75000D01*
G01*
X139862000Y-98551000D01*
G75*
G02*
X139787000Y-98626000I-75000J0D01*
G01*
X139637000Y-98626000D01*
G75*
G02*
X139562000Y-98551000I0J75000D01*
G01*
X139562000Y-97226000D01*
G75*
G02*
X139637000Y-97151000I75000J0D01*
G01*
G37*
%TD.AperFunction*%
%TO.P,U1,28*%
%TO.N,P28*%
%TA.AperFunction,SMDPad,CuDef*%
G36*
G01*
X139137000Y-97151000D02*
X139287000Y-97151000D01*
G75*
G02*
X139362000Y-97226000I0J-75000D01*
G01*
X139362000Y-98551000D01*
G75*
G02*
X139287000Y-98626000I-75000J0D01*
G01*
X139137000Y-98626000D01*
G75*
G02*
X139062000Y-98551000I0J75000D01*
G01*
X139062000Y-97226000D01*
G75*
G02*
X139137000Y-97151000I75000J0D01*
G01*
G37*
%TD.AperFunction*%
%TO.P,U1,27*%
%TO.N,P27*%
%TA.AperFunction,SMDPad,CuDef*%
G36*
G01*
X138637000Y-97151000D02*
X138787000Y-97151000D01*
G75*
G02*
X138862000Y-97226000I0J-75000D01*
G01*
X138862000Y-98551000D01*
G75*
G02*
X138787000Y-98626000I-75000J0D01*
G01*
X138637000Y-98626000D01*
G75*
G02*
X138562000Y-98551000I0J75000D01*
G01*
X138562000Y-97226000D01*
G75*
G02*
X138637000Y-97151000I75000J0D01*
G01*
G37*
%TD.AperFunction*%
%TO.P,U1,26*%
%TO.N,P26*%
%TA.AperFunction,SMDPad,CuDef*%
G36*
G01*
X138137000Y-97151000D02*
X138287000Y-97151000D01*
G75*
G02*
X138362000Y-97226000I0J-75000D01*
G01*
X138362000Y-98551000D01*
G75*
G02*
X138287000Y-98626000I-75000J0D01*
G01*
X138137000Y-98626000D01*
G75*
G02*
X138062000Y-98551000I0J75000D01*
G01*
X138062000Y-97226000D01*
G75*
G02*
X138137000Y-97151000I75000J0D01*
G01*
G37*
%TD.AperFunction*%
%TO.P,U1,25*%
%TO.N,P25*%
%TA.AperFunction,SMDPad,CuDef*%
G36*
G01*
X137637000Y-97151000D02*
X137787000Y-97151000D01*
G75*
G02*
X137862000Y-97226000I0J-75000D01*
G01*
X137862000Y-98551000D01*
G75*
G02*
X137787000Y-98626000I-75000J0D01*
G01*
X137637000Y-98626000D01*
G75*
G02*
X137562000Y-98551000I0J75000D01*
G01*
X137562000Y-97226000D01*
G75*
G02*
X137637000Y-97151000I75000J0D01*
G01*
G37*
%TD.AperFunction*%
%TO.P,U1,24*%
%TO.N,P24*%
%TA.AperFunction,SMDPad,CuDef*%
G36*
G01*
X135637000Y-96326000D02*
X136962000Y-96326000D01*
G75*
G02*
X137037000Y-96401000I0J-75000D01*
G01*
X137037000Y-96551000D01*
G75*
G02*
X136962000Y-96626000I-75000J0D01*
G01*
X135637000Y-96626000D01*
G75*
G02*
X135562000Y-96551000I0J75000D01*
G01*
X135562000Y-96401000D01*
G75*
G02*
X135637000Y-96326000I75000J0D01*
G01*
G37*
%TD.AperFunction*%
%TO.P,U1,23*%
%TO.N,P23*%
%TA.AperFunction,SMDPad,CuDef*%
G36*
G01*
X135637000Y-95826000D02*
X136962000Y-95826000D01*
G75*
G02*
X137037000Y-95901000I0J-75000D01*
G01*
X137037000Y-96051000D01*
G75*
G02*
X136962000Y-96126000I-75000J0D01*
G01*
X135637000Y-96126000D01*
G75*
G02*
X135562000Y-96051000I0J75000D01*
G01*
X135562000Y-95901000D01*
G75*
G02*
X135637000Y-95826000I75000J0D01*
G01*
G37*
%TD.AperFunction*%
%TO.P,U1,22*%
%TO.N,P22*%
%TA.AperFunction,SMDPad,CuDef*%
G36*
G01*
X135637000Y-95326000D02*
X136962000Y-95326000D01*
G75*
G02*
X137037000Y-95401000I0J-75000D01*
G01*
X137037000Y-95551000D01*
G75*
G02*
X136962000Y-95626000I-75000J0D01*
G01*
X135637000Y-95626000D01*
G75*
G02*
X135562000Y-95551000I0J75000D01*
G01*
X135562000Y-95401000D01*
G75*
G02*
X135637000Y-95326000I75000J0D01*
G01*
G37*
%TD.AperFunction*%
%TO.P,U1,21*%
%TO.N,P21*%
%TA.AperFunction,SMDPad,CuDef*%
G36*
G01*
X135637000Y-94826000D02*
X136962000Y-94826000D01*
G75*
G02*
X137037000Y-94901000I0J-75000D01*
G01*
X137037000Y-95051000D01*
G75*
G02*
X136962000Y-95126000I-75000J0D01*
G01*
X135637000Y-95126000D01*
G75*
G02*
X135562000Y-95051000I0J75000D01*
G01*
X135562000Y-94901000D01*
G75*
G02*
X135637000Y-94826000I75000J0D01*
G01*
G37*
%TD.AperFunction*%
%TO.P,U1,20*%
%TO.N,P20*%
%TA.AperFunction,SMDPad,CuDef*%
G36*
G01*
X135637000Y-94326000D02*
X136962000Y-94326000D01*
G75*
G02*
X137037000Y-94401000I0J-75000D01*
G01*
X137037000Y-94551000D01*
G75*
G02*
X136962000Y-94626000I-75000J0D01*
G01*
X135637000Y-94626000D01*
G75*
G02*
X135562000Y-94551000I0J75000D01*
G01*
X135562000Y-94401000D01*
G75*
G02*
X135637000Y-94326000I75000J0D01*
G01*
G37*
%TD.AperFunction*%
%TO.P,U1,19*%
%TO.N,P19*%
%TA.AperFunction,SMDPad,CuDef*%
G36*
G01*
X135637000Y-93826000D02*
X136962000Y-93826000D01*
G75*
G02*
X137037000Y-93901000I0J-75000D01*
G01*
X137037000Y-94051000D01*
G75*
G02*
X136962000Y-94126000I-75000J0D01*
G01*
X135637000Y-94126000D01*
G75*
G02*
X135562000Y-94051000I0J75000D01*
G01*
X135562000Y-93901000D01*
G75*
G02*
X135637000Y-93826000I75000J0D01*
G01*
G37*
%TD.AperFunction*%
%TO.P,U1,18*%
%TO.N,P18*%
%TA.AperFunction,SMDPad,CuDef*%
G36*
G01*
X135637000Y-93326000D02*
X136962000Y-93326000D01*
G75*
G02*
X137037000Y-93401000I0J-75000D01*
G01*
X137037000Y-93551000D01*
G75*
G02*
X136962000Y-93626000I-75000J0D01*
G01*
X135637000Y-93626000D01*
G75*
G02*
X135562000Y-93551000I0J75000D01*
G01*
X135562000Y-93401000D01*
G75*
G02*
X135637000Y-93326000I75000J0D01*
G01*
G37*
%TD.AperFunction*%
%TO.P,U1,17*%
%TO.N,P17*%
%TA.AperFunction,SMDPad,CuDef*%
G36*
G01*
X135637000Y-92826000D02*
X136962000Y-92826000D01*
G75*
G02*
X137037000Y-92901000I0J-75000D01*
G01*
X137037000Y-93051000D01*
G75*
G02*
X136962000Y-93126000I-75000J0D01*
G01*
X135637000Y-93126000D01*
G75*
G02*
X135562000Y-93051000I0J75000D01*
G01*
X135562000Y-92901000D01*
G75*
G02*
X135637000Y-92826000I75000J0D01*
G01*
G37*
%TD.AperFunction*%
%TO.P,U1,16*%
%TO.N,P16*%
%TA.AperFunction,SMDPad,CuDef*%
G36*
G01*
X135637000Y-92326000D02*
X136962000Y-92326000D01*
G75*
G02*
X137037000Y-92401000I0J-75000D01*
G01*
X137037000Y-92551000D01*
G75*
G02*
X136962000Y-92626000I-75000J0D01*
G01*
X135637000Y-92626000D01*
G75*
G02*
X135562000Y-92551000I0J75000D01*
G01*
X135562000Y-92401000D01*
G75*
G02*
X135637000Y-92326000I75000J0D01*
G01*
G37*
%TD.AperFunction*%
%TO.P,U1,15*%
%TO.N,P15*%
%TA.AperFunction,SMDPad,CuDef*%
G36*
G01*
X135637000Y-91826000D02*
X136962000Y-91826000D01*
G75*
G02*
X137037000Y-91901000I0J-75000D01*
G01*
X137037000Y-92051000D01*
G75*
G02*
X136962000Y-92126000I-75000J0D01*
G01*
X135637000Y-92126000D01*
G75*
G02*
X135562000Y-92051000I0J75000D01*
G01*
X135562000Y-91901000D01*
G75*
G02*
X135637000Y-91826000I75000J0D01*
G01*
G37*
%TD.AperFunction*%
%TO.P,U1,14*%
%TO.N,P14*%
%TA.AperFunction,SMDPad,CuDef*%
G36*
G01*
X135637000Y-91326000D02*
X136962000Y-91326000D01*
G75*
G02*
X137037000Y-91401000I0J-75000D01*
G01*
X137037000Y-91551000D01*
G75*
G02*
X136962000Y-91626000I-75000J0D01*
G01*
X135637000Y-91626000D01*
G75*
G02*
X135562000Y-91551000I0J75000D01*
G01*
X135562000Y-91401000D01*
G75*
G02*
X135637000Y-91326000I75000J0D01*
G01*
G37*
%TD.AperFunction*%
%TO.P,U1,13*%
%TO.N,P13*%
%TA.AperFunction,SMDPad,CuDef*%
G36*
G01*
X135637000Y-90826000D02*
X136962000Y-90826000D01*
G75*
G02*
X137037000Y-90901000I0J-75000D01*
G01*
X137037000Y-91051000D01*
G75*
G02*
X136962000Y-91126000I-75000J0D01*
G01*
X135637000Y-91126000D01*
G75*
G02*
X135562000Y-91051000I0J75000D01*
G01*
X135562000Y-90901000D01*
G75*
G02*
X135637000Y-90826000I75000J0D01*
G01*
G37*
%TD.AperFunction*%
%TO.P,U1,12*%
%TO.N,P12*%
%TA.AperFunction,SMDPad,CuDef*%
G36*
G01*
X137637000Y-88826000D02*
X137787000Y-88826000D01*
G75*
G02*
X137862000Y-88901000I0J-75000D01*
G01*
X137862000Y-90226000D01*
G75*
G02*
X137787000Y-90301000I-75000J0D01*
G01*
X137637000Y-90301000D01*
G75*
G02*
X137562000Y-90226000I0J75000D01*
G01*
X137562000Y-88901000D01*
G75*
G02*
X137637000Y-88826000I75000J0D01*
G01*
G37*
%TD.AperFunction*%
%TO.P,U1,11*%
%TO.N,P11*%
%TA.AperFunction,SMDPad,CuDef*%
G36*
G01*
X138137000Y-88826000D02*
X138287000Y-88826000D01*
G75*
G02*
X138362000Y-88901000I0J-75000D01*
G01*
X138362000Y-90226000D01*
G75*
G02*
X138287000Y-90301000I-75000J0D01*
G01*
X138137000Y-90301000D01*
G75*
G02*
X138062000Y-90226000I0J75000D01*
G01*
X138062000Y-88901000D01*
G75*
G02*
X138137000Y-88826000I75000J0D01*
G01*
G37*
%TD.AperFunction*%
%TO.P,U1,10*%
%TO.N,P10*%
%TA.AperFunction,SMDPad,CuDef*%
G36*
G01*
X138637000Y-88826000D02*
X138787000Y-88826000D01*
G75*
G02*
X138862000Y-88901000I0J-75000D01*
G01*
X138862000Y-90226000D01*
G75*
G02*
X138787000Y-90301000I-75000J0D01*
G01*
X138637000Y-90301000D01*
G75*
G02*
X138562000Y-90226000I0J75000D01*
G01*
X138562000Y-88901000D01*
G75*
G02*
X138637000Y-88826000I75000J0D01*
G01*
G37*
%TD.AperFunction*%
%TO.P,U1,9*%
%TO.N,XOUT*%
%TA.AperFunction,SMDPad,CuDef*%
G36*
G01*
X139137000Y-88826000D02*
X139287000Y-88826000D01*
G75*
G02*
X139362000Y-88901000I0J-75000D01*
G01*
X139362000Y-90226000D01*
G75*
G02*
X139287000Y-90301000I-75000J0D01*
G01*
X139137000Y-90301000D01*
G75*
G02*
X139062000Y-90226000I0J75000D01*
G01*
X139062000Y-88901000D01*
G75*
G02*
X139137000Y-88826000I75000J0D01*
G01*
G37*
%TD.AperFunction*%
%TO.P,U1,8*%
%TO.N,XIN*%
%TA.AperFunction,SMDPad,CuDef*%
G36*
G01*
X139637000Y-88826000D02*
X139787000Y-88826000D01*
G75*
G02*
X139862000Y-88901000I0J-75000D01*
G01*
X139862000Y-90226000D01*
G75*
G02*
X139787000Y-90301000I-75000J0D01*
G01*
X139637000Y-90301000D01*
G75*
G02*
X139562000Y-90226000I0J75000D01*
G01*
X139562000Y-88901000D01*
G75*
G02*
X139637000Y-88826000I75000J0D01*
G01*
G37*
%TD.AperFunction*%
%TO.P,U1,7*%
%TO.N,GND*%
%TA.AperFunction,SMDPad,CuDef*%
G36*
G01*
X140137000Y-88826000D02*
X140287000Y-88826000D01*
G75*
G02*
X140362000Y-88901000I0J-75000D01*
G01*
X140362000Y-90226000D01*
G75*
G02*
X140287000Y-90301000I-75000J0D01*
G01*
X140137000Y-90301000D01*
G75*
G02*
X140062000Y-90226000I0J75000D01*
G01*
X140062000Y-88901000D01*
G75*
G02*
X140137000Y-88826000I75000J0D01*
G01*
G37*
%TD.AperFunction*%
%TO.P,U1,6*%
%TO.N,+3V3*%
%TA.AperFunction,SMDPad,CuDef*%
G36*
G01*
X140637000Y-88826000D02*
X140787000Y-88826000D01*
G75*
G02*
X140862000Y-88901000I0J-75000D01*
G01*
X140862000Y-90226000D01*
G75*
G02*
X140787000Y-90301000I-75000J0D01*
G01*
X140637000Y-90301000D01*
G75*
G02*
X140562000Y-90226000I0J75000D01*
G01*
X140562000Y-88901000D01*
G75*
G02*
X140637000Y-88826000I75000J0D01*
G01*
G37*
%TD.AperFunction*%
%TO.P,U1,5*%
%TO.N,~RST~*%
%TA.AperFunction,SMDPad,CuDef*%
G36*
G01*
X141137000Y-88826000D02*
X141287000Y-88826000D01*
G75*
G02*
X141362000Y-88901000I0J-75000D01*
G01*
X141362000Y-90226000D01*
G75*
G02*
X141287000Y-90301000I-75000J0D01*
G01*
X141137000Y-90301000D01*
G75*
G02*
X141062000Y-90226000I0J75000D01*
G01*
X141062000Y-88901000D01*
G75*
G02*
X141137000Y-88826000I75000J0D01*
G01*
G37*
%TD.AperFunction*%
%TO.P,U1,4*%
%TO.N,P4*%
%TA.AperFunction,SMDPad,CuDef*%
G36*
G01*
X141637000Y-88826000D02*
X141787000Y-88826000D01*
G75*
G02*
X141862000Y-88901000I0J-75000D01*
G01*
X141862000Y-90226000D01*
G75*
G02*
X141787000Y-90301000I-75000J0D01*
G01*
X141637000Y-90301000D01*
G75*
G02*
X141562000Y-90226000I0J75000D01*
G01*
X141562000Y-88901000D01*
G75*
G02*
X141637000Y-88826000I75000J0D01*
G01*
G37*
%TD.AperFunction*%
%TO.P,U1,3*%
%TO.N,P3*%
%TA.AperFunction,SMDPad,CuDef*%
G36*
G01*
X142137000Y-88826000D02*
X142287000Y-88826000D01*
G75*
G02*
X142362000Y-88901000I0J-75000D01*
G01*
X142362000Y-90226000D01*
G75*
G02*
X142287000Y-90301000I-75000J0D01*
G01*
X142137000Y-90301000D01*
G75*
G02*
X142062000Y-90226000I0J75000D01*
G01*
X142062000Y-88901000D01*
G75*
G02*
X142137000Y-88826000I75000J0D01*
G01*
G37*
%TD.AperFunction*%
%TO.P,U1,2*%
%TO.N,P2*%
%TA.AperFunction,SMDPad,CuDef*%
G36*
G01*
X142637000Y-88826000D02*
X142787000Y-88826000D01*
G75*
G02*
X142862000Y-88901000I0J-75000D01*
G01*
X142862000Y-90226000D01*
G75*
G02*
X142787000Y-90301000I-75000J0D01*
G01*
X142637000Y-90301000D01*
G75*
G02*
X142562000Y-90226000I0J75000D01*
G01*
X142562000Y-88901000D01*
G75*
G02*
X142637000Y-88826000I75000J0D01*
G01*
G37*
%TD.AperFunction*%
%TO.P,U1,1*%
%TO.N,P1*%
%TA.AperFunction,SMDPad,CuDef*%
G36*
G01*
X143137000Y-88826000D02*
X143287000Y-88826000D01*
G75*
G02*
X143362000Y-88901000I0J-75000D01*
G01*
X143362000Y-90226000D01*
G75*
G02*
X143287000Y-90301000I-75000J0D01*
G01*
X143137000Y-90301000D01*
G75*
G02*
X143062000Y-90226000I0J75000D01*
G01*
X143062000Y-88901000D01*
G75*
G02*
X143137000Y-88826000I75000J0D01*
G01*
G37*
%TD.AperFunction*%
%TD*%
%TO.P,C4,2*%
%TO.N,GND*%
%TA.AperFunction,SMDPad,CuDef*%
G36*
G01*
X139401000Y-81771500D02*
X139401000Y-81296500D01*
G75*
G02*
X139638500Y-81059000I237500J0D01*
G01*
X140213500Y-81059000D01*
G75*
G02*
X140451000Y-81296500I0J-237500D01*
G01*
X140451000Y-81771500D01*
G75*
G02*
X140213500Y-82009000I-237500J0D01*
G01*
X139638500Y-82009000D01*
G75*
G02*
X139401000Y-81771500I0J237500D01*
G01*
G37*
%TD.AperFunction*%
%TO.P,C4,1*%
%TO.N,XOUT*%
%TA.AperFunction,SMDPad,CuDef*%
G36*
G01*
X137651000Y-81771500D02*
X137651000Y-81296500D01*
G75*
G02*
X137888500Y-81059000I237500J0D01*
G01*
X138463500Y-81059000D01*
G75*
G02*
X138701000Y-81296500I0J-237500D01*
G01*
X138701000Y-81771500D01*
G75*
G02*
X138463500Y-82009000I-237500J0D01*
G01*
X137888500Y-82009000D01*
G75*
G02*
X137651000Y-81771500I0J237500D01*
G01*
G37*
%TD.AperFunction*%
%TD*%
%TO.P,R1,2*%
%TO.N,~RST~*%
%TA.AperFunction,SMDPad,CuDef*%
G36*
G01*
X141763000Y-116602500D02*
X141763000Y-117077500D01*
G75*
G02*
X141525500Y-117315000I-237500J0D01*
G01*
X140950500Y-117315000D01*
G75*
G02*
X140713000Y-117077500I0J237500D01*
G01*
X140713000Y-116602500D01*
G75*
G02*
X140950500Y-116365000I237500J0D01*
G01*
X141525500Y-116365000D01*
G75*
G02*
X141763000Y-116602500I0J-237500D01*
G01*
G37*
%TD.AperFunction*%
%TO.P,R1,1*%
%TO.N,+3V3*%
%TA.AperFunction,SMDPad,CuDef*%
G36*
G01*
X143513000Y-116602500D02*
X143513000Y-117077500D01*
G75*
G02*
X143275500Y-117315000I-237500J0D01*
G01*
X142700500Y-117315000D01*
G75*
G02*
X142463000Y-117077500I0J237500D01*
G01*
X142463000Y-116602500D01*
G75*
G02*
X142700500Y-116365000I237500J0D01*
G01*
X143275500Y-116365000D01*
G75*
G02*
X143513000Y-116602500I0J-237500D01*
G01*
G37*
%TD.AperFunction*%
%TD*%
D10*
%TO.P,J3,6*%
%TO.N,Net-(J3-Pad6)*%
X146812000Y-78486000D03*
%TO.P,J3,5*%
%TO.N,P23*%
X144272000Y-78486000D03*
%TO.P,J3,4*%
%TO.N,P24*%
X141732000Y-78486000D03*
%TO.P,J3,3*%
%TO.N,Net-(J3-Pad3)*%
X139192000Y-78486000D03*
%TO.P,J3,2*%
%TO.N,Net-(J3-Pad2)*%
X136652000Y-78486000D03*
D11*
%TO.P,J3,1*%
%TO.N,GND*%
X134112000Y-78486000D03*
%TD*%
%TO.P,C5,2*%
%TO.N,GND*%
%TA.AperFunction,SMDPad,CuDef*%
G36*
G01*
X141969500Y-84373000D02*
X141494500Y-84373000D01*
G75*
G02*
X141257000Y-84135500I0J237500D01*
G01*
X141257000Y-83560500D01*
G75*
G02*
X141494500Y-83323000I237500J0D01*
G01*
X141969500Y-83323000D01*
G75*
G02*
X142207000Y-83560500I0J-237500D01*
G01*
X142207000Y-84135500D01*
G75*
G02*
X141969500Y-84373000I-237500J0D01*
G01*
G37*
%TD.AperFunction*%
%TO.P,C5,1*%
%TO.N,XIN*%
%TA.AperFunction,SMDPad,CuDef*%
G36*
G01*
X141969500Y-86123000D02*
X141494500Y-86123000D01*
G75*
G02*
X141257000Y-85885500I0J237500D01*
G01*
X141257000Y-85310500D01*
G75*
G02*
X141494500Y-85073000I237500J0D01*
G01*
X141969500Y-85073000D01*
G75*
G02*
X142207000Y-85310500I0J-237500D01*
G01*
X142207000Y-85885500D01*
G75*
G02*
X141969500Y-86123000I-237500J0D01*
G01*
G37*
%TD.AperFunction*%
%TD*%
%TO.P,C3,2*%
%TO.N,GND*%
%TA.AperFunction,SMDPad,CuDef*%
G36*
G01*
X144430000Y-82566500D02*
X144430000Y-83041500D01*
G75*
G02*
X144192500Y-83279000I-237500J0D01*
G01*
X143617500Y-83279000D01*
G75*
G02*
X143380000Y-83041500I0J237500D01*
G01*
X143380000Y-82566500D01*
G75*
G02*
X143617500Y-82329000I237500J0D01*
G01*
X144192500Y-82329000D01*
G75*
G02*
X144430000Y-82566500I0J-237500D01*
G01*
G37*
%TD.AperFunction*%
%TO.P,C3,1*%
%TO.N,+3V3*%
%TA.AperFunction,SMDPad,CuDef*%
G36*
G01*
X146180000Y-82566500D02*
X146180000Y-83041500D01*
G75*
G02*
X145942500Y-83279000I-237500J0D01*
G01*
X145367500Y-83279000D01*
G75*
G02*
X145130000Y-83041500I0J237500D01*
G01*
X145130000Y-82566500D01*
G75*
G02*
X145367500Y-82329000I237500J0D01*
G01*
X145942500Y-82329000D01*
G75*
G02*
X146180000Y-82566500I0J-237500D01*
G01*
G37*
%TD.AperFunction*%
%TD*%
%TO.P,C2,2*%
%TO.N,GND*%
%TA.AperFunction,SMDPad,CuDef*%
G36*
G01*
X137826000Y-116602500D02*
X137826000Y-117077500D01*
G75*
G02*
X137588500Y-117315000I-237500J0D01*
G01*
X137013500Y-117315000D01*
G75*
G02*
X136776000Y-117077500I0J237500D01*
G01*
X136776000Y-116602500D01*
G75*
G02*
X137013500Y-116365000I237500J0D01*
G01*
X137588500Y-116365000D01*
G75*
G02*
X137826000Y-116602500I0J-237500D01*
G01*
G37*
%TD.AperFunction*%
%TO.P,C2,1*%
%TO.N,~RST~*%
%TA.AperFunction,SMDPad,CuDef*%
G36*
G01*
X139576000Y-116602500D02*
X139576000Y-117077500D01*
G75*
G02*
X139338500Y-117315000I-237500J0D01*
G01*
X138763500Y-117315000D01*
G75*
G02*
X138526000Y-117077500I0J237500D01*
G01*
X138526000Y-116602500D01*
G75*
G02*
X138763500Y-116365000I237500J0D01*
G01*
X139338500Y-116365000D01*
G75*
G02*
X139576000Y-116602500I0J-237500D01*
G01*
G37*
%TD.AperFunction*%
%TD*%
%TO.P,C1,2*%
%TO.N,GND*%
%TA.AperFunction,SMDPad,CuDef*%
G36*
G01*
X144430000Y-84344500D02*
X144430000Y-84819500D01*
G75*
G02*
X144192500Y-85057000I-237500J0D01*
G01*
X143617500Y-85057000D01*
G75*
G02*
X143380000Y-84819500I0J237500D01*
G01*
X143380000Y-84344500D01*
G75*
G02*
X143617500Y-84107000I237500J0D01*
G01*
X144192500Y-84107000D01*
G75*
G02*
X144430000Y-84344500I0J-237500D01*
G01*
G37*
%TD.AperFunction*%
%TO.P,C1,1*%
%TO.N,+3V3*%
%TA.AperFunction,SMDPad,CuDef*%
G36*
G01*
X146180000Y-84344500D02*
X146180000Y-84819500D01*
G75*
G02*
X145942500Y-85057000I-237500J0D01*
G01*
X145367500Y-85057000D01*
G75*
G02*
X145130000Y-84819500I0J237500D01*
G01*
X145130000Y-84344500D01*
G75*
G02*
X145367500Y-84107000I237500J0D01*
G01*
X145942500Y-84107000D01*
G75*
G02*
X146180000Y-84344500I0J-237500D01*
G01*
G37*
%TD.AperFunction*%
%TD*%
D14*
%TO.N,GND*%
X141732000Y-82296000D03*
%TO.N,+3V3*%
X144526000Y-107061000D03*
X143002000Y-115570000D03*
X143002000Y-115570000D03*
%TO.N,~RST~*%
X145034012Y-89662000D03*
%TO.N,P24*%
X135509000Y-98044000D03*
%TO.N,P23*%
X136501032Y-98731551D03*
%TD*%
D15*
%TO.N,GND*%
X135961999Y-118179001D02*
X137301000Y-116840000D01*
X135961999Y-122935999D02*
X135961999Y-118179001D01*
X137287000Y-124261000D02*
X135961999Y-122935999D01*
X137287000Y-124261000D02*
X143787000Y-124261000D01*
X144272000Y-83086000D02*
X144244000Y-83058000D01*
X144244000Y-83058000D02*
X144244000Y-82903000D01*
X140212000Y-89563500D02*
X140212000Y-88513589D01*
X143905000Y-84820589D02*
X143905000Y-84582000D01*
X140212000Y-88513589D02*
X143905000Y-84820589D01*
D16*
X141324000Y-83440000D02*
X141732000Y-83848000D01*
X139938000Y-83440000D02*
X141324000Y-83440000D01*
X143905000Y-82804000D02*
X143905000Y-84582000D01*
D15*
%TO.N,+3V3*%
X132041002Y-69596000D02*
X131572000Y-69596000D01*
X143002000Y-116826000D02*
X142988000Y-116840000D01*
X143002000Y-115570000D02*
X143002000Y-116826000D01*
X140244998Y-93618296D02*
X144526000Y-97899298D01*
X144526000Y-97899298D02*
X144526000Y-107061000D01*
X140712000Y-90624996D02*
X140244998Y-91091998D01*
X140712000Y-89563500D02*
X140712000Y-90624996D01*
X140244998Y-91091998D02*
X140244998Y-93618296D01*
X140367001Y-79026001D02*
X140367001Y-77921999D01*
X140367001Y-77921999D02*
X132041002Y-69596000D01*
X144854990Y-85382010D02*
X145655000Y-84582000D01*
X140712000Y-88760298D02*
X144090288Y-85382010D01*
X144090288Y-85382010D02*
X144854990Y-85382010D01*
X140712000Y-89563500D02*
X140712000Y-88760298D01*
X145655000Y-84582000D02*
X145655000Y-82804000D01*
X143344990Y-82003990D02*
X140367001Y-79026001D01*
X144854990Y-82003990D02*
X143344990Y-82003990D01*
X145655000Y-82804000D02*
X144854990Y-82003990D01*
%TO.N,~RST~*%
X139051000Y-117997000D02*
X139051000Y-116840000D01*
X137287000Y-119761000D02*
X139051000Y-117997000D01*
X141238000Y-117212000D02*
X143787000Y-119761000D01*
X141238000Y-116840000D02*
X141238000Y-117212000D01*
X141238000Y-116840000D02*
X139051000Y-116840000D01*
X143504317Y-90626010D02*
X144468327Y-89662000D01*
X141212000Y-89563500D02*
X141212000Y-90366702D01*
X144468327Y-89662000D02*
X145034012Y-89662000D01*
X141471308Y-90626010D02*
X143504317Y-90626010D01*
X141212000Y-90366702D02*
X141471308Y-90626010D01*
%TO.N,XOUT*%
X139212000Y-88099000D02*
X139212000Y-89563500D01*
X138913001Y-87800001D02*
X139212000Y-88099000D01*
X138913001Y-84415001D02*
X138913001Y-87800001D01*
X137938000Y-83440000D02*
X138913001Y-84415001D01*
X138176000Y-83202000D02*
X137938000Y-83440000D01*
X138176000Y-81534000D02*
X138176000Y-83202000D01*
%TO.N,XIN*%
X139736990Y-89538510D02*
X139712000Y-89563500D01*
X139712000Y-86966000D02*
X139712000Y-89563500D01*
X139938000Y-86740000D02*
X139712000Y-86966000D01*
X140590000Y-86740000D02*
X141732000Y-85598000D01*
X139938000Y-86740000D02*
X140590000Y-86740000D01*
%TO.N,P31*%
X140712000Y-97888500D02*
X140712000Y-107319000D01*
X134547045Y-113484078D02*
X134547045Y-122500955D01*
X140712000Y-107319000D02*
X134547045Y-113484078D01*
X134547045Y-122500955D02*
X131572000Y-125476000D01*
%TO.N,P30*%
X134097034Y-120410966D02*
X131572000Y-122936000D01*
X134097034Y-113297556D02*
X134097034Y-120410966D01*
X140212000Y-107182590D02*
X134097034Y-113297556D01*
X140212000Y-97888500D02*
X140212000Y-107182590D01*
%TO.N,P29*%
X133647023Y-118320977D02*
X131572000Y-120396000D01*
X133647023Y-113111157D02*
X133647023Y-118320977D01*
X139712000Y-97888500D02*
X139712000Y-107046180D01*
X139712000Y-107046180D02*
X133647023Y-113111157D01*
%TO.N,P28*%
X139212000Y-97888500D02*
X139212000Y-106909770D01*
X139212000Y-106909770D02*
X133197012Y-112924758D01*
X133197012Y-116230988D02*
X131572000Y-117856000D01*
X133197012Y-112924758D02*
X133197012Y-116230988D01*
%TO.N,P27*%
X138712000Y-97888500D02*
X138712000Y-106773360D01*
X132747001Y-114140999D02*
X131572000Y-115316000D01*
X138712000Y-106773360D02*
X132747001Y-112738359D01*
X132747001Y-112738359D02*
X132747001Y-114140999D01*
%TO.N,P26*%
X138212000Y-106136000D02*
X131572000Y-112776000D01*
X138212000Y-97888500D02*
X138212000Y-106136000D01*
%TO.N,P25*%
X131572000Y-109435002D02*
X131572000Y-110236000D01*
X137712000Y-103295002D02*
X131572000Y-109435002D01*
X137712000Y-97888500D02*
X137712000Y-103295002D01*
%TO.N,P24*%
X134366000Y-104902000D02*
X131572000Y-107696000D01*
X134366000Y-98409500D02*
X134366000Y-104902000D01*
X136299500Y-96476000D02*
X134366000Y-98409500D01*
X136299500Y-96476000D02*
X135636000Y-97139500D01*
X136299500Y-96476000D02*
X136299500Y-97253500D01*
X136299500Y-97253500D02*
X135509000Y-98044000D01*
X135509000Y-98044000D02*
X135509000Y-98044000D01*
%TO.N,P23*%
X135496298Y-95976000D02*
X133915989Y-97556309D01*
X133915989Y-102812011D02*
X131572000Y-105156000D01*
X133915989Y-97556309D02*
X133915989Y-102812011D01*
X136299500Y-95976000D02*
X135496298Y-95976000D01*
X136472449Y-98731551D02*
X136501032Y-98731551D01*
X136398000Y-98806000D02*
X136472449Y-98731551D01*
X136501032Y-97796266D02*
X136501032Y-98731551D01*
X137362010Y-96935288D02*
X136501032Y-97796266D01*
X136299500Y-95976000D02*
X137102702Y-95976000D01*
X137102702Y-95976000D02*
X137362010Y-96235308D01*
X137362010Y-96235308D02*
X137362010Y-96935288D01*
%TO.N,P22*%
X133465978Y-100722022D02*
X131572000Y-102616000D01*
X136299500Y-95476000D02*
X135359887Y-95476000D01*
X133465978Y-97369909D02*
X133465978Y-100722022D01*
X135359887Y-95476000D02*
X133465978Y-97369909D01*
%TO.N,P21*%
X132747001Y-98900999D02*
X131572000Y-100076000D01*
X132747001Y-97452475D02*
X132747001Y-98900999D01*
X135223476Y-94976000D02*
X132747001Y-97452475D01*
X136299500Y-94976000D02*
X135223476Y-94976000D01*
%TO.N,P20*%
X134632000Y-94476000D02*
X131572000Y-97536000D01*
X136299500Y-94476000D02*
X134632000Y-94476000D01*
%TO.N,P19*%
X132592000Y-93976000D02*
X131572000Y-94996000D01*
X136299500Y-93976000D02*
X132592000Y-93976000D01*
%TO.N,P18*%
X132592000Y-93476000D02*
X131572000Y-92456000D01*
X136299500Y-93476000D02*
X132592000Y-93476000D01*
%TO.N,P17*%
X136299500Y-92976000D02*
X134632000Y-92976000D01*
X134632000Y-92976000D02*
X131572000Y-89916000D01*
%TO.N,P16*%
X132747001Y-89351999D02*
X131572000Y-88176998D01*
X136299500Y-92476000D02*
X134768410Y-92476000D01*
X131572000Y-88176998D02*
X131572000Y-87376000D01*
X132747001Y-90454591D02*
X132747001Y-89351999D01*
X134768410Y-92476000D02*
X132747001Y-90454591D01*
%TO.N,P15*%
X131572000Y-85636998D02*
X131572000Y-84836000D01*
X136299500Y-91976000D02*
X134904817Y-91976000D01*
X132747001Y-88715589D02*
X132747001Y-86811999D01*
X133197012Y-90268195D02*
X133197010Y-89165598D01*
X133197010Y-89165598D02*
X132747001Y-88715589D01*
X134904817Y-91976000D02*
X133197012Y-90268195D01*
X132747001Y-86811999D02*
X131572000Y-85636998D01*
%TO.N,P14*%
X132747001Y-84271999D02*
X131572000Y-83096998D01*
X135041230Y-90373407D02*
X133197012Y-88529187D01*
X132747001Y-86175588D02*
X132747001Y-84271999D01*
X133197012Y-86625599D02*
X132747001Y-86175588D01*
X136299500Y-91476000D02*
X135041230Y-91476000D01*
X131572000Y-83096998D02*
X131572000Y-82296000D01*
X135041230Y-91476000D02*
X135041230Y-90373407D01*
X133197012Y-88529187D02*
X133197012Y-86625599D01*
%TO.N,P13*%
X133197012Y-84085599D02*
X132761967Y-83650555D01*
X136280236Y-90976000D02*
X133647023Y-88342787D01*
X133647022Y-86439198D02*
X133197012Y-85989188D01*
X133647023Y-88342787D02*
X133647022Y-86439198D01*
X132761967Y-81337012D02*
X131572000Y-80147045D01*
X132761967Y-83650555D02*
X132761967Y-81337012D01*
X133197012Y-85989188D02*
X133197012Y-84085599D01*
X136299500Y-90976000D02*
X136280236Y-90976000D01*
X131572000Y-80147045D02*
X131572000Y-79756000D01*
%TO.N,P12*%
X133647023Y-83899199D02*
X133211978Y-83464154D01*
X135504151Y-89563500D02*
X134097034Y-88156383D01*
X132747001Y-78391001D02*
X131572000Y-77216000D01*
X137712000Y-89563500D02*
X135504151Y-89563500D01*
X133211978Y-83464154D02*
X133211978Y-81150612D01*
X133211978Y-81150612D02*
X132747001Y-80685635D01*
X132747001Y-80685635D02*
X132747001Y-78391001D01*
X133647023Y-85802788D02*
X133647023Y-83899199D01*
X134097034Y-86252799D02*
X133647023Y-85802788D01*
X134097034Y-88156383D02*
X134097034Y-86252799D01*
%TO.N,P11*%
X137854723Y-88403022D02*
X134980084Y-88403022D01*
X134097034Y-85616386D02*
X134097034Y-83712799D01*
X134547045Y-86066399D02*
X134097034Y-85616386D01*
X138212000Y-89563500D02*
X138212000Y-88760299D01*
X132774081Y-74676000D02*
X131572000Y-74676000D01*
X133661989Y-83277755D02*
X133661989Y-81221013D01*
X134547045Y-87969983D02*
X134547045Y-86066399D01*
X135287001Y-79596001D02*
X135287001Y-77188920D01*
X133661989Y-81221013D02*
X135287001Y-79596001D01*
X135287001Y-77188920D02*
X132774081Y-74676000D01*
X134980084Y-88403022D02*
X134547045Y-87969983D01*
X138212000Y-88760299D02*
X137854723Y-88403022D01*
X134097034Y-83712799D02*
X133661989Y-83277755D01*
%TO.N,P10*%
X132774081Y-72136000D02*
X131572000Y-72136000D01*
X137827001Y-77188920D02*
X132774081Y-72136000D01*
X136087999Y-79661001D02*
X137216001Y-79661001D01*
X134112000Y-83091354D02*
X134112000Y-81637000D01*
X134997055Y-85879998D02*
X134547045Y-85429988D01*
X134997056Y-87645280D02*
X134997055Y-85879998D01*
X137216001Y-79661001D02*
X137827001Y-79050001D01*
X138712000Y-88623888D02*
X138041123Y-87953011D01*
X138712000Y-89563500D02*
X138712000Y-88623888D01*
X135304787Y-87953011D02*
X134997056Y-87645280D01*
X134112000Y-81637000D02*
X136087999Y-79661001D01*
X137827001Y-79050001D02*
X137827001Y-77188920D01*
X134547045Y-83526399D02*
X134112000Y-83091354D01*
X138041123Y-87953011D02*
X135304787Y-87953011D01*
X134547045Y-85429988D02*
X134547045Y-83526399D01*
%TO.N,P4*%
X145636999Y-79050001D02*
X145636999Y-77921999D01*
X146247999Y-79661001D02*
X145636999Y-79050001D01*
X146826966Y-84815394D02*
X146826966Y-83712799D01*
X147320000Y-79661001D02*
X146247999Y-79661001D01*
X147320000Y-81316176D02*
X147320000Y-79661001D01*
X147276977Y-81359199D02*
X147320000Y-81316176D01*
X147291970Y-83247795D02*
X147276977Y-83232801D01*
X145636999Y-77921999D02*
X146247999Y-77310999D01*
X147276977Y-83232801D02*
X147276977Y-81359199D01*
X141712000Y-88396708D02*
X142507741Y-87600967D01*
X142507741Y-87600967D02*
X144047033Y-87600967D01*
X141712000Y-89563500D02*
X141712000Y-88396708D01*
X144047033Y-87600967D02*
X146376962Y-85271038D01*
X146376962Y-85271038D02*
X146376964Y-85265392D01*
X146826966Y-83712799D02*
X147291970Y-83247795D01*
X146247999Y-77310999D02*
X146558000Y-77310999D01*
X146376964Y-85265392D02*
X146826966Y-84815394D01*
X146558000Y-77310999D02*
X146558000Y-76267919D01*
X146558000Y-76267919D02*
X148149919Y-74676000D01*
X148149919Y-74676000D02*
X149352000Y-74676000D01*
%TO.N,P3*%
X149352000Y-78016998D02*
X149352000Y-77216000D01*
X147726988Y-83046401D02*
X147726988Y-81545599D01*
X146826970Y-85451800D02*
X147276977Y-85001793D01*
X148176999Y-78391001D02*
X149352000Y-77216000D01*
X147726988Y-81545599D02*
X148176999Y-81095588D01*
X147741982Y-83434195D02*
X147741983Y-83061396D01*
X142784910Y-88050978D02*
X144487433Y-88050978D01*
X142212000Y-88623887D02*
X142784910Y-88050978D01*
X146826970Y-85711441D02*
X146826970Y-85451800D01*
X144487433Y-88050978D02*
X146826970Y-85711441D01*
X147276977Y-85001793D02*
X147276977Y-83899199D01*
X147741983Y-83061396D02*
X147726988Y-83046401D01*
X142212000Y-89563500D02*
X142212000Y-88623887D01*
X147276977Y-83899199D02*
X147741982Y-83434195D01*
X148176999Y-81095588D02*
X148176999Y-78391001D01*
%TO.N,P2*%
X147276981Y-85638199D02*
X147726988Y-85188192D01*
X148220022Y-83592566D02*
X148220022Y-82903024D01*
X147276979Y-85897843D02*
X147276981Y-85638199D01*
X142971310Y-88500989D02*
X144673833Y-88500989D01*
X142712000Y-89563500D02*
X142712000Y-88760298D01*
X144673833Y-88500989D02*
X147276979Y-85897843D01*
X142712000Y-88760298D02*
X142971310Y-88500989D01*
X147726988Y-85188192D02*
X147726988Y-84085599D01*
X147726988Y-84085599D02*
X148220022Y-83592566D01*
X148220022Y-82903024D02*
X148176999Y-82860001D01*
X148176999Y-82860001D02*
X148176999Y-81731999D01*
X148176999Y-81731999D02*
X149352000Y-80556998D01*
X149352000Y-80556998D02*
X149352000Y-79756000D01*
%TO.N,P1*%
X143212000Y-89563500D02*
X143824500Y-88951000D01*
X143824500Y-88951000D02*
X144860233Y-88951000D01*
X147726990Y-85824600D02*
X148176999Y-85374591D01*
X144860233Y-88951000D02*
X147726989Y-86084244D01*
X147726989Y-86084244D02*
X147726990Y-85824600D01*
X149352000Y-83096998D02*
X149352000Y-82296000D01*
X148176999Y-85374591D02*
X148176999Y-84271999D01*
X148176999Y-84271999D02*
X149352000Y-83096998D01*
%TO.N,P48*%
X145362000Y-90976000D02*
X148176999Y-88161001D01*
X148176999Y-86011001D02*
X149352000Y-84836000D01*
X144624500Y-90976000D02*
X145362000Y-90976000D01*
X148176999Y-88161001D02*
X148176999Y-86011001D01*
%TO.N,P47*%
X144624500Y-91476000D02*
X146018233Y-91476000D01*
X146018233Y-91476000D02*
X149352000Y-88142233D01*
X149352000Y-88142233D02*
X149352000Y-87376000D01*
%TO.N,P46*%
X147292000Y-91976000D02*
X149352000Y-89916000D01*
X144624500Y-91976000D02*
X147292000Y-91976000D01*
%TO.N,P45*%
X149332000Y-92476000D02*
X149352000Y-92456000D01*
X144624500Y-92476000D02*
X149332000Y-92476000D01*
%TO.N,P44*%
X147332000Y-92976000D02*
X149352000Y-94996000D01*
X144624500Y-92976000D02*
X147332000Y-92976000D01*
%TO.N,P43*%
X149352000Y-96765535D02*
X149352000Y-97536000D01*
X144624500Y-93476000D02*
X146189465Y-93476000D01*
X146189465Y-93476000D02*
X148369064Y-95655599D01*
X148369064Y-95782599D02*
X149352000Y-96765535D01*
X148369064Y-95655599D02*
X148369064Y-95782599D01*
%TO.N,P42*%
X148176999Y-98100001D02*
X149352000Y-99275002D01*
X149352000Y-99275002D02*
X149352000Y-100076000D01*
X146053054Y-93976000D02*
X147919053Y-95841999D01*
X144624500Y-93976000D02*
X146053054Y-93976000D01*
X148176999Y-96226944D02*
X148176999Y-98100001D01*
X147919053Y-95841999D02*
X147919053Y-95968998D01*
X147919053Y-95968998D02*
X148176999Y-96226944D01*
%TO.N,P41*%
X144624500Y-94476000D02*
X145916643Y-94476000D01*
X148104044Y-101368044D02*
X149352000Y-102616000D01*
X147469042Y-96774895D02*
X147726988Y-97032843D01*
X145916643Y-94476000D02*
X147469042Y-96028399D01*
X147726988Y-98286401D02*
X148104044Y-98663456D01*
X147469042Y-96028399D02*
X147469042Y-96774895D01*
X148104044Y-98663456D02*
X148104044Y-101368044D01*
X147726988Y-97032843D02*
X147726988Y-98286401D01*
%TO.N,P40*%
X147019031Y-96961294D02*
X147276977Y-97219242D01*
X147654033Y-103458033D02*
X149352000Y-105156000D01*
X147276977Y-97219242D02*
X147276977Y-98472801D01*
X147654033Y-98849857D02*
X147654033Y-103458033D01*
X147019031Y-96214799D02*
X147019031Y-96961294D01*
X145780232Y-94976000D02*
X147019031Y-96214799D01*
X144624500Y-94976000D02*
X145780232Y-94976000D01*
X147276977Y-98472801D02*
X147654033Y-98849857D01*
%TO.N,P39*%
X146569020Y-96401199D02*
X146569020Y-97147695D01*
X144624500Y-95476000D02*
X145643821Y-95476000D01*
X147204022Y-99036256D02*
X147204022Y-105548022D01*
X146826966Y-97405643D02*
X146826966Y-98659201D01*
X145643821Y-95476000D02*
X146569020Y-96401199D01*
X147204022Y-105548022D02*
X149352000Y-107696000D01*
X146569020Y-97147695D02*
X146826966Y-97405643D01*
X146826966Y-98659201D02*
X147204022Y-99036256D01*
%TO.N,P38*%
X148176999Y-107782533D02*
X148176999Y-109060999D01*
X148176999Y-109060999D02*
X149352000Y-110236000D01*
X146754011Y-106359545D02*
X148176999Y-107782533D01*
X146376955Y-98845601D02*
X146754011Y-99222657D01*
X144624500Y-95976000D02*
X145507410Y-95976000D01*
X146376955Y-97592042D02*
X146376955Y-98845601D01*
X146119009Y-97334095D02*
X146376955Y-97592042D01*
X146754011Y-99222657D02*
X146754011Y-106359545D01*
X146119009Y-96587599D02*
X146119009Y-97334095D01*
X145507410Y-95976000D02*
X146119009Y-96587599D01*
%TO.N,P37*%
X147726988Y-111150988D02*
X149352000Y-112776000D01*
X147726988Y-107968933D02*
X147726988Y-111150988D01*
X145926944Y-97778444D02*
X145926944Y-99032001D01*
X144624500Y-96476000D02*
X145926944Y-97778444D01*
X146304000Y-106545945D02*
X147726988Y-107968933D01*
X145926944Y-99032001D02*
X146304000Y-99409056D01*
X146304000Y-99409056D02*
X146304000Y-106545945D01*
%TO.N,P36*%
X147276977Y-111718388D02*
X147276977Y-113240977D01*
X143212000Y-97888500D02*
X143212000Y-107653411D01*
X143212000Y-107653411D02*
X147276977Y-111718388D01*
X147276977Y-113240977D02*
X149352000Y-115316000D01*
%TO.N,P35*%
X142712000Y-107789822D02*
X146826966Y-111904788D01*
X146826966Y-115330966D02*
X149352000Y-117856000D01*
X146826966Y-111904788D02*
X146826966Y-115330966D01*
X142712000Y-97888500D02*
X142712000Y-107789822D01*
%TO.N,P34*%
X142212000Y-107926233D02*
X146376955Y-112091188D01*
X142212000Y-97888500D02*
X142212000Y-107926233D01*
X146376955Y-117420955D02*
X149352000Y-120396000D01*
X146376955Y-112091188D02*
X146376955Y-117420955D01*
%TO.N,P33*%
X145926944Y-112277588D02*
X145926944Y-119510944D01*
X145926944Y-119510944D02*
X149352000Y-122936000D01*
X141712000Y-97888500D02*
X141712000Y-108062644D01*
X141712000Y-108062644D02*
X145926944Y-112277588D01*
%TO.N,P32*%
X145476933Y-121600933D02*
X149352000Y-125476000D01*
X141212000Y-108199055D02*
X145476933Y-112463988D01*
X141212000Y-97888500D02*
X141212000Y-108199055D01*
X145476933Y-112463988D02*
X145476933Y-121600933D01*
%TD*%
D17*
%TO.N,GND*%
G36*
X140782222Y-80516024D02*
G01*
X140695180Y-80469498D01*
X140575482Y-80433188D01*
X140451000Y-80420928D01*
X140211750Y-80424000D01*
X140053000Y-80582750D01*
X140053000Y-81407000D01*
X140927250Y-81407000D01*
X141086000Y-81248250D01*
X141089072Y-81059000D01*
X141076812Y-80934518D01*
X141040502Y-80814820D01*
X140993976Y-80727778D01*
X142744349Y-82478152D01*
X142745000Y-82518250D01*
X142903750Y-82677000D01*
X142991873Y-82677000D01*
X143052743Y-82709536D01*
X143196004Y-82752993D01*
X143307657Y-82763990D01*
X143307666Y-82763990D01*
X143344989Y-82767666D01*
X143382312Y-82763990D01*
X143891000Y-82763990D01*
X143891000Y-82951000D01*
X143778000Y-82951000D01*
X143778000Y-82931000D01*
X142903750Y-82931000D01*
X142782370Y-83052380D01*
X142737537Y-82968506D01*
X142658185Y-82871815D01*
X142561494Y-82792463D01*
X142451180Y-82733498D01*
X142331482Y-82697188D01*
X142207000Y-82684928D01*
X142017750Y-82688000D01*
X141859000Y-82846750D01*
X141859000Y-83721000D01*
X141879000Y-83721000D01*
X141879000Y-83975000D01*
X141859000Y-83975000D01*
X141859000Y-83995000D01*
X141605000Y-83995000D01*
X141605000Y-83975000D01*
X141585000Y-83975000D01*
X141585000Y-83721000D01*
X141605000Y-83721000D01*
X141605000Y-82846750D01*
X141446250Y-82688000D01*
X141257000Y-82684928D01*
X141225785Y-82688002D01*
X141226072Y-82640000D01*
X141213812Y-82515518D01*
X141177502Y-82395820D01*
X141118537Y-82285506D01*
X141054402Y-82207357D01*
X141076812Y-82133482D01*
X141089072Y-82009000D01*
X141086000Y-81819750D01*
X140927250Y-81661000D01*
X140053000Y-81661000D01*
X140053000Y-82485250D01*
X140065000Y-82497250D01*
X140065000Y-83313000D01*
X140085000Y-83313000D01*
X140085000Y-83567000D01*
X140065000Y-83567000D01*
X140065000Y-84716250D01*
X140223750Y-84875000D01*
X140588000Y-84878072D01*
X140712482Y-84865812D01*
X140750302Y-84854339D01*
X140685577Y-84975433D01*
X140635752Y-85139684D01*
X140619467Y-85305027D01*
X140588000Y-85301928D01*
X139673001Y-85301928D01*
X139673001Y-84854249D01*
X139811000Y-84716250D01*
X139811000Y-83567000D01*
X139791000Y-83567000D01*
X139791000Y-83313000D01*
X139811000Y-83313000D01*
X139811000Y-82163750D01*
X139799000Y-82151750D01*
X139799000Y-81661000D01*
X139779000Y-81661000D01*
X139779000Y-81407000D01*
X139799000Y-81407000D01*
X139799000Y-80582750D01*
X139640250Y-80424000D01*
X139401000Y-80420928D01*
X139276518Y-80433188D01*
X139156820Y-80469498D01*
X139046506Y-80528463D01*
X138973839Y-80588099D01*
X138949942Y-80568488D01*
X138798567Y-80487577D01*
X138634316Y-80437752D01*
X138463500Y-80420928D01*
X137888500Y-80420928D01*
X137717684Y-80437752D01*
X137553433Y-80487577D01*
X137402058Y-80568488D01*
X137269377Y-80677377D01*
X137160488Y-80810058D01*
X137079577Y-80961433D01*
X137029752Y-81125684D01*
X137012928Y-81296500D01*
X137012928Y-81771500D01*
X137029752Y-81942316D01*
X137060989Y-82045290D01*
X137043820Y-82050498D01*
X136933506Y-82109463D01*
X136836815Y-82188815D01*
X136757463Y-82285506D01*
X136698498Y-82395820D01*
X136662188Y-82515518D01*
X136649928Y-82640000D01*
X136649928Y-84240000D01*
X136662188Y-84364482D01*
X136698498Y-84484180D01*
X136757463Y-84594494D01*
X136836815Y-84691185D01*
X136933506Y-84770537D01*
X137043820Y-84829502D01*
X137163518Y-84865812D01*
X137288000Y-84878072D01*
X138153001Y-84878072D01*
X138153001Y-85375749D01*
X138065000Y-85463750D01*
X138065000Y-86613000D01*
X138085000Y-86613000D01*
X138085000Y-86867000D01*
X138065000Y-86867000D01*
X138065000Y-86887000D01*
X137811000Y-86887000D01*
X137811000Y-86867000D01*
X136811750Y-86867000D01*
X136653000Y-87025750D01*
X136652001Y-87193011D01*
X136271000Y-87193011D01*
X136271000Y-85940000D01*
X136649928Y-85940000D01*
X136653000Y-86454250D01*
X136811750Y-86613000D01*
X137811000Y-86613000D01*
X137811000Y-85463750D01*
X137652250Y-85305000D01*
X137288000Y-85301928D01*
X137163518Y-85314188D01*
X137043820Y-85350498D01*
X136933506Y-85409463D01*
X136836815Y-85488815D01*
X136757463Y-85585506D01*
X136698498Y-85695820D01*
X136662188Y-85815518D01*
X136649928Y-85940000D01*
X136271000Y-85940000D01*
X136271000Y-80552802D01*
X136402801Y-80421001D01*
X137178679Y-80421001D01*
X137216001Y-80424677D01*
X137253323Y-80421001D01*
X137253334Y-80421001D01*
X137364987Y-80410004D01*
X137427636Y-80391000D01*
X140657198Y-80391000D01*
X140782222Y-80516024D01*
G37*
X140782222Y-80516024D02*
X140695180Y-80469498D01*
X140575482Y-80433188D01*
X140451000Y-80420928D01*
X140211750Y-80424000D01*
X140053000Y-80582750D01*
X140053000Y-81407000D01*
X140927250Y-81407000D01*
X141086000Y-81248250D01*
X141089072Y-81059000D01*
X141076812Y-80934518D01*
X141040502Y-80814820D01*
X140993976Y-80727778D01*
X142744349Y-82478152D01*
X142745000Y-82518250D01*
X142903750Y-82677000D01*
X142991873Y-82677000D01*
X143052743Y-82709536D01*
X143196004Y-82752993D01*
X143307657Y-82763990D01*
X143307666Y-82763990D01*
X143344989Y-82767666D01*
X143382312Y-82763990D01*
X143891000Y-82763990D01*
X143891000Y-82951000D01*
X143778000Y-82951000D01*
X143778000Y-82931000D01*
X142903750Y-82931000D01*
X142782370Y-83052380D01*
X142737537Y-82968506D01*
X142658185Y-82871815D01*
X142561494Y-82792463D01*
X142451180Y-82733498D01*
X142331482Y-82697188D01*
X142207000Y-82684928D01*
X142017750Y-82688000D01*
X141859000Y-82846750D01*
X141859000Y-83721000D01*
X141879000Y-83721000D01*
X141879000Y-83975000D01*
X141859000Y-83975000D01*
X141859000Y-83995000D01*
X141605000Y-83995000D01*
X141605000Y-83975000D01*
X141585000Y-83975000D01*
X141585000Y-83721000D01*
X141605000Y-83721000D01*
X141605000Y-82846750D01*
X141446250Y-82688000D01*
X141257000Y-82684928D01*
X141225785Y-82688002D01*
X141226072Y-82640000D01*
X141213812Y-82515518D01*
X141177502Y-82395820D01*
X141118537Y-82285506D01*
X141054402Y-82207357D01*
X141076812Y-82133482D01*
X141089072Y-82009000D01*
X141086000Y-81819750D01*
X140927250Y-81661000D01*
X140053000Y-81661000D01*
X140053000Y-82485250D01*
X140065000Y-82497250D01*
X140065000Y-83313000D01*
X140085000Y-83313000D01*
X140085000Y-83567000D01*
X140065000Y-83567000D01*
X140065000Y-84716250D01*
X140223750Y-84875000D01*
X140588000Y-84878072D01*
X140712482Y-84865812D01*
X140750302Y-84854339D01*
X140685577Y-84975433D01*
X140635752Y-85139684D01*
X140619467Y-85305027D01*
X140588000Y-85301928D01*
X139673001Y-85301928D01*
X139673001Y-84854249D01*
X139811000Y-84716250D01*
X139811000Y-83567000D01*
X139791000Y-83567000D01*
X139791000Y-83313000D01*
X139811000Y-83313000D01*
X139811000Y-82163750D01*
X139799000Y-82151750D01*
X139799000Y-81661000D01*
X139779000Y-81661000D01*
X139779000Y-81407000D01*
X139799000Y-81407000D01*
X139799000Y-80582750D01*
X139640250Y-80424000D01*
X139401000Y-80420928D01*
X139276518Y-80433188D01*
X139156820Y-80469498D01*
X139046506Y-80528463D01*
X138973839Y-80588099D01*
X138949942Y-80568488D01*
X138798567Y-80487577D01*
X138634316Y-80437752D01*
X138463500Y-80420928D01*
X137888500Y-80420928D01*
X137717684Y-80437752D01*
X137553433Y-80487577D01*
X137402058Y-80568488D01*
X137269377Y-80677377D01*
X137160488Y-80810058D01*
X137079577Y-80961433D01*
X137029752Y-81125684D01*
X137012928Y-81296500D01*
X137012928Y-81771500D01*
X137029752Y-81942316D01*
X137060989Y-82045290D01*
X137043820Y-82050498D01*
X136933506Y-82109463D01*
X136836815Y-82188815D01*
X136757463Y-82285506D01*
X136698498Y-82395820D01*
X136662188Y-82515518D01*
X136649928Y-82640000D01*
X136649928Y-84240000D01*
X136662188Y-84364482D01*
X136698498Y-84484180D01*
X136757463Y-84594494D01*
X136836815Y-84691185D01*
X136933506Y-84770537D01*
X137043820Y-84829502D01*
X137163518Y-84865812D01*
X137288000Y-84878072D01*
X138153001Y-84878072D01*
X138153001Y-85375749D01*
X138065000Y-85463750D01*
X138065000Y-86613000D01*
X138085000Y-86613000D01*
X138085000Y-86867000D01*
X138065000Y-86867000D01*
X138065000Y-86887000D01*
X137811000Y-86887000D01*
X137811000Y-86867000D01*
X136811750Y-86867000D01*
X136653000Y-87025750D01*
X136652001Y-87193011D01*
X136271000Y-87193011D01*
X136271000Y-85940000D01*
X136649928Y-85940000D01*
X136653000Y-86454250D01*
X136811750Y-86613000D01*
X137811000Y-86613000D01*
X137811000Y-85463750D01*
X137652250Y-85305000D01*
X137288000Y-85301928D01*
X137163518Y-85314188D01*
X137043820Y-85350498D01*
X136933506Y-85409463D01*
X136836815Y-85488815D01*
X136757463Y-85585506D01*
X136698498Y-85695820D01*
X136662188Y-85815518D01*
X136649928Y-85940000D01*
X136271000Y-85940000D01*
X136271000Y-80552802D01*
X136402801Y-80421001D01*
X137178679Y-80421001D01*
X137216001Y-80424677D01*
X137253323Y-80421001D01*
X137253334Y-80421001D01*
X137364987Y-80410004D01*
X137427636Y-80391000D01*
X140657198Y-80391000D01*
X140782222Y-80516024D01*
G36*
X143891000Y-84648266D02*
G01*
X143798041Y-84676464D01*
X143758000Y-84697867D01*
X143758000Y-84455000D01*
X143778000Y-84455000D01*
X143778000Y-84435000D01*
X143891000Y-84435000D01*
X143891000Y-84648266D01*
G37*
X143891000Y-84648266D02*
X143798041Y-84676464D01*
X143758000Y-84697867D01*
X143758000Y-84455000D01*
X143778000Y-84455000D01*
X143778000Y-84435000D01*
X143891000Y-84435000D01*
X143891000Y-84648266D01*
%TD*%
M02*
