%TF.GenerationSoftware,KiCad,Pcbnew,5.1.6-c6e7f7d~87~ubuntu18.04.1*%
%TF.CreationDate,2020-09-17T09:17:57+10:00*%
%TF.ProjectId,MSPY-FR2355,4d535059-2d46-4523-9233-35352e6b6963,rev?*%
%TF.SameCoordinates,Original*%
%TF.FileFunction,Legend,Top*%
%TF.FilePolarity,Positive*%
%FSLAX46Y46*%
G04 Gerber Fmt 4.6, Leading zero omitted, Abs format (unit mm)*
G04 Created by KiCad (PCBNEW 5.1.6-c6e7f7d~87~ubuntu18.04.1) date 2020-09-17 09:17:57*
%MOMM*%
%LPD*%
G01*
G04 APERTURE LIST*
%ADD10C,0.120000*%
%ADD11C,0.150000*%
G04 APERTURE END LIST*
D10*
%TO.C,SW1*%
X144037000Y-122761000D02*
X144037000Y-121261000D01*
X142787000Y-118761000D02*
X138287000Y-118761000D01*
X137037000Y-121261000D02*
X137037000Y-122761000D01*
X138287000Y-125261000D02*
X142787000Y-125261000D01*
%TO.C,Y1*%
X137088000Y-82440000D02*
X137088000Y-87740000D01*
X140788000Y-82440000D02*
X137088000Y-82440000D01*
%TO.C,U1*%
X143622000Y-90116000D02*
X143622000Y-88826000D01*
X144072000Y-90116000D02*
X143622000Y-90116000D01*
X144072000Y-90566000D02*
X144072000Y-90116000D01*
X144072000Y-97336000D02*
X143622000Y-97336000D01*
X144072000Y-96886000D02*
X144072000Y-97336000D01*
X136852000Y-90116000D02*
X137302000Y-90116000D01*
X136852000Y-90566000D02*
X136852000Y-90116000D01*
X136852000Y-97336000D02*
X137302000Y-97336000D01*
X136852000Y-96886000D02*
X136852000Y-97336000D01*
%TO.C,C4*%
X138879733Y-82044000D02*
X139222267Y-82044000D01*
X138879733Y-81024000D02*
X139222267Y-81024000D01*
%TO.C,R1*%
X142284267Y-116330000D02*
X141941733Y-116330000D01*
X142284267Y-117350000D02*
X141941733Y-117350000D01*
%TO.C,J3*%
X132842000Y-79756000D02*
X132842000Y-78486000D01*
X134112000Y-79756000D02*
X132842000Y-79756000D01*
X147192000Y-77443071D02*
X147192000Y-77046000D01*
X146432000Y-77443071D02*
X146432000Y-77046000D01*
X147192000Y-68386000D02*
X147192000Y-74386000D01*
X146432000Y-68386000D02*
X147192000Y-68386000D01*
X146432000Y-74386000D02*
X146432000Y-68386000D01*
X145542000Y-77046000D02*
X145542000Y-74386000D01*
X144652000Y-77443071D02*
X144652000Y-77046000D01*
X143892000Y-77443071D02*
X143892000Y-77046000D01*
X144652000Y-68386000D02*
X144652000Y-74386000D01*
X143892000Y-68386000D02*
X144652000Y-68386000D01*
X143892000Y-74386000D02*
X143892000Y-68386000D01*
X143002000Y-77046000D02*
X143002000Y-74386000D01*
X142112000Y-77443071D02*
X142112000Y-77046000D01*
X141352000Y-77443071D02*
X141352000Y-77046000D01*
X142112000Y-68386000D02*
X142112000Y-74386000D01*
X141352000Y-68386000D02*
X142112000Y-68386000D01*
X141352000Y-74386000D02*
X141352000Y-68386000D01*
X140462000Y-77046000D02*
X140462000Y-74386000D01*
X139572000Y-77443071D02*
X139572000Y-77046000D01*
X138812000Y-77443071D02*
X138812000Y-77046000D01*
X139572000Y-68386000D02*
X139572000Y-74386000D01*
X138812000Y-68386000D02*
X139572000Y-68386000D01*
X138812000Y-74386000D02*
X138812000Y-68386000D01*
X137922000Y-77046000D02*
X137922000Y-74386000D01*
X137032000Y-77443071D02*
X137032000Y-77046000D01*
X136272000Y-77443071D02*
X136272000Y-77046000D01*
X137032000Y-68386000D02*
X137032000Y-74386000D01*
X136272000Y-68386000D02*
X137032000Y-68386000D01*
X136272000Y-74386000D02*
X136272000Y-68386000D01*
X135382000Y-77046000D02*
X135382000Y-74386000D01*
X134492000Y-77376000D02*
X134492000Y-77046000D01*
X133732000Y-77376000D02*
X133732000Y-77046000D01*
X134392000Y-74386000D02*
X134392000Y-68386000D01*
X134272000Y-74386000D02*
X134272000Y-68386000D01*
X134152000Y-74386000D02*
X134152000Y-68386000D01*
X134032000Y-74386000D02*
X134032000Y-68386000D01*
X133912000Y-74386000D02*
X133912000Y-68386000D01*
X133792000Y-74386000D02*
X133792000Y-68386000D01*
X134492000Y-68386000D02*
X134492000Y-74386000D01*
X133732000Y-68386000D02*
X134492000Y-68386000D01*
X133732000Y-74386000D02*
X133732000Y-68386000D01*
X132782000Y-74386000D02*
X132782000Y-77046000D01*
X148142000Y-74386000D02*
X132782000Y-74386000D01*
X148142000Y-77046000D02*
X148142000Y-74386000D01*
X132782000Y-77046000D02*
X148142000Y-77046000D01*
%TO.C,C5*%
X142242000Y-84894267D02*
X142242000Y-84551733D01*
X141222000Y-84894267D02*
X141222000Y-84551733D01*
%TO.C,C3*%
X144951267Y-82294000D02*
X144608733Y-82294000D01*
X144951267Y-83314000D02*
X144608733Y-83314000D01*
%TO.C,C2*%
X138347267Y-116330000D02*
X138004733Y-116330000D01*
X138347267Y-117350000D02*
X138004733Y-117350000D01*
%TO.C,C1*%
X144951267Y-84072000D02*
X144608733Y-84072000D01*
X144951267Y-85092000D02*
X144608733Y-85092000D01*
%TO.C,SW1*%
D11*
X139203666Y-122705761D02*
X139346523Y-122753380D01*
X139584619Y-122753380D01*
X139679857Y-122705761D01*
X139727476Y-122658142D01*
X139775095Y-122562904D01*
X139775095Y-122467666D01*
X139727476Y-122372428D01*
X139679857Y-122324809D01*
X139584619Y-122277190D01*
X139394142Y-122229571D01*
X139298904Y-122181952D01*
X139251285Y-122134333D01*
X139203666Y-122039095D01*
X139203666Y-121943857D01*
X139251285Y-121848619D01*
X139298904Y-121801000D01*
X139394142Y-121753380D01*
X139632238Y-121753380D01*
X139775095Y-121801000D01*
X140108428Y-121753380D02*
X140346523Y-122753380D01*
X140537000Y-122039095D01*
X140727476Y-122753380D01*
X140965571Y-121753380D01*
X141870333Y-122753380D02*
X141298904Y-122753380D01*
X141584619Y-122753380D02*
X141584619Y-121753380D01*
X141489380Y-121896238D01*
X141394142Y-121991476D01*
X141298904Y-122039095D01*
%TO.C,Y1*%
X138461809Y-85066190D02*
X138461809Y-85542380D01*
X138128476Y-84542380D02*
X138461809Y-85066190D01*
X138795142Y-84542380D01*
X139652285Y-85542380D02*
X139080857Y-85542380D01*
X139366571Y-85542380D02*
X139366571Y-84542380D01*
X139271333Y-84685238D01*
X139176095Y-84780476D01*
X139080857Y-84828095D01*
%TO.C,U1*%
X139700095Y-92924380D02*
X139700095Y-93733904D01*
X139747714Y-93829142D01*
X139795333Y-93876761D01*
X139890571Y-93924380D01*
X140081047Y-93924380D01*
X140176285Y-93876761D01*
X140223904Y-93829142D01*
X140271523Y-93733904D01*
X140271523Y-92924380D01*
X141271523Y-93924380D02*
X140700095Y-93924380D01*
X140985809Y-93924380D02*
X140985809Y-92924380D01*
X140890571Y-93067238D01*
X140795333Y-93162476D01*
X140700095Y-93210095D01*
%TO.C,C4*%
X138884333Y-80461142D02*
X138836714Y-80508761D01*
X138693857Y-80556380D01*
X138598619Y-80556380D01*
X138455761Y-80508761D01*
X138360523Y-80413523D01*
X138312904Y-80318285D01*
X138265285Y-80127809D01*
X138265285Y-79984952D01*
X138312904Y-79794476D01*
X138360523Y-79699238D01*
X138455761Y-79604000D01*
X138598619Y-79556380D01*
X138693857Y-79556380D01*
X138836714Y-79604000D01*
X138884333Y-79651619D01*
X139741476Y-79889714D02*
X139741476Y-80556380D01*
X139503380Y-79508761D02*
X139265285Y-80223047D01*
X139884333Y-80223047D01*
%TO.C,R1*%
X141946333Y-118722380D02*
X141613000Y-118246190D01*
X141374904Y-118722380D02*
X141374904Y-117722380D01*
X141755857Y-117722380D01*
X141851095Y-117770000D01*
X141898714Y-117817619D01*
X141946333Y-117912857D01*
X141946333Y-118055714D01*
X141898714Y-118150952D01*
X141851095Y-118198571D01*
X141755857Y-118246190D01*
X141374904Y-118246190D01*
X142898714Y-118722380D02*
X142327285Y-118722380D01*
X142613000Y-118722380D02*
X142613000Y-117722380D01*
X142517761Y-117865238D01*
X142422523Y-117960476D01*
X142327285Y-118008095D01*
%TO.C,C5*%
X141819333Y-87479142D02*
X141771714Y-87526761D01*
X141628857Y-87574380D01*
X141533619Y-87574380D01*
X141390761Y-87526761D01*
X141295523Y-87431523D01*
X141247904Y-87336285D01*
X141200285Y-87145809D01*
X141200285Y-87002952D01*
X141247904Y-86812476D01*
X141295523Y-86717238D01*
X141390761Y-86622000D01*
X141533619Y-86574380D01*
X141628857Y-86574380D01*
X141771714Y-86622000D01*
X141819333Y-86669619D01*
X142724095Y-86574380D02*
X142247904Y-86574380D01*
X142200285Y-87050571D01*
X142247904Y-87002952D01*
X142343142Y-86955333D01*
X142581238Y-86955333D01*
X142676476Y-87002952D01*
X142724095Y-87050571D01*
X142771714Y-87145809D01*
X142771714Y-87383904D01*
X142724095Y-87479142D01*
X142676476Y-87526761D01*
X142581238Y-87574380D01*
X142343142Y-87574380D01*
X142247904Y-87526761D01*
X142200285Y-87479142D01*
%TO.C,C3*%
X144359333Y-81637142D02*
X144311714Y-81684761D01*
X144168857Y-81732380D01*
X144073619Y-81732380D01*
X143930761Y-81684761D01*
X143835523Y-81589523D01*
X143787904Y-81494285D01*
X143740285Y-81303809D01*
X143740285Y-81160952D01*
X143787904Y-80970476D01*
X143835523Y-80875238D01*
X143930761Y-80780000D01*
X144073619Y-80732380D01*
X144168857Y-80732380D01*
X144311714Y-80780000D01*
X144359333Y-80827619D01*
X144692666Y-80732380D02*
X145311714Y-80732380D01*
X144978380Y-81113333D01*
X145121238Y-81113333D01*
X145216476Y-81160952D01*
X145264095Y-81208571D01*
X145311714Y-81303809D01*
X145311714Y-81541904D01*
X145264095Y-81637142D01*
X145216476Y-81684761D01*
X145121238Y-81732380D01*
X144835523Y-81732380D01*
X144740285Y-81684761D01*
X144692666Y-81637142D01*
%TO.C,C2*%
X138009333Y-118627142D02*
X137961714Y-118674761D01*
X137818857Y-118722380D01*
X137723619Y-118722380D01*
X137580761Y-118674761D01*
X137485523Y-118579523D01*
X137437904Y-118484285D01*
X137390285Y-118293809D01*
X137390285Y-118150952D01*
X137437904Y-117960476D01*
X137485523Y-117865238D01*
X137580761Y-117770000D01*
X137723619Y-117722380D01*
X137818857Y-117722380D01*
X137961714Y-117770000D01*
X138009333Y-117817619D01*
X138390285Y-117817619D02*
X138437904Y-117770000D01*
X138533142Y-117722380D01*
X138771238Y-117722380D01*
X138866476Y-117770000D01*
X138914095Y-117817619D01*
X138961714Y-117912857D01*
X138961714Y-118008095D01*
X138914095Y-118150952D01*
X138342666Y-118722380D01*
X138961714Y-118722380D01*
%TO.C,C1*%
X144867333Y-86717142D02*
X144819714Y-86764761D01*
X144676857Y-86812380D01*
X144581619Y-86812380D01*
X144438761Y-86764761D01*
X144343523Y-86669523D01*
X144295904Y-86574285D01*
X144248285Y-86383809D01*
X144248285Y-86240952D01*
X144295904Y-86050476D01*
X144343523Y-85955238D01*
X144438761Y-85860000D01*
X144581619Y-85812380D01*
X144676857Y-85812380D01*
X144819714Y-85860000D01*
X144867333Y-85907619D01*
X145819714Y-86812380D02*
X145248285Y-86812380D01*
X145534000Y-86812380D02*
X145534000Y-85812380D01*
X145438761Y-85955238D01*
X145343523Y-86050476D01*
X145248285Y-86098095D01*
%TD*%
M02*
