%TF.GenerationSoftware,KiCad,Pcbnew,5.1.6-c6e7f7d~87~ubuntu18.04.1*%
%TF.CreationDate,2020-09-17T09:17:57+10:00*%
%TF.ProjectId,MSPY-FR2355,4d535059-2d46-4523-9233-35352e6b6963,rev?*%
%TF.SameCoordinates,Original*%
%TF.FileFunction,Soldermask,Bot*%
%TF.FilePolarity,Negative*%
%FSLAX46Y46*%
G04 Gerber Fmt 4.6, Leading zero omitted, Abs format (unit mm)*
G04 Created by KiCad (PCBNEW 5.1.6-c6e7f7d~87~ubuntu18.04.1) date 2020-09-17 09:17:57*
%MOMM*%
%LPD*%
G01*
G04 APERTURE LIST*
%ADD10O,1.800000X1.800000*%
%ADD11R,1.800000X1.800000*%
%ADD12C,2.100000*%
G04 APERTURE END LIST*
D10*
%TO.C,J2*%
X149352000Y-69596000D03*
X149352000Y-72136000D03*
X149352000Y-74676000D03*
X149352000Y-77216000D03*
X149352000Y-79756000D03*
X149352000Y-82296000D03*
X149352000Y-84836000D03*
X149352000Y-87376000D03*
X149352000Y-89916000D03*
X149352000Y-92456000D03*
X149352000Y-94996000D03*
X149352000Y-97536000D03*
X149352000Y-100076000D03*
X149352000Y-102616000D03*
X149352000Y-105156000D03*
X149352000Y-107696000D03*
X149352000Y-110236000D03*
X149352000Y-112776000D03*
X149352000Y-115316000D03*
X149352000Y-117856000D03*
X149352000Y-120396000D03*
X149352000Y-122936000D03*
D11*
X149352000Y-125476000D03*
%TD*%
D10*
%TO.C,J1*%
X131572000Y-125476000D03*
X131572000Y-122936000D03*
X131572000Y-120396000D03*
X131572000Y-117856000D03*
X131572000Y-115316000D03*
X131572000Y-112776000D03*
X131572000Y-110236000D03*
X131572000Y-107696000D03*
X131572000Y-105156000D03*
X131572000Y-102616000D03*
X131572000Y-100076000D03*
X131572000Y-97536000D03*
X131572000Y-94996000D03*
X131572000Y-92456000D03*
X131572000Y-89916000D03*
X131572000Y-87376000D03*
X131572000Y-84836000D03*
X131572000Y-82296000D03*
X131572000Y-79756000D03*
X131572000Y-77216000D03*
X131572000Y-74676000D03*
X131572000Y-72136000D03*
D11*
X131572000Y-69596000D03*
%TD*%
D12*
%TO.C,SW1*%
X143787000Y-119761000D03*
X143787000Y-124261000D03*
X137287000Y-119761000D03*
X137287000Y-124261000D03*
%TD*%
D10*
%TO.C,J3*%
X146812000Y-78486000D03*
X144272000Y-78486000D03*
X141732000Y-78486000D03*
X139192000Y-78486000D03*
X136652000Y-78486000D03*
D11*
X134112000Y-78486000D03*
%TD*%
M02*
