M48
; DRILL file {KiCad 5.1.6-c6e7f7d~87~ubuntu18.04.1} date Thu Sep 17 09:18:04 2020
; FORMAT={-:-/ absolute / inch / decimal}
; #@! TF.CreationDate,2020-09-17T09:18:04+10:00
; #@! TF.GenerationSoftware,Kicad,Pcbnew,5.1.6-c6e7f7d~87~ubuntu18.04.1
FMAT,2
INCH
T1C0.0157
T2C0.0394
T3C0.0433
%
G90
G05
T1
X5.335Y-3.86
X5.3741Y-3.8871
X5.58Y-3.24
X5.63Y-4.55
X5.63Y-4.55
X5.69Y-4.215
X5.71Y-3.53
T2
X5.88Y-2.74
X5.88Y-2.84
X5.88Y-2.94
X5.88Y-3.04
X5.88Y-3.14
X5.88Y-3.24
X5.88Y-3.34
X5.88Y-3.44
X5.88Y-3.54
X5.88Y-3.64
X5.88Y-3.74
X5.88Y-3.84
X5.88Y-3.94
X5.88Y-4.04
X5.88Y-4.14
X5.88Y-4.24
X5.88Y-4.34
X5.88Y-4.44
X5.88Y-4.54
X5.88Y-4.64
X5.88Y-4.74
X5.88Y-4.84
X5.88Y-4.94
X5.28Y-3.09
X5.38Y-3.09
X5.48Y-3.09
X5.58Y-3.09
X5.68Y-3.09
X5.78Y-3.09
X5.18Y-2.74
X5.18Y-2.84
X5.18Y-2.94
X5.18Y-3.04
X5.18Y-3.14
X5.18Y-3.24
X5.18Y-3.34
X5.18Y-3.44
X5.18Y-3.54
X5.18Y-3.64
X5.18Y-3.74
X5.18Y-3.84
X5.18Y-3.94
X5.18Y-4.04
X5.18Y-4.14
X5.18Y-4.24
X5.18Y-4.34
X5.18Y-4.44
X5.18Y-4.54
X5.18Y-4.64
X5.18Y-4.74
X5.18Y-4.84
X5.18Y-4.94
T3
X5.405Y-4.715
X5.405Y-4.8922
X5.6609Y-4.715
X5.6609Y-4.8922
T0
M30
