%TF.GenerationSoftware,KiCad,Pcbnew,5.1.6-c6e7f7d~87~ubuntu18.04.1*%
%TF.CreationDate,2020-09-17T09:17:57+10:00*%
%TF.ProjectId,MSPY-FR2355,4d535059-2d46-4523-9233-35352e6b6963,rev?*%
%TF.SameCoordinates,Original*%
%TF.FileFunction,Copper,L2,Bot*%
%TF.FilePolarity,Positive*%
%FSLAX46Y46*%
G04 Gerber Fmt 4.6, Leading zero omitted, Abs format (unit mm)*
G04 Created by KiCad (PCBNEW 5.1.6-c6e7f7d~87~ubuntu18.04.1) date 2020-09-17 09:17:57*
%MOMM*%
%LPD*%
G01*
G04 APERTURE LIST*
%TA.AperFunction,ComponentPad*%
%ADD10O,1.700000X1.700000*%
%TD*%
%TA.AperFunction,ComponentPad*%
%ADD11R,1.700000X1.700000*%
%TD*%
%TA.AperFunction,ComponentPad*%
%ADD12C,2.000000*%
%TD*%
%TA.AperFunction,ViaPad*%
%ADD13C,0.800000*%
%TD*%
%TA.AperFunction,Conductor*%
%ADD14C,0.250000*%
%TD*%
%TA.AperFunction,Conductor*%
%ADD15C,0.254000*%
%TD*%
G04 APERTURE END LIST*
D10*
%TO.P,J2,23*%
%TO.N,GND*%
X149352000Y-69596000D03*
%TO.P,J2,22*%
%TO.N,~RST~*%
X149352000Y-72136000D03*
%TO.P,J2,21*%
%TO.N,P4*%
X149352000Y-74676000D03*
%TO.P,J2,20*%
%TO.N,P3*%
X149352000Y-77216000D03*
%TO.P,J2,19*%
%TO.N,P2*%
X149352000Y-79756000D03*
%TO.P,J2,18*%
%TO.N,P1*%
X149352000Y-82296000D03*
%TO.P,J2,17*%
%TO.N,P48*%
X149352000Y-84836000D03*
%TO.P,J2,16*%
%TO.N,P47*%
X149352000Y-87376000D03*
%TO.P,J2,15*%
%TO.N,P46*%
X149352000Y-89916000D03*
%TO.P,J2,14*%
%TO.N,P45*%
X149352000Y-92456000D03*
%TO.P,J2,13*%
%TO.N,P44*%
X149352000Y-94996000D03*
%TO.P,J2,12*%
%TO.N,P43*%
X149352000Y-97536000D03*
%TO.P,J2,11*%
%TO.N,P42*%
X149352000Y-100076000D03*
%TO.P,J2,10*%
%TO.N,P41*%
X149352000Y-102616000D03*
%TO.P,J2,9*%
%TO.N,P40*%
X149352000Y-105156000D03*
%TO.P,J2,8*%
%TO.N,P39*%
X149352000Y-107696000D03*
%TO.P,J2,7*%
%TO.N,P38*%
X149352000Y-110236000D03*
%TO.P,J2,6*%
%TO.N,P37*%
X149352000Y-112776000D03*
%TO.P,J2,5*%
%TO.N,P36*%
X149352000Y-115316000D03*
%TO.P,J2,4*%
%TO.N,P35*%
X149352000Y-117856000D03*
%TO.P,J2,3*%
%TO.N,P34*%
X149352000Y-120396000D03*
%TO.P,J2,2*%
%TO.N,P33*%
X149352000Y-122936000D03*
D11*
%TO.P,J2,1*%
%TO.N,P32*%
X149352000Y-125476000D03*
%TD*%
D10*
%TO.P,J1,23*%
%TO.N,P31*%
X131572000Y-125476000D03*
%TO.P,J1,22*%
%TO.N,P30*%
X131572000Y-122936000D03*
%TO.P,J1,21*%
%TO.N,P29*%
X131572000Y-120396000D03*
%TO.P,J1,20*%
%TO.N,P28*%
X131572000Y-117856000D03*
%TO.P,J1,19*%
%TO.N,P27*%
X131572000Y-115316000D03*
%TO.P,J1,18*%
%TO.N,P26*%
X131572000Y-112776000D03*
%TO.P,J1,17*%
%TO.N,P25*%
X131572000Y-110236000D03*
%TO.P,J1,16*%
%TO.N,P24*%
X131572000Y-107696000D03*
%TO.P,J1,15*%
%TO.N,P23*%
X131572000Y-105156000D03*
%TO.P,J1,14*%
%TO.N,P22*%
X131572000Y-102616000D03*
%TO.P,J1,13*%
%TO.N,P21*%
X131572000Y-100076000D03*
%TO.P,J1,12*%
%TO.N,P20*%
X131572000Y-97536000D03*
%TO.P,J1,11*%
%TO.N,P19*%
X131572000Y-94996000D03*
%TO.P,J1,10*%
%TO.N,P18*%
X131572000Y-92456000D03*
%TO.P,J1,9*%
%TO.N,P17*%
X131572000Y-89916000D03*
%TO.P,J1,8*%
%TO.N,P16*%
X131572000Y-87376000D03*
%TO.P,J1,7*%
%TO.N,P15*%
X131572000Y-84836000D03*
%TO.P,J1,6*%
%TO.N,P14*%
X131572000Y-82296000D03*
%TO.P,J1,5*%
%TO.N,P13*%
X131572000Y-79756000D03*
%TO.P,J1,4*%
%TO.N,P12*%
X131572000Y-77216000D03*
%TO.P,J1,3*%
%TO.N,P11*%
X131572000Y-74676000D03*
%TO.P,J1,2*%
%TO.N,P10*%
X131572000Y-72136000D03*
D11*
%TO.P,J1,1*%
%TO.N,+3V3*%
X131572000Y-69596000D03*
%TD*%
D12*
%TO.P,SW1,1*%
%TO.N,~RST~*%
X143787000Y-119761000D03*
%TO.P,SW1,2*%
%TO.N,GND*%
X143787000Y-124261000D03*
%TO.P,SW1,1*%
%TO.N,~RST~*%
X137287000Y-119761000D03*
%TO.P,SW1,2*%
%TO.N,GND*%
X137287000Y-124261000D03*
%TD*%
D10*
%TO.P,J3,6*%
%TO.N,Net-(J3-Pad6)*%
X146812000Y-78486000D03*
%TO.P,J3,5*%
%TO.N,P23*%
X144272000Y-78486000D03*
%TO.P,J3,4*%
%TO.N,P24*%
X141732000Y-78486000D03*
%TO.P,J3,3*%
%TO.N,Net-(J3-Pad3)*%
X139192000Y-78486000D03*
%TO.P,J3,2*%
%TO.N,Net-(J3-Pad2)*%
X136652000Y-78486000D03*
D11*
%TO.P,J3,1*%
%TO.N,GND*%
X134112000Y-78486000D03*
%TD*%
D13*
%TO.N,GND*%
X141732000Y-82296000D03*
%TO.N,+3V3*%
X144526000Y-107061000D03*
X143002000Y-115570000D03*
X143002000Y-115570000D03*
%TO.N,~RST~*%
X145034012Y-89662000D03*
%TO.N,P24*%
X135509000Y-98044000D03*
%TO.N,P23*%
X136501032Y-98731551D03*
%TD*%
D14*
%TO.N,+3V3*%
X144526000Y-107061000D02*
X143002000Y-108585000D01*
X143002000Y-108585000D02*
X143002000Y-115570000D01*
%TO.N,~RST~*%
X145447001Y-76040999D02*
X149352000Y-72136000D01*
X145447001Y-76040999D02*
X144977999Y-76040999D01*
X142965010Y-78053988D02*
X142965010Y-79082599D01*
X145484011Y-89212001D02*
X145034012Y-89662000D01*
X144977999Y-76040999D02*
X142965010Y-78053988D01*
X142965010Y-79082599D02*
X145484011Y-81601600D01*
X145484011Y-81601600D02*
X145484011Y-89212001D01*
X146463013Y-81307780D02*
X145447001Y-80291768D01*
X143787000Y-119761000D02*
X146463013Y-117084987D01*
X146463013Y-117084987D02*
X146463013Y-81307780D01*
X145447001Y-80291768D02*
X145447001Y-76040999D01*
%TO.N,P24*%
X145034000Y-81788000D02*
X141732000Y-78486000D01*
X145034000Y-88519000D02*
X145034000Y-81788000D01*
X135509000Y-98044000D02*
X145034000Y-88519000D01*
%TO.N,P23*%
X144272000Y-79753179D02*
X146013002Y-81494181D01*
X144272000Y-78486000D02*
X144272000Y-79753179D01*
X146013002Y-89785266D02*
X137066717Y-98731551D01*
X137066717Y-98731551D02*
X136501032Y-98731551D01*
X146013002Y-81494181D02*
X146013002Y-89785266D01*
%TD*%
D15*
%TO.N,GND*%
G36*
X147955175Y-69091901D02*
G01*
X147910524Y-69239110D01*
X148031845Y-69469000D01*
X149225000Y-69469000D01*
X149225000Y-69449000D01*
X149479000Y-69449000D01*
X149479000Y-69469000D01*
X149499000Y-69469000D01*
X149499000Y-69723000D01*
X149479000Y-69723000D01*
X149479000Y-69743000D01*
X149225000Y-69743000D01*
X149225000Y-69723000D01*
X148031845Y-69723000D01*
X147910524Y-69952890D01*
X147955175Y-70100099D01*
X148080359Y-70362920D01*
X148254412Y-70596269D01*
X148470645Y-70791178D01*
X148587534Y-70860805D01*
X148405368Y-70982525D01*
X148198525Y-71189368D01*
X148036010Y-71432589D01*
X147924068Y-71702842D01*
X147867000Y-71989740D01*
X147867000Y-72282260D01*
X147910790Y-72502408D01*
X145132200Y-75280999D01*
X145015321Y-75280999D01*
X144977998Y-75277323D01*
X144940675Y-75280999D01*
X144940666Y-75280999D01*
X144829013Y-75291996D01*
X144685752Y-75335453D01*
X144553723Y-75406025D01*
X144437998Y-75500998D01*
X144414200Y-75529996D01*
X142638492Y-77305705D01*
X142435411Y-77170010D01*
X142165158Y-77058068D01*
X141878260Y-77001000D01*
X141585740Y-77001000D01*
X141298842Y-77058068D01*
X141028589Y-77170010D01*
X140785368Y-77332525D01*
X140578525Y-77539368D01*
X140462000Y-77713760D01*
X140345475Y-77539368D01*
X140138632Y-77332525D01*
X139895411Y-77170010D01*
X139625158Y-77058068D01*
X139338260Y-77001000D01*
X139045740Y-77001000D01*
X138758842Y-77058068D01*
X138488589Y-77170010D01*
X138245368Y-77332525D01*
X138038525Y-77539368D01*
X137922000Y-77713760D01*
X137805475Y-77539368D01*
X137598632Y-77332525D01*
X137355411Y-77170010D01*
X137085158Y-77058068D01*
X136798260Y-77001000D01*
X136505740Y-77001000D01*
X136218842Y-77058068D01*
X135948589Y-77170010D01*
X135705368Y-77332525D01*
X135573513Y-77464380D01*
X135551502Y-77391820D01*
X135492537Y-77281506D01*
X135413185Y-77184815D01*
X135316494Y-77105463D01*
X135206180Y-77046498D01*
X135086482Y-77010188D01*
X134962000Y-76997928D01*
X134397750Y-77001000D01*
X134239000Y-77159750D01*
X134239000Y-78359000D01*
X134259000Y-78359000D01*
X134259000Y-78613000D01*
X134239000Y-78613000D01*
X134239000Y-79812250D01*
X134397750Y-79971000D01*
X134962000Y-79974072D01*
X135086482Y-79961812D01*
X135206180Y-79925502D01*
X135316494Y-79866537D01*
X135413185Y-79787185D01*
X135492537Y-79690494D01*
X135551502Y-79580180D01*
X135573513Y-79507620D01*
X135705368Y-79639475D01*
X135948589Y-79801990D01*
X136218842Y-79913932D01*
X136505740Y-79971000D01*
X136798260Y-79971000D01*
X137085158Y-79913932D01*
X137355411Y-79801990D01*
X137598632Y-79639475D01*
X137805475Y-79432632D01*
X137922000Y-79258240D01*
X138038525Y-79432632D01*
X138245368Y-79639475D01*
X138488589Y-79801990D01*
X138758842Y-79913932D01*
X139045740Y-79971000D01*
X139338260Y-79971000D01*
X139625158Y-79913932D01*
X139895411Y-79801990D01*
X140138632Y-79639475D01*
X140345475Y-79432632D01*
X140462000Y-79258240D01*
X140578525Y-79432632D01*
X140785368Y-79639475D01*
X141028589Y-79801990D01*
X141298842Y-79913932D01*
X141585740Y-79971000D01*
X141878260Y-79971000D01*
X142098408Y-79927209D01*
X144274001Y-82102803D01*
X144274000Y-88204198D01*
X135469199Y-97009000D01*
X135407061Y-97009000D01*
X135207102Y-97048774D01*
X135018744Y-97126795D01*
X134849226Y-97240063D01*
X134705063Y-97384226D01*
X134591795Y-97553744D01*
X134513774Y-97742102D01*
X134474000Y-97942061D01*
X134474000Y-98145939D01*
X134513774Y-98345898D01*
X134591795Y-98534256D01*
X134705063Y-98703774D01*
X134849226Y-98847937D01*
X135018744Y-98961205D01*
X135207102Y-99039226D01*
X135407061Y-99079000D01*
X135524674Y-99079000D01*
X135583827Y-99221807D01*
X135697095Y-99391325D01*
X135841258Y-99535488D01*
X136010776Y-99648756D01*
X136199134Y-99726777D01*
X136399093Y-99766551D01*
X136602971Y-99766551D01*
X136802930Y-99726777D01*
X136991288Y-99648756D01*
X137160806Y-99535488D01*
X137215756Y-99480538D01*
X137358964Y-99437097D01*
X137490993Y-99366525D01*
X137606718Y-99271552D01*
X137630521Y-99242548D01*
X145703014Y-91170056D01*
X145703013Y-116770185D01*
X144278376Y-118194823D01*
X144263912Y-118188832D01*
X143948033Y-118126000D01*
X143625967Y-118126000D01*
X143310088Y-118188832D01*
X143012537Y-118312082D01*
X142744748Y-118491013D01*
X142517013Y-118718748D01*
X142338082Y-118986537D01*
X142214832Y-119284088D01*
X142152000Y-119599967D01*
X142152000Y-119922033D01*
X142214832Y-120237912D01*
X142338082Y-120535463D01*
X142517013Y-120803252D01*
X142744748Y-121030987D01*
X143012537Y-121209918D01*
X143310088Y-121333168D01*
X143625967Y-121396000D01*
X143948033Y-121396000D01*
X144263912Y-121333168D01*
X144561463Y-121209918D01*
X144829252Y-121030987D01*
X145056987Y-120803252D01*
X145235918Y-120535463D01*
X145359168Y-120237912D01*
X145422000Y-119922033D01*
X145422000Y-119599967D01*
X145359168Y-119284088D01*
X145353177Y-119269624D01*
X146974017Y-117648785D01*
X147003014Y-117624988D01*
X147029345Y-117592904D01*
X147097987Y-117509264D01*
X147168559Y-117377234D01*
X147168559Y-117377233D01*
X147212016Y-117233973D01*
X147223013Y-117122320D01*
X147223013Y-117122310D01*
X147226689Y-117084987D01*
X147223013Y-117047664D01*
X147223013Y-81345103D01*
X147226689Y-81307780D01*
X147223013Y-81270457D01*
X147223013Y-81270447D01*
X147212016Y-81158794D01*
X147168559Y-81015533D01*
X147111869Y-80909475D01*
X147097987Y-80883503D01*
X147026812Y-80796777D01*
X147003014Y-80767779D01*
X146974016Y-80743981D01*
X146207001Y-79976967D01*
X146207001Y-79842753D01*
X146378842Y-79913932D01*
X146665740Y-79971000D01*
X146958260Y-79971000D01*
X147245158Y-79913932D01*
X147515411Y-79801990D01*
X147758632Y-79639475D01*
X147886525Y-79511582D01*
X147867000Y-79609740D01*
X147867000Y-79902260D01*
X147924068Y-80189158D01*
X148036010Y-80459411D01*
X148198525Y-80702632D01*
X148405368Y-80909475D01*
X148579760Y-81026000D01*
X148405368Y-81142525D01*
X148198525Y-81349368D01*
X148036010Y-81592589D01*
X147924068Y-81862842D01*
X147867000Y-82149740D01*
X147867000Y-82442260D01*
X147924068Y-82729158D01*
X148036010Y-82999411D01*
X148198525Y-83242632D01*
X148405368Y-83449475D01*
X148579760Y-83566000D01*
X148405368Y-83682525D01*
X148198525Y-83889368D01*
X148036010Y-84132589D01*
X147924068Y-84402842D01*
X147867000Y-84689740D01*
X147867000Y-84982260D01*
X147924068Y-85269158D01*
X148036010Y-85539411D01*
X148198525Y-85782632D01*
X148405368Y-85989475D01*
X148579760Y-86106000D01*
X148405368Y-86222525D01*
X148198525Y-86429368D01*
X148036010Y-86672589D01*
X147924068Y-86942842D01*
X147867000Y-87229740D01*
X147867000Y-87522260D01*
X147924068Y-87809158D01*
X148036010Y-88079411D01*
X148198525Y-88322632D01*
X148405368Y-88529475D01*
X148579760Y-88646000D01*
X148405368Y-88762525D01*
X148198525Y-88969368D01*
X148036010Y-89212589D01*
X147924068Y-89482842D01*
X147867000Y-89769740D01*
X147867000Y-90062260D01*
X147924068Y-90349158D01*
X148036010Y-90619411D01*
X148198525Y-90862632D01*
X148405368Y-91069475D01*
X148579760Y-91186000D01*
X148405368Y-91302525D01*
X148198525Y-91509368D01*
X148036010Y-91752589D01*
X147924068Y-92022842D01*
X147867000Y-92309740D01*
X147867000Y-92602260D01*
X147924068Y-92889158D01*
X148036010Y-93159411D01*
X148198525Y-93402632D01*
X148405368Y-93609475D01*
X148579760Y-93726000D01*
X148405368Y-93842525D01*
X148198525Y-94049368D01*
X148036010Y-94292589D01*
X147924068Y-94562842D01*
X147867000Y-94849740D01*
X147867000Y-95142260D01*
X147924068Y-95429158D01*
X148036010Y-95699411D01*
X148198525Y-95942632D01*
X148405368Y-96149475D01*
X148579760Y-96266000D01*
X148405368Y-96382525D01*
X148198525Y-96589368D01*
X148036010Y-96832589D01*
X147924068Y-97102842D01*
X147867000Y-97389740D01*
X147867000Y-97682260D01*
X147924068Y-97969158D01*
X148036010Y-98239411D01*
X148198525Y-98482632D01*
X148405368Y-98689475D01*
X148579760Y-98806000D01*
X148405368Y-98922525D01*
X148198525Y-99129368D01*
X148036010Y-99372589D01*
X147924068Y-99642842D01*
X147867000Y-99929740D01*
X147867000Y-100222260D01*
X147924068Y-100509158D01*
X148036010Y-100779411D01*
X148198525Y-101022632D01*
X148405368Y-101229475D01*
X148579760Y-101346000D01*
X148405368Y-101462525D01*
X148198525Y-101669368D01*
X148036010Y-101912589D01*
X147924068Y-102182842D01*
X147867000Y-102469740D01*
X147867000Y-102762260D01*
X147924068Y-103049158D01*
X148036010Y-103319411D01*
X148198525Y-103562632D01*
X148405368Y-103769475D01*
X148579760Y-103886000D01*
X148405368Y-104002525D01*
X148198525Y-104209368D01*
X148036010Y-104452589D01*
X147924068Y-104722842D01*
X147867000Y-105009740D01*
X147867000Y-105302260D01*
X147924068Y-105589158D01*
X148036010Y-105859411D01*
X148198525Y-106102632D01*
X148405368Y-106309475D01*
X148579760Y-106426000D01*
X148405368Y-106542525D01*
X148198525Y-106749368D01*
X148036010Y-106992589D01*
X147924068Y-107262842D01*
X147867000Y-107549740D01*
X147867000Y-107842260D01*
X147924068Y-108129158D01*
X148036010Y-108399411D01*
X148198525Y-108642632D01*
X148405368Y-108849475D01*
X148579760Y-108966000D01*
X148405368Y-109082525D01*
X148198525Y-109289368D01*
X148036010Y-109532589D01*
X147924068Y-109802842D01*
X147867000Y-110089740D01*
X147867000Y-110382260D01*
X147924068Y-110669158D01*
X148036010Y-110939411D01*
X148198525Y-111182632D01*
X148405368Y-111389475D01*
X148579760Y-111506000D01*
X148405368Y-111622525D01*
X148198525Y-111829368D01*
X148036010Y-112072589D01*
X147924068Y-112342842D01*
X147867000Y-112629740D01*
X147867000Y-112922260D01*
X147924068Y-113209158D01*
X148036010Y-113479411D01*
X148198525Y-113722632D01*
X148405368Y-113929475D01*
X148579760Y-114046000D01*
X148405368Y-114162525D01*
X148198525Y-114369368D01*
X148036010Y-114612589D01*
X147924068Y-114882842D01*
X147867000Y-115169740D01*
X147867000Y-115462260D01*
X147924068Y-115749158D01*
X148036010Y-116019411D01*
X148198525Y-116262632D01*
X148405368Y-116469475D01*
X148579760Y-116586000D01*
X148405368Y-116702525D01*
X148198525Y-116909368D01*
X148036010Y-117152589D01*
X147924068Y-117422842D01*
X147867000Y-117709740D01*
X147867000Y-118002260D01*
X147924068Y-118289158D01*
X148036010Y-118559411D01*
X148198525Y-118802632D01*
X148405368Y-119009475D01*
X148579760Y-119126000D01*
X148405368Y-119242525D01*
X148198525Y-119449368D01*
X148036010Y-119692589D01*
X147924068Y-119962842D01*
X147867000Y-120249740D01*
X147867000Y-120542260D01*
X147924068Y-120829158D01*
X148036010Y-121099411D01*
X148198525Y-121342632D01*
X148405368Y-121549475D01*
X148579760Y-121666000D01*
X148405368Y-121782525D01*
X148198525Y-121989368D01*
X148036010Y-122232589D01*
X147924068Y-122502842D01*
X147867000Y-122789740D01*
X147867000Y-123082260D01*
X147924068Y-123369158D01*
X148036010Y-123639411D01*
X148198525Y-123882632D01*
X148330380Y-124014487D01*
X148257820Y-124036498D01*
X148147506Y-124095463D01*
X148050815Y-124174815D01*
X147971463Y-124271506D01*
X147912498Y-124381820D01*
X147876188Y-124501518D01*
X147863928Y-124626000D01*
X147863928Y-126086000D01*
X132926682Y-126086000D01*
X132999932Y-125909158D01*
X133057000Y-125622260D01*
X133057000Y-125396413D01*
X136331192Y-125396413D01*
X136426956Y-125660814D01*
X136716571Y-125801704D01*
X137028108Y-125883384D01*
X137349595Y-125902718D01*
X137668675Y-125858961D01*
X137973088Y-125753795D01*
X138147044Y-125660814D01*
X138242808Y-125396413D01*
X142831192Y-125396413D01*
X142926956Y-125660814D01*
X143216571Y-125801704D01*
X143528108Y-125883384D01*
X143849595Y-125902718D01*
X144168675Y-125858961D01*
X144473088Y-125753795D01*
X144647044Y-125660814D01*
X144742808Y-125396413D01*
X143787000Y-124440605D01*
X142831192Y-125396413D01*
X138242808Y-125396413D01*
X137287000Y-124440605D01*
X136331192Y-125396413D01*
X133057000Y-125396413D01*
X133057000Y-125329740D01*
X132999932Y-125042842D01*
X132887990Y-124772589D01*
X132725475Y-124529368D01*
X132519702Y-124323595D01*
X135645282Y-124323595D01*
X135689039Y-124642675D01*
X135794205Y-124947088D01*
X135887186Y-125121044D01*
X136151587Y-125216808D01*
X137107395Y-124261000D01*
X137466605Y-124261000D01*
X138422413Y-125216808D01*
X138686814Y-125121044D01*
X138827704Y-124831429D01*
X138909384Y-124519892D01*
X138921189Y-124323595D01*
X142145282Y-124323595D01*
X142189039Y-124642675D01*
X142294205Y-124947088D01*
X142387186Y-125121044D01*
X142651587Y-125216808D01*
X143607395Y-124261000D01*
X143966605Y-124261000D01*
X144922413Y-125216808D01*
X145186814Y-125121044D01*
X145327704Y-124831429D01*
X145409384Y-124519892D01*
X145428718Y-124198405D01*
X145384961Y-123879325D01*
X145279795Y-123574912D01*
X145186814Y-123400956D01*
X144922413Y-123305192D01*
X143966605Y-124261000D01*
X143607395Y-124261000D01*
X142651587Y-123305192D01*
X142387186Y-123400956D01*
X142246296Y-123690571D01*
X142164616Y-124002108D01*
X142145282Y-124323595D01*
X138921189Y-124323595D01*
X138928718Y-124198405D01*
X138884961Y-123879325D01*
X138779795Y-123574912D01*
X138686814Y-123400956D01*
X138422413Y-123305192D01*
X137466605Y-124261000D01*
X137107395Y-124261000D01*
X136151587Y-123305192D01*
X135887186Y-123400956D01*
X135746296Y-123690571D01*
X135664616Y-124002108D01*
X135645282Y-124323595D01*
X132519702Y-124323595D01*
X132518632Y-124322525D01*
X132344240Y-124206000D01*
X132518632Y-124089475D01*
X132725475Y-123882632D01*
X132887990Y-123639411D01*
X132999932Y-123369158D01*
X133048381Y-123125587D01*
X136331192Y-123125587D01*
X137287000Y-124081395D01*
X138242808Y-123125587D01*
X142831192Y-123125587D01*
X143787000Y-124081395D01*
X144742808Y-123125587D01*
X144647044Y-122861186D01*
X144357429Y-122720296D01*
X144045892Y-122638616D01*
X143724405Y-122619282D01*
X143405325Y-122663039D01*
X143100912Y-122768205D01*
X142926956Y-122861186D01*
X142831192Y-123125587D01*
X138242808Y-123125587D01*
X138147044Y-122861186D01*
X137857429Y-122720296D01*
X137545892Y-122638616D01*
X137224405Y-122619282D01*
X136905325Y-122663039D01*
X136600912Y-122768205D01*
X136426956Y-122861186D01*
X136331192Y-123125587D01*
X133048381Y-123125587D01*
X133057000Y-123082260D01*
X133057000Y-122789740D01*
X132999932Y-122502842D01*
X132887990Y-122232589D01*
X132725475Y-121989368D01*
X132518632Y-121782525D01*
X132344240Y-121666000D01*
X132518632Y-121549475D01*
X132725475Y-121342632D01*
X132887990Y-121099411D01*
X132999932Y-120829158D01*
X133057000Y-120542260D01*
X133057000Y-120249740D01*
X132999932Y-119962842D01*
X132887990Y-119692589D01*
X132826102Y-119599967D01*
X135652000Y-119599967D01*
X135652000Y-119922033D01*
X135714832Y-120237912D01*
X135838082Y-120535463D01*
X136017013Y-120803252D01*
X136244748Y-121030987D01*
X136512537Y-121209918D01*
X136810088Y-121333168D01*
X137125967Y-121396000D01*
X137448033Y-121396000D01*
X137763912Y-121333168D01*
X138061463Y-121209918D01*
X138329252Y-121030987D01*
X138556987Y-120803252D01*
X138735918Y-120535463D01*
X138859168Y-120237912D01*
X138922000Y-119922033D01*
X138922000Y-119599967D01*
X138859168Y-119284088D01*
X138735918Y-118986537D01*
X138556987Y-118718748D01*
X138329252Y-118491013D01*
X138061463Y-118312082D01*
X137763912Y-118188832D01*
X137448033Y-118126000D01*
X137125967Y-118126000D01*
X136810088Y-118188832D01*
X136512537Y-118312082D01*
X136244748Y-118491013D01*
X136017013Y-118718748D01*
X135838082Y-118986537D01*
X135714832Y-119284088D01*
X135652000Y-119599967D01*
X132826102Y-119599967D01*
X132725475Y-119449368D01*
X132518632Y-119242525D01*
X132344240Y-119126000D01*
X132518632Y-119009475D01*
X132725475Y-118802632D01*
X132887990Y-118559411D01*
X132999932Y-118289158D01*
X133057000Y-118002260D01*
X133057000Y-117709740D01*
X132999932Y-117422842D01*
X132887990Y-117152589D01*
X132725475Y-116909368D01*
X132518632Y-116702525D01*
X132344240Y-116586000D01*
X132518632Y-116469475D01*
X132725475Y-116262632D01*
X132887990Y-116019411D01*
X132999932Y-115749158D01*
X133055846Y-115468061D01*
X141967000Y-115468061D01*
X141967000Y-115671939D01*
X142006774Y-115871898D01*
X142084795Y-116060256D01*
X142198063Y-116229774D01*
X142342226Y-116373937D01*
X142511744Y-116487205D01*
X142700102Y-116565226D01*
X142900061Y-116605000D01*
X143103939Y-116605000D01*
X143303898Y-116565226D01*
X143492256Y-116487205D01*
X143661774Y-116373937D01*
X143805937Y-116229774D01*
X143919205Y-116060256D01*
X143997226Y-115871898D01*
X144037000Y-115671939D01*
X144037000Y-115468061D01*
X143997226Y-115268102D01*
X143919205Y-115079744D01*
X143805937Y-114910226D01*
X143762000Y-114866289D01*
X143762000Y-108899801D01*
X144565802Y-108096000D01*
X144627939Y-108096000D01*
X144827898Y-108056226D01*
X145016256Y-107978205D01*
X145185774Y-107864937D01*
X145329937Y-107720774D01*
X145443205Y-107551256D01*
X145521226Y-107362898D01*
X145561000Y-107162939D01*
X145561000Y-106959061D01*
X145521226Y-106759102D01*
X145443205Y-106570744D01*
X145329937Y-106401226D01*
X145185774Y-106257063D01*
X145016256Y-106143795D01*
X144827898Y-106065774D01*
X144627939Y-106026000D01*
X144424061Y-106026000D01*
X144224102Y-106065774D01*
X144035744Y-106143795D01*
X143866226Y-106257063D01*
X143722063Y-106401226D01*
X143608795Y-106570744D01*
X143530774Y-106759102D01*
X143491000Y-106959061D01*
X143491000Y-107021198D01*
X142491002Y-108021197D01*
X142461999Y-108044999D01*
X142420144Y-108096000D01*
X142367026Y-108160724D01*
X142296455Y-108292753D01*
X142296454Y-108292754D01*
X142252997Y-108436015D01*
X142242000Y-108547668D01*
X142242000Y-108547678D01*
X142238324Y-108585000D01*
X142242000Y-108622323D01*
X142242001Y-114866288D01*
X142198063Y-114910226D01*
X142084795Y-115079744D01*
X142006774Y-115268102D01*
X141967000Y-115468061D01*
X133055846Y-115468061D01*
X133057000Y-115462260D01*
X133057000Y-115169740D01*
X132999932Y-114882842D01*
X132887990Y-114612589D01*
X132725475Y-114369368D01*
X132518632Y-114162525D01*
X132344240Y-114046000D01*
X132518632Y-113929475D01*
X132725475Y-113722632D01*
X132887990Y-113479411D01*
X132999932Y-113209158D01*
X133057000Y-112922260D01*
X133057000Y-112629740D01*
X132999932Y-112342842D01*
X132887990Y-112072589D01*
X132725475Y-111829368D01*
X132518632Y-111622525D01*
X132344240Y-111506000D01*
X132518632Y-111389475D01*
X132725475Y-111182632D01*
X132887990Y-110939411D01*
X132999932Y-110669158D01*
X133057000Y-110382260D01*
X133057000Y-110089740D01*
X132999932Y-109802842D01*
X132887990Y-109532589D01*
X132725475Y-109289368D01*
X132518632Y-109082525D01*
X132344240Y-108966000D01*
X132518632Y-108849475D01*
X132725475Y-108642632D01*
X132887990Y-108399411D01*
X132999932Y-108129158D01*
X133057000Y-107842260D01*
X133057000Y-107549740D01*
X132999932Y-107262842D01*
X132887990Y-106992589D01*
X132725475Y-106749368D01*
X132518632Y-106542525D01*
X132344240Y-106426000D01*
X132518632Y-106309475D01*
X132725475Y-106102632D01*
X132887990Y-105859411D01*
X132999932Y-105589158D01*
X133057000Y-105302260D01*
X133057000Y-105009740D01*
X132999932Y-104722842D01*
X132887990Y-104452589D01*
X132725475Y-104209368D01*
X132518632Y-104002525D01*
X132344240Y-103886000D01*
X132518632Y-103769475D01*
X132725475Y-103562632D01*
X132887990Y-103319411D01*
X132999932Y-103049158D01*
X133057000Y-102762260D01*
X133057000Y-102469740D01*
X132999932Y-102182842D01*
X132887990Y-101912589D01*
X132725475Y-101669368D01*
X132518632Y-101462525D01*
X132344240Y-101346000D01*
X132518632Y-101229475D01*
X132725475Y-101022632D01*
X132887990Y-100779411D01*
X132999932Y-100509158D01*
X133057000Y-100222260D01*
X133057000Y-99929740D01*
X132999932Y-99642842D01*
X132887990Y-99372589D01*
X132725475Y-99129368D01*
X132518632Y-98922525D01*
X132344240Y-98806000D01*
X132518632Y-98689475D01*
X132725475Y-98482632D01*
X132887990Y-98239411D01*
X132999932Y-97969158D01*
X133057000Y-97682260D01*
X133057000Y-97389740D01*
X132999932Y-97102842D01*
X132887990Y-96832589D01*
X132725475Y-96589368D01*
X132518632Y-96382525D01*
X132344240Y-96266000D01*
X132518632Y-96149475D01*
X132725475Y-95942632D01*
X132887990Y-95699411D01*
X132999932Y-95429158D01*
X133057000Y-95142260D01*
X133057000Y-94849740D01*
X132999932Y-94562842D01*
X132887990Y-94292589D01*
X132725475Y-94049368D01*
X132518632Y-93842525D01*
X132344240Y-93726000D01*
X132518632Y-93609475D01*
X132725475Y-93402632D01*
X132887990Y-93159411D01*
X132999932Y-92889158D01*
X133057000Y-92602260D01*
X133057000Y-92309740D01*
X132999932Y-92022842D01*
X132887990Y-91752589D01*
X132725475Y-91509368D01*
X132518632Y-91302525D01*
X132344240Y-91186000D01*
X132518632Y-91069475D01*
X132725475Y-90862632D01*
X132887990Y-90619411D01*
X132999932Y-90349158D01*
X133057000Y-90062260D01*
X133057000Y-89769740D01*
X132999932Y-89482842D01*
X132887990Y-89212589D01*
X132725475Y-88969368D01*
X132518632Y-88762525D01*
X132344240Y-88646000D01*
X132518632Y-88529475D01*
X132725475Y-88322632D01*
X132887990Y-88079411D01*
X132999932Y-87809158D01*
X133057000Y-87522260D01*
X133057000Y-87229740D01*
X132999932Y-86942842D01*
X132887990Y-86672589D01*
X132725475Y-86429368D01*
X132518632Y-86222525D01*
X132344240Y-86106000D01*
X132518632Y-85989475D01*
X132725475Y-85782632D01*
X132887990Y-85539411D01*
X132999932Y-85269158D01*
X133057000Y-84982260D01*
X133057000Y-84689740D01*
X132999932Y-84402842D01*
X132887990Y-84132589D01*
X132725475Y-83889368D01*
X132518632Y-83682525D01*
X132344240Y-83566000D01*
X132518632Y-83449475D01*
X132725475Y-83242632D01*
X132887990Y-82999411D01*
X132999932Y-82729158D01*
X133057000Y-82442260D01*
X133057000Y-82149740D01*
X132999932Y-81862842D01*
X132887990Y-81592589D01*
X132725475Y-81349368D01*
X132518632Y-81142525D01*
X132344240Y-81026000D01*
X132518632Y-80909475D01*
X132725475Y-80702632D01*
X132887990Y-80459411D01*
X132999932Y-80189158D01*
X133050410Y-79935388D01*
X133137518Y-79961812D01*
X133262000Y-79974072D01*
X133826250Y-79971000D01*
X133985000Y-79812250D01*
X133985000Y-78613000D01*
X132785750Y-78613000D01*
X132657429Y-78741322D01*
X132518632Y-78602525D01*
X132344240Y-78486000D01*
X132518632Y-78369475D01*
X132657429Y-78230679D01*
X132785750Y-78359000D01*
X133985000Y-78359000D01*
X133985000Y-77159750D01*
X133826250Y-77001000D01*
X133262000Y-76997928D01*
X133137518Y-77010188D01*
X133050410Y-77036612D01*
X132999932Y-76782842D01*
X132887990Y-76512589D01*
X132725475Y-76269368D01*
X132518632Y-76062525D01*
X132344240Y-75946000D01*
X132518632Y-75829475D01*
X132725475Y-75622632D01*
X132887990Y-75379411D01*
X132999932Y-75109158D01*
X133057000Y-74822260D01*
X133057000Y-74529740D01*
X132999932Y-74242842D01*
X132887990Y-73972589D01*
X132725475Y-73729368D01*
X132518632Y-73522525D01*
X132344240Y-73406000D01*
X132518632Y-73289475D01*
X132725475Y-73082632D01*
X132887990Y-72839411D01*
X132999932Y-72569158D01*
X133057000Y-72282260D01*
X133057000Y-71989740D01*
X132999932Y-71702842D01*
X132887990Y-71432589D01*
X132725475Y-71189368D01*
X132593620Y-71057513D01*
X132666180Y-71035502D01*
X132776494Y-70976537D01*
X132873185Y-70897185D01*
X132952537Y-70800494D01*
X133011502Y-70690180D01*
X133047812Y-70570482D01*
X133060072Y-70446000D01*
X133060072Y-68986000D01*
X148005617Y-68986000D01*
X147955175Y-69091901D01*
G37*
X147955175Y-69091901D02*
X147910524Y-69239110D01*
X148031845Y-69469000D01*
X149225000Y-69469000D01*
X149225000Y-69449000D01*
X149479000Y-69449000D01*
X149479000Y-69469000D01*
X149499000Y-69469000D01*
X149499000Y-69723000D01*
X149479000Y-69723000D01*
X149479000Y-69743000D01*
X149225000Y-69743000D01*
X149225000Y-69723000D01*
X148031845Y-69723000D01*
X147910524Y-69952890D01*
X147955175Y-70100099D01*
X148080359Y-70362920D01*
X148254412Y-70596269D01*
X148470645Y-70791178D01*
X148587534Y-70860805D01*
X148405368Y-70982525D01*
X148198525Y-71189368D01*
X148036010Y-71432589D01*
X147924068Y-71702842D01*
X147867000Y-71989740D01*
X147867000Y-72282260D01*
X147910790Y-72502408D01*
X145132200Y-75280999D01*
X145015321Y-75280999D01*
X144977998Y-75277323D01*
X144940675Y-75280999D01*
X144940666Y-75280999D01*
X144829013Y-75291996D01*
X144685752Y-75335453D01*
X144553723Y-75406025D01*
X144437998Y-75500998D01*
X144414200Y-75529996D01*
X142638492Y-77305705D01*
X142435411Y-77170010D01*
X142165158Y-77058068D01*
X141878260Y-77001000D01*
X141585740Y-77001000D01*
X141298842Y-77058068D01*
X141028589Y-77170010D01*
X140785368Y-77332525D01*
X140578525Y-77539368D01*
X140462000Y-77713760D01*
X140345475Y-77539368D01*
X140138632Y-77332525D01*
X139895411Y-77170010D01*
X139625158Y-77058068D01*
X139338260Y-77001000D01*
X139045740Y-77001000D01*
X138758842Y-77058068D01*
X138488589Y-77170010D01*
X138245368Y-77332525D01*
X138038525Y-77539368D01*
X137922000Y-77713760D01*
X137805475Y-77539368D01*
X137598632Y-77332525D01*
X137355411Y-77170010D01*
X137085158Y-77058068D01*
X136798260Y-77001000D01*
X136505740Y-77001000D01*
X136218842Y-77058068D01*
X135948589Y-77170010D01*
X135705368Y-77332525D01*
X135573513Y-77464380D01*
X135551502Y-77391820D01*
X135492537Y-77281506D01*
X135413185Y-77184815D01*
X135316494Y-77105463D01*
X135206180Y-77046498D01*
X135086482Y-77010188D01*
X134962000Y-76997928D01*
X134397750Y-77001000D01*
X134239000Y-77159750D01*
X134239000Y-78359000D01*
X134259000Y-78359000D01*
X134259000Y-78613000D01*
X134239000Y-78613000D01*
X134239000Y-79812250D01*
X134397750Y-79971000D01*
X134962000Y-79974072D01*
X135086482Y-79961812D01*
X135206180Y-79925502D01*
X135316494Y-79866537D01*
X135413185Y-79787185D01*
X135492537Y-79690494D01*
X135551502Y-79580180D01*
X135573513Y-79507620D01*
X135705368Y-79639475D01*
X135948589Y-79801990D01*
X136218842Y-79913932D01*
X136505740Y-79971000D01*
X136798260Y-79971000D01*
X137085158Y-79913932D01*
X137355411Y-79801990D01*
X137598632Y-79639475D01*
X137805475Y-79432632D01*
X137922000Y-79258240D01*
X138038525Y-79432632D01*
X138245368Y-79639475D01*
X138488589Y-79801990D01*
X138758842Y-79913932D01*
X139045740Y-79971000D01*
X139338260Y-79971000D01*
X139625158Y-79913932D01*
X139895411Y-79801990D01*
X140138632Y-79639475D01*
X140345475Y-79432632D01*
X140462000Y-79258240D01*
X140578525Y-79432632D01*
X140785368Y-79639475D01*
X141028589Y-79801990D01*
X141298842Y-79913932D01*
X141585740Y-79971000D01*
X141878260Y-79971000D01*
X142098408Y-79927209D01*
X144274001Y-82102803D01*
X144274000Y-88204198D01*
X135469199Y-97009000D01*
X135407061Y-97009000D01*
X135207102Y-97048774D01*
X135018744Y-97126795D01*
X134849226Y-97240063D01*
X134705063Y-97384226D01*
X134591795Y-97553744D01*
X134513774Y-97742102D01*
X134474000Y-97942061D01*
X134474000Y-98145939D01*
X134513774Y-98345898D01*
X134591795Y-98534256D01*
X134705063Y-98703774D01*
X134849226Y-98847937D01*
X135018744Y-98961205D01*
X135207102Y-99039226D01*
X135407061Y-99079000D01*
X135524674Y-99079000D01*
X135583827Y-99221807D01*
X135697095Y-99391325D01*
X135841258Y-99535488D01*
X136010776Y-99648756D01*
X136199134Y-99726777D01*
X136399093Y-99766551D01*
X136602971Y-99766551D01*
X136802930Y-99726777D01*
X136991288Y-99648756D01*
X137160806Y-99535488D01*
X137215756Y-99480538D01*
X137358964Y-99437097D01*
X137490993Y-99366525D01*
X137606718Y-99271552D01*
X137630521Y-99242548D01*
X145703014Y-91170056D01*
X145703013Y-116770185D01*
X144278376Y-118194823D01*
X144263912Y-118188832D01*
X143948033Y-118126000D01*
X143625967Y-118126000D01*
X143310088Y-118188832D01*
X143012537Y-118312082D01*
X142744748Y-118491013D01*
X142517013Y-118718748D01*
X142338082Y-118986537D01*
X142214832Y-119284088D01*
X142152000Y-119599967D01*
X142152000Y-119922033D01*
X142214832Y-120237912D01*
X142338082Y-120535463D01*
X142517013Y-120803252D01*
X142744748Y-121030987D01*
X143012537Y-121209918D01*
X143310088Y-121333168D01*
X143625967Y-121396000D01*
X143948033Y-121396000D01*
X144263912Y-121333168D01*
X144561463Y-121209918D01*
X144829252Y-121030987D01*
X145056987Y-120803252D01*
X145235918Y-120535463D01*
X145359168Y-120237912D01*
X145422000Y-119922033D01*
X145422000Y-119599967D01*
X145359168Y-119284088D01*
X145353177Y-119269624D01*
X146974017Y-117648785D01*
X147003014Y-117624988D01*
X147029345Y-117592904D01*
X147097987Y-117509264D01*
X147168559Y-117377234D01*
X147168559Y-117377233D01*
X147212016Y-117233973D01*
X147223013Y-117122320D01*
X147223013Y-117122310D01*
X147226689Y-117084987D01*
X147223013Y-117047664D01*
X147223013Y-81345103D01*
X147226689Y-81307780D01*
X147223013Y-81270457D01*
X147223013Y-81270447D01*
X147212016Y-81158794D01*
X147168559Y-81015533D01*
X147111869Y-80909475D01*
X147097987Y-80883503D01*
X147026812Y-80796777D01*
X147003014Y-80767779D01*
X146974016Y-80743981D01*
X146207001Y-79976967D01*
X146207001Y-79842753D01*
X146378842Y-79913932D01*
X146665740Y-79971000D01*
X146958260Y-79971000D01*
X147245158Y-79913932D01*
X147515411Y-79801990D01*
X147758632Y-79639475D01*
X147886525Y-79511582D01*
X147867000Y-79609740D01*
X147867000Y-79902260D01*
X147924068Y-80189158D01*
X148036010Y-80459411D01*
X148198525Y-80702632D01*
X148405368Y-80909475D01*
X148579760Y-81026000D01*
X148405368Y-81142525D01*
X148198525Y-81349368D01*
X148036010Y-81592589D01*
X147924068Y-81862842D01*
X147867000Y-82149740D01*
X147867000Y-82442260D01*
X147924068Y-82729158D01*
X148036010Y-82999411D01*
X148198525Y-83242632D01*
X148405368Y-83449475D01*
X148579760Y-83566000D01*
X148405368Y-83682525D01*
X148198525Y-83889368D01*
X148036010Y-84132589D01*
X147924068Y-84402842D01*
X147867000Y-84689740D01*
X147867000Y-84982260D01*
X147924068Y-85269158D01*
X148036010Y-85539411D01*
X148198525Y-85782632D01*
X148405368Y-85989475D01*
X148579760Y-86106000D01*
X148405368Y-86222525D01*
X148198525Y-86429368D01*
X148036010Y-86672589D01*
X147924068Y-86942842D01*
X147867000Y-87229740D01*
X147867000Y-87522260D01*
X147924068Y-87809158D01*
X148036010Y-88079411D01*
X148198525Y-88322632D01*
X148405368Y-88529475D01*
X148579760Y-88646000D01*
X148405368Y-88762525D01*
X148198525Y-88969368D01*
X148036010Y-89212589D01*
X147924068Y-89482842D01*
X147867000Y-89769740D01*
X147867000Y-90062260D01*
X147924068Y-90349158D01*
X148036010Y-90619411D01*
X148198525Y-90862632D01*
X148405368Y-91069475D01*
X148579760Y-91186000D01*
X148405368Y-91302525D01*
X148198525Y-91509368D01*
X148036010Y-91752589D01*
X147924068Y-92022842D01*
X147867000Y-92309740D01*
X147867000Y-92602260D01*
X147924068Y-92889158D01*
X148036010Y-93159411D01*
X148198525Y-93402632D01*
X148405368Y-93609475D01*
X148579760Y-93726000D01*
X148405368Y-93842525D01*
X148198525Y-94049368D01*
X148036010Y-94292589D01*
X147924068Y-94562842D01*
X147867000Y-94849740D01*
X147867000Y-95142260D01*
X147924068Y-95429158D01*
X148036010Y-95699411D01*
X148198525Y-95942632D01*
X148405368Y-96149475D01*
X148579760Y-96266000D01*
X148405368Y-96382525D01*
X148198525Y-96589368D01*
X148036010Y-96832589D01*
X147924068Y-97102842D01*
X147867000Y-97389740D01*
X147867000Y-97682260D01*
X147924068Y-97969158D01*
X148036010Y-98239411D01*
X148198525Y-98482632D01*
X148405368Y-98689475D01*
X148579760Y-98806000D01*
X148405368Y-98922525D01*
X148198525Y-99129368D01*
X148036010Y-99372589D01*
X147924068Y-99642842D01*
X147867000Y-99929740D01*
X147867000Y-100222260D01*
X147924068Y-100509158D01*
X148036010Y-100779411D01*
X148198525Y-101022632D01*
X148405368Y-101229475D01*
X148579760Y-101346000D01*
X148405368Y-101462525D01*
X148198525Y-101669368D01*
X148036010Y-101912589D01*
X147924068Y-102182842D01*
X147867000Y-102469740D01*
X147867000Y-102762260D01*
X147924068Y-103049158D01*
X148036010Y-103319411D01*
X148198525Y-103562632D01*
X148405368Y-103769475D01*
X148579760Y-103886000D01*
X148405368Y-104002525D01*
X148198525Y-104209368D01*
X148036010Y-104452589D01*
X147924068Y-104722842D01*
X147867000Y-105009740D01*
X147867000Y-105302260D01*
X147924068Y-105589158D01*
X148036010Y-105859411D01*
X148198525Y-106102632D01*
X148405368Y-106309475D01*
X148579760Y-106426000D01*
X148405368Y-106542525D01*
X148198525Y-106749368D01*
X148036010Y-106992589D01*
X147924068Y-107262842D01*
X147867000Y-107549740D01*
X147867000Y-107842260D01*
X147924068Y-108129158D01*
X148036010Y-108399411D01*
X148198525Y-108642632D01*
X148405368Y-108849475D01*
X148579760Y-108966000D01*
X148405368Y-109082525D01*
X148198525Y-109289368D01*
X148036010Y-109532589D01*
X147924068Y-109802842D01*
X147867000Y-110089740D01*
X147867000Y-110382260D01*
X147924068Y-110669158D01*
X148036010Y-110939411D01*
X148198525Y-111182632D01*
X148405368Y-111389475D01*
X148579760Y-111506000D01*
X148405368Y-111622525D01*
X148198525Y-111829368D01*
X148036010Y-112072589D01*
X147924068Y-112342842D01*
X147867000Y-112629740D01*
X147867000Y-112922260D01*
X147924068Y-113209158D01*
X148036010Y-113479411D01*
X148198525Y-113722632D01*
X148405368Y-113929475D01*
X148579760Y-114046000D01*
X148405368Y-114162525D01*
X148198525Y-114369368D01*
X148036010Y-114612589D01*
X147924068Y-114882842D01*
X147867000Y-115169740D01*
X147867000Y-115462260D01*
X147924068Y-115749158D01*
X148036010Y-116019411D01*
X148198525Y-116262632D01*
X148405368Y-116469475D01*
X148579760Y-116586000D01*
X148405368Y-116702525D01*
X148198525Y-116909368D01*
X148036010Y-117152589D01*
X147924068Y-117422842D01*
X147867000Y-117709740D01*
X147867000Y-118002260D01*
X147924068Y-118289158D01*
X148036010Y-118559411D01*
X148198525Y-118802632D01*
X148405368Y-119009475D01*
X148579760Y-119126000D01*
X148405368Y-119242525D01*
X148198525Y-119449368D01*
X148036010Y-119692589D01*
X147924068Y-119962842D01*
X147867000Y-120249740D01*
X147867000Y-120542260D01*
X147924068Y-120829158D01*
X148036010Y-121099411D01*
X148198525Y-121342632D01*
X148405368Y-121549475D01*
X148579760Y-121666000D01*
X148405368Y-121782525D01*
X148198525Y-121989368D01*
X148036010Y-122232589D01*
X147924068Y-122502842D01*
X147867000Y-122789740D01*
X147867000Y-123082260D01*
X147924068Y-123369158D01*
X148036010Y-123639411D01*
X148198525Y-123882632D01*
X148330380Y-124014487D01*
X148257820Y-124036498D01*
X148147506Y-124095463D01*
X148050815Y-124174815D01*
X147971463Y-124271506D01*
X147912498Y-124381820D01*
X147876188Y-124501518D01*
X147863928Y-124626000D01*
X147863928Y-126086000D01*
X132926682Y-126086000D01*
X132999932Y-125909158D01*
X133057000Y-125622260D01*
X133057000Y-125396413D01*
X136331192Y-125396413D01*
X136426956Y-125660814D01*
X136716571Y-125801704D01*
X137028108Y-125883384D01*
X137349595Y-125902718D01*
X137668675Y-125858961D01*
X137973088Y-125753795D01*
X138147044Y-125660814D01*
X138242808Y-125396413D01*
X142831192Y-125396413D01*
X142926956Y-125660814D01*
X143216571Y-125801704D01*
X143528108Y-125883384D01*
X143849595Y-125902718D01*
X144168675Y-125858961D01*
X144473088Y-125753795D01*
X144647044Y-125660814D01*
X144742808Y-125396413D01*
X143787000Y-124440605D01*
X142831192Y-125396413D01*
X138242808Y-125396413D01*
X137287000Y-124440605D01*
X136331192Y-125396413D01*
X133057000Y-125396413D01*
X133057000Y-125329740D01*
X132999932Y-125042842D01*
X132887990Y-124772589D01*
X132725475Y-124529368D01*
X132519702Y-124323595D01*
X135645282Y-124323595D01*
X135689039Y-124642675D01*
X135794205Y-124947088D01*
X135887186Y-125121044D01*
X136151587Y-125216808D01*
X137107395Y-124261000D01*
X137466605Y-124261000D01*
X138422413Y-125216808D01*
X138686814Y-125121044D01*
X138827704Y-124831429D01*
X138909384Y-124519892D01*
X138921189Y-124323595D01*
X142145282Y-124323595D01*
X142189039Y-124642675D01*
X142294205Y-124947088D01*
X142387186Y-125121044D01*
X142651587Y-125216808D01*
X143607395Y-124261000D01*
X143966605Y-124261000D01*
X144922413Y-125216808D01*
X145186814Y-125121044D01*
X145327704Y-124831429D01*
X145409384Y-124519892D01*
X145428718Y-124198405D01*
X145384961Y-123879325D01*
X145279795Y-123574912D01*
X145186814Y-123400956D01*
X144922413Y-123305192D01*
X143966605Y-124261000D01*
X143607395Y-124261000D01*
X142651587Y-123305192D01*
X142387186Y-123400956D01*
X142246296Y-123690571D01*
X142164616Y-124002108D01*
X142145282Y-124323595D01*
X138921189Y-124323595D01*
X138928718Y-124198405D01*
X138884961Y-123879325D01*
X138779795Y-123574912D01*
X138686814Y-123400956D01*
X138422413Y-123305192D01*
X137466605Y-124261000D01*
X137107395Y-124261000D01*
X136151587Y-123305192D01*
X135887186Y-123400956D01*
X135746296Y-123690571D01*
X135664616Y-124002108D01*
X135645282Y-124323595D01*
X132519702Y-124323595D01*
X132518632Y-124322525D01*
X132344240Y-124206000D01*
X132518632Y-124089475D01*
X132725475Y-123882632D01*
X132887990Y-123639411D01*
X132999932Y-123369158D01*
X133048381Y-123125587D01*
X136331192Y-123125587D01*
X137287000Y-124081395D01*
X138242808Y-123125587D01*
X142831192Y-123125587D01*
X143787000Y-124081395D01*
X144742808Y-123125587D01*
X144647044Y-122861186D01*
X144357429Y-122720296D01*
X144045892Y-122638616D01*
X143724405Y-122619282D01*
X143405325Y-122663039D01*
X143100912Y-122768205D01*
X142926956Y-122861186D01*
X142831192Y-123125587D01*
X138242808Y-123125587D01*
X138147044Y-122861186D01*
X137857429Y-122720296D01*
X137545892Y-122638616D01*
X137224405Y-122619282D01*
X136905325Y-122663039D01*
X136600912Y-122768205D01*
X136426956Y-122861186D01*
X136331192Y-123125587D01*
X133048381Y-123125587D01*
X133057000Y-123082260D01*
X133057000Y-122789740D01*
X132999932Y-122502842D01*
X132887990Y-122232589D01*
X132725475Y-121989368D01*
X132518632Y-121782525D01*
X132344240Y-121666000D01*
X132518632Y-121549475D01*
X132725475Y-121342632D01*
X132887990Y-121099411D01*
X132999932Y-120829158D01*
X133057000Y-120542260D01*
X133057000Y-120249740D01*
X132999932Y-119962842D01*
X132887990Y-119692589D01*
X132826102Y-119599967D01*
X135652000Y-119599967D01*
X135652000Y-119922033D01*
X135714832Y-120237912D01*
X135838082Y-120535463D01*
X136017013Y-120803252D01*
X136244748Y-121030987D01*
X136512537Y-121209918D01*
X136810088Y-121333168D01*
X137125967Y-121396000D01*
X137448033Y-121396000D01*
X137763912Y-121333168D01*
X138061463Y-121209918D01*
X138329252Y-121030987D01*
X138556987Y-120803252D01*
X138735918Y-120535463D01*
X138859168Y-120237912D01*
X138922000Y-119922033D01*
X138922000Y-119599967D01*
X138859168Y-119284088D01*
X138735918Y-118986537D01*
X138556987Y-118718748D01*
X138329252Y-118491013D01*
X138061463Y-118312082D01*
X137763912Y-118188832D01*
X137448033Y-118126000D01*
X137125967Y-118126000D01*
X136810088Y-118188832D01*
X136512537Y-118312082D01*
X136244748Y-118491013D01*
X136017013Y-118718748D01*
X135838082Y-118986537D01*
X135714832Y-119284088D01*
X135652000Y-119599967D01*
X132826102Y-119599967D01*
X132725475Y-119449368D01*
X132518632Y-119242525D01*
X132344240Y-119126000D01*
X132518632Y-119009475D01*
X132725475Y-118802632D01*
X132887990Y-118559411D01*
X132999932Y-118289158D01*
X133057000Y-118002260D01*
X133057000Y-117709740D01*
X132999932Y-117422842D01*
X132887990Y-117152589D01*
X132725475Y-116909368D01*
X132518632Y-116702525D01*
X132344240Y-116586000D01*
X132518632Y-116469475D01*
X132725475Y-116262632D01*
X132887990Y-116019411D01*
X132999932Y-115749158D01*
X133055846Y-115468061D01*
X141967000Y-115468061D01*
X141967000Y-115671939D01*
X142006774Y-115871898D01*
X142084795Y-116060256D01*
X142198063Y-116229774D01*
X142342226Y-116373937D01*
X142511744Y-116487205D01*
X142700102Y-116565226D01*
X142900061Y-116605000D01*
X143103939Y-116605000D01*
X143303898Y-116565226D01*
X143492256Y-116487205D01*
X143661774Y-116373937D01*
X143805937Y-116229774D01*
X143919205Y-116060256D01*
X143997226Y-115871898D01*
X144037000Y-115671939D01*
X144037000Y-115468061D01*
X143997226Y-115268102D01*
X143919205Y-115079744D01*
X143805937Y-114910226D01*
X143762000Y-114866289D01*
X143762000Y-108899801D01*
X144565802Y-108096000D01*
X144627939Y-108096000D01*
X144827898Y-108056226D01*
X145016256Y-107978205D01*
X145185774Y-107864937D01*
X145329937Y-107720774D01*
X145443205Y-107551256D01*
X145521226Y-107362898D01*
X145561000Y-107162939D01*
X145561000Y-106959061D01*
X145521226Y-106759102D01*
X145443205Y-106570744D01*
X145329937Y-106401226D01*
X145185774Y-106257063D01*
X145016256Y-106143795D01*
X144827898Y-106065774D01*
X144627939Y-106026000D01*
X144424061Y-106026000D01*
X144224102Y-106065774D01*
X144035744Y-106143795D01*
X143866226Y-106257063D01*
X143722063Y-106401226D01*
X143608795Y-106570744D01*
X143530774Y-106759102D01*
X143491000Y-106959061D01*
X143491000Y-107021198D01*
X142491002Y-108021197D01*
X142461999Y-108044999D01*
X142420144Y-108096000D01*
X142367026Y-108160724D01*
X142296455Y-108292753D01*
X142296454Y-108292754D01*
X142252997Y-108436015D01*
X142242000Y-108547668D01*
X142242000Y-108547678D01*
X142238324Y-108585000D01*
X142242000Y-108622323D01*
X142242001Y-114866288D01*
X142198063Y-114910226D01*
X142084795Y-115079744D01*
X142006774Y-115268102D01*
X141967000Y-115468061D01*
X133055846Y-115468061D01*
X133057000Y-115462260D01*
X133057000Y-115169740D01*
X132999932Y-114882842D01*
X132887990Y-114612589D01*
X132725475Y-114369368D01*
X132518632Y-114162525D01*
X132344240Y-114046000D01*
X132518632Y-113929475D01*
X132725475Y-113722632D01*
X132887990Y-113479411D01*
X132999932Y-113209158D01*
X133057000Y-112922260D01*
X133057000Y-112629740D01*
X132999932Y-112342842D01*
X132887990Y-112072589D01*
X132725475Y-111829368D01*
X132518632Y-111622525D01*
X132344240Y-111506000D01*
X132518632Y-111389475D01*
X132725475Y-111182632D01*
X132887990Y-110939411D01*
X132999932Y-110669158D01*
X133057000Y-110382260D01*
X133057000Y-110089740D01*
X132999932Y-109802842D01*
X132887990Y-109532589D01*
X132725475Y-109289368D01*
X132518632Y-109082525D01*
X132344240Y-108966000D01*
X132518632Y-108849475D01*
X132725475Y-108642632D01*
X132887990Y-108399411D01*
X132999932Y-108129158D01*
X133057000Y-107842260D01*
X133057000Y-107549740D01*
X132999932Y-107262842D01*
X132887990Y-106992589D01*
X132725475Y-106749368D01*
X132518632Y-106542525D01*
X132344240Y-106426000D01*
X132518632Y-106309475D01*
X132725475Y-106102632D01*
X132887990Y-105859411D01*
X132999932Y-105589158D01*
X133057000Y-105302260D01*
X133057000Y-105009740D01*
X132999932Y-104722842D01*
X132887990Y-104452589D01*
X132725475Y-104209368D01*
X132518632Y-104002525D01*
X132344240Y-103886000D01*
X132518632Y-103769475D01*
X132725475Y-103562632D01*
X132887990Y-103319411D01*
X132999932Y-103049158D01*
X133057000Y-102762260D01*
X133057000Y-102469740D01*
X132999932Y-102182842D01*
X132887990Y-101912589D01*
X132725475Y-101669368D01*
X132518632Y-101462525D01*
X132344240Y-101346000D01*
X132518632Y-101229475D01*
X132725475Y-101022632D01*
X132887990Y-100779411D01*
X132999932Y-100509158D01*
X133057000Y-100222260D01*
X133057000Y-99929740D01*
X132999932Y-99642842D01*
X132887990Y-99372589D01*
X132725475Y-99129368D01*
X132518632Y-98922525D01*
X132344240Y-98806000D01*
X132518632Y-98689475D01*
X132725475Y-98482632D01*
X132887990Y-98239411D01*
X132999932Y-97969158D01*
X133057000Y-97682260D01*
X133057000Y-97389740D01*
X132999932Y-97102842D01*
X132887990Y-96832589D01*
X132725475Y-96589368D01*
X132518632Y-96382525D01*
X132344240Y-96266000D01*
X132518632Y-96149475D01*
X132725475Y-95942632D01*
X132887990Y-95699411D01*
X132999932Y-95429158D01*
X133057000Y-95142260D01*
X133057000Y-94849740D01*
X132999932Y-94562842D01*
X132887990Y-94292589D01*
X132725475Y-94049368D01*
X132518632Y-93842525D01*
X132344240Y-93726000D01*
X132518632Y-93609475D01*
X132725475Y-93402632D01*
X132887990Y-93159411D01*
X132999932Y-92889158D01*
X133057000Y-92602260D01*
X133057000Y-92309740D01*
X132999932Y-92022842D01*
X132887990Y-91752589D01*
X132725475Y-91509368D01*
X132518632Y-91302525D01*
X132344240Y-91186000D01*
X132518632Y-91069475D01*
X132725475Y-90862632D01*
X132887990Y-90619411D01*
X132999932Y-90349158D01*
X133057000Y-90062260D01*
X133057000Y-89769740D01*
X132999932Y-89482842D01*
X132887990Y-89212589D01*
X132725475Y-88969368D01*
X132518632Y-88762525D01*
X132344240Y-88646000D01*
X132518632Y-88529475D01*
X132725475Y-88322632D01*
X132887990Y-88079411D01*
X132999932Y-87809158D01*
X133057000Y-87522260D01*
X133057000Y-87229740D01*
X132999932Y-86942842D01*
X132887990Y-86672589D01*
X132725475Y-86429368D01*
X132518632Y-86222525D01*
X132344240Y-86106000D01*
X132518632Y-85989475D01*
X132725475Y-85782632D01*
X132887990Y-85539411D01*
X132999932Y-85269158D01*
X133057000Y-84982260D01*
X133057000Y-84689740D01*
X132999932Y-84402842D01*
X132887990Y-84132589D01*
X132725475Y-83889368D01*
X132518632Y-83682525D01*
X132344240Y-83566000D01*
X132518632Y-83449475D01*
X132725475Y-83242632D01*
X132887990Y-82999411D01*
X132999932Y-82729158D01*
X133057000Y-82442260D01*
X133057000Y-82149740D01*
X132999932Y-81862842D01*
X132887990Y-81592589D01*
X132725475Y-81349368D01*
X132518632Y-81142525D01*
X132344240Y-81026000D01*
X132518632Y-80909475D01*
X132725475Y-80702632D01*
X132887990Y-80459411D01*
X132999932Y-80189158D01*
X133050410Y-79935388D01*
X133137518Y-79961812D01*
X133262000Y-79974072D01*
X133826250Y-79971000D01*
X133985000Y-79812250D01*
X133985000Y-78613000D01*
X132785750Y-78613000D01*
X132657429Y-78741322D01*
X132518632Y-78602525D01*
X132344240Y-78486000D01*
X132518632Y-78369475D01*
X132657429Y-78230679D01*
X132785750Y-78359000D01*
X133985000Y-78359000D01*
X133985000Y-77159750D01*
X133826250Y-77001000D01*
X133262000Y-76997928D01*
X133137518Y-77010188D01*
X133050410Y-77036612D01*
X132999932Y-76782842D01*
X132887990Y-76512589D01*
X132725475Y-76269368D01*
X132518632Y-76062525D01*
X132344240Y-75946000D01*
X132518632Y-75829475D01*
X132725475Y-75622632D01*
X132887990Y-75379411D01*
X132999932Y-75109158D01*
X133057000Y-74822260D01*
X133057000Y-74529740D01*
X132999932Y-74242842D01*
X132887990Y-73972589D01*
X132725475Y-73729368D01*
X132518632Y-73522525D01*
X132344240Y-73406000D01*
X132518632Y-73289475D01*
X132725475Y-73082632D01*
X132887990Y-72839411D01*
X132999932Y-72569158D01*
X133057000Y-72282260D01*
X133057000Y-71989740D01*
X132999932Y-71702842D01*
X132887990Y-71432589D01*
X132725475Y-71189368D01*
X132593620Y-71057513D01*
X132666180Y-71035502D01*
X132776494Y-70976537D01*
X132873185Y-70897185D01*
X132952537Y-70800494D01*
X133011502Y-70690180D01*
X133047812Y-70570482D01*
X133060072Y-70446000D01*
X133060072Y-68986000D01*
X148005617Y-68986000D01*
X147955175Y-69091901D01*
%TD*%
M02*
