%TF.GenerationSoftware,KiCad,Pcbnew,5.1.6-c6e7f7d~87~ubuntu18.04.1*%
%TF.CreationDate,2020-09-17T09:17:57+10:00*%
%TF.ProjectId,MSPY-FR2355,4d535059-2d46-4523-9233-35352e6b6963,rev?*%
%TF.SameCoordinates,Original*%
%TF.FileFunction,Legend,Bot*%
%TF.FilePolarity,Positive*%
%FSLAX46Y46*%
G04 Gerber Fmt 4.6, Leading zero omitted, Abs format (unit mm)*
G04 Created by KiCad (PCBNEW 5.1.6-c6e7f7d~87~ubuntu18.04.1) date 2020-09-17 09:17:57*
%MOMM*%
%LPD*%
G01*
G04 APERTURE LIST*
%ADD10C,0.150000*%
%ADD11C,0.120000*%
G04 APERTURE END LIST*
D10*
X137612380Y-100505428D02*
X136612380Y-100505428D01*
X137326666Y-100838761D01*
X136612380Y-101172095D01*
X137612380Y-101172095D01*
X137564761Y-101600666D02*
X137612380Y-101743523D01*
X137612380Y-101981619D01*
X137564761Y-102076857D01*
X137517142Y-102124476D01*
X137421904Y-102172095D01*
X137326666Y-102172095D01*
X137231428Y-102124476D01*
X137183809Y-102076857D01*
X137136190Y-101981619D01*
X137088571Y-101791142D01*
X137040952Y-101695904D01*
X136993333Y-101648285D01*
X136898095Y-101600666D01*
X136802857Y-101600666D01*
X136707619Y-101648285D01*
X136660000Y-101695904D01*
X136612380Y-101791142D01*
X136612380Y-102029238D01*
X136660000Y-102172095D01*
X137612380Y-102600666D02*
X136612380Y-102600666D01*
X136612380Y-102981619D01*
X136660000Y-103076857D01*
X136707619Y-103124476D01*
X136802857Y-103172095D01*
X136945714Y-103172095D01*
X137040952Y-103124476D01*
X137088571Y-103076857D01*
X137136190Y-102981619D01*
X137136190Y-102600666D01*
X137136190Y-103791142D02*
X137612380Y-103791142D01*
X136612380Y-103457809D02*
X137136190Y-103791142D01*
X136612380Y-104124476D01*
X137231428Y-104457809D02*
X137231428Y-105219714D01*
X137088571Y-106029238D02*
X137088571Y-105695904D01*
X137612380Y-105695904D02*
X136612380Y-105695904D01*
X136612380Y-106172095D01*
X137612380Y-107124476D02*
X137136190Y-106791142D01*
X137612380Y-106553047D02*
X136612380Y-106553047D01*
X136612380Y-106934000D01*
X136660000Y-107029238D01*
X136707619Y-107076857D01*
X136802857Y-107124476D01*
X136945714Y-107124476D01*
X137040952Y-107076857D01*
X137088571Y-107029238D01*
X137136190Y-106934000D01*
X137136190Y-106553047D01*
X136707619Y-107505428D02*
X136660000Y-107553047D01*
X136612380Y-107648285D01*
X136612380Y-107886380D01*
X136660000Y-107981619D01*
X136707619Y-108029238D01*
X136802857Y-108076857D01*
X136898095Y-108076857D01*
X137040952Y-108029238D01*
X137612380Y-107457809D01*
X137612380Y-108076857D01*
X136612380Y-108410190D02*
X136612380Y-109029238D01*
X136993333Y-108695904D01*
X136993333Y-108838761D01*
X137040952Y-108934000D01*
X137088571Y-108981619D01*
X137183809Y-109029238D01*
X137421904Y-109029238D01*
X137517142Y-108981619D01*
X137564761Y-108934000D01*
X137612380Y-108838761D01*
X137612380Y-108553047D01*
X137564761Y-108457809D01*
X137517142Y-108410190D01*
X136612380Y-109934000D02*
X136612380Y-109457809D01*
X137088571Y-109410190D01*
X137040952Y-109457809D01*
X136993333Y-109553047D01*
X136993333Y-109791142D01*
X137040952Y-109886380D01*
X137088571Y-109934000D01*
X137183809Y-109981619D01*
X137421904Y-109981619D01*
X137517142Y-109934000D01*
X137564761Y-109886380D01*
X137612380Y-109791142D01*
X137612380Y-109553047D01*
X137564761Y-109457809D01*
X137517142Y-109410190D01*
X136612380Y-110886380D02*
X136612380Y-110410190D01*
X137088571Y-110362571D01*
X137040952Y-110410190D01*
X136993333Y-110505428D01*
X136993333Y-110743523D01*
X137040952Y-110838761D01*
X137088571Y-110886380D01*
X137183809Y-110934000D01*
X137421904Y-110934000D01*
X137517142Y-110886380D01*
X137564761Y-110838761D01*
X137612380Y-110743523D01*
X137612380Y-110505428D01*
X137564761Y-110410190D01*
X137517142Y-110362571D01*
X136945714Y-112029238D02*
X137612380Y-112267333D01*
X136945714Y-112505428D01*
X137612380Y-113410190D02*
X137612380Y-112838761D01*
X137612380Y-113124476D02*
X136612380Y-113124476D01*
X136755238Y-113029238D01*
X136850476Y-112934000D01*
X136898095Y-112838761D01*
X135167714Y-100354761D02*
X135834380Y-100545238D01*
X135358190Y-100735714D01*
X135834380Y-100926190D01*
X135167714Y-101116666D01*
X135167714Y-101402380D02*
X135834380Y-101592857D01*
X135358190Y-101783333D01*
X135834380Y-101973809D01*
X135167714Y-102164285D01*
X135167714Y-102450000D02*
X135834380Y-102640476D01*
X135358190Y-102830952D01*
X135834380Y-103021428D01*
X135167714Y-103211904D01*
X135739142Y-103592857D02*
X135786761Y-103640476D01*
X135834380Y-103592857D01*
X135786761Y-103545238D01*
X135739142Y-103592857D01*
X135834380Y-103592857D01*
X135834380Y-104069047D02*
X134834380Y-104069047D01*
X135215333Y-104069047D02*
X135167714Y-104164285D01*
X135167714Y-104354761D01*
X135215333Y-104450000D01*
X135262952Y-104497619D01*
X135358190Y-104545238D01*
X135643904Y-104545238D01*
X135739142Y-104497619D01*
X135786761Y-104450000D01*
X135834380Y-104354761D01*
X135834380Y-104164285D01*
X135786761Y-104069047D01*
X135834380Y-104973809D02*
X135167714Y-104973809D01*
X134834380Y-104973809D02*
X134882000Y-104926190D01*
X134929619Y-104973809D01*
X134882000Y-105021428D01*
X134834380Y-104973809D01*
X134929619Y-104973809D01*
X135834380Y-105450000D02*
X135167714Y-105450000D01*
X135358190Y-105450000D02*
X135262952Y-105497619D01*
X135215333Y-105545238D01*
X135167714Y-105640476D01*
X135167714Y-105735714D01*
X135786761Y-106497619D02*
X135834380Y-106402380D01*
X135834380Y-106211904D01*
X135786761Y-106116666D01*
X135739142Y-106069047D01*
X135643904Y-106021428D01*
X135358190Y-106021428D01*
X135262952Y-106069047D01*
X135215333Y-106116666D01*
X135167714Y-106211904D01*
X135167714Y-106402380D01*
X135215333Y-106497619D01*
X135834380Y-106926190D02*
X134834380Y-106926190D01*
X135834380Y-107354761D02*
X135310571Y-107354761D01*
X135215333Y-107307142D01*
X135167714Y-107211904D01*
X135167714Y-107069047D01*
X135215333Y-106973809D01*
X135262952Y-106926190D01*
X135834380Y-108259523D02*
X135310571Y-108259523D01*
X135215333Y-108211904D01*
X135167714Y-108116666D01*
X135167714Y-107926190D01*
X135215333Y-107830952D01*
X135786761Y-108259523D02*
X135834380Y-108164285D01*
X135834380Y-107926190D01*
X135786761Y-107830952D01*
X135691523Y-107783333D01*
X135596285Y-107783333D01*
X135501047Y-107830952D01*
X135453428Y-107926190D01*
X135453428Y-108164285D01*
X135405809Y-108259523D01*
X135167714Y-108640476D02*
X135834380Y-108878571D01*
X135167714Y-109116666D01*
X135786761Y-109878571D02*
X135834380Y-109783333D01*
X135834380Y-109592857D01*
X135786761Y-109497619D01*
X135691523Y-109450000D01*
X135310571Y-109450000D01*
X135215333Y-109497619D01*
X135167714Y-109592857D01*
X135167714Y-109783333D01*
X135215333Y-109878571D01*
X135310571Y-109926190D01*
X135405809Y-109926190D01*
X135501047Y-109450000D01*
X135167714Y-110354761D02*
X135834380Y-110354761D01*
X135262952Y-110354761D02*
X135215333Y-110402380D01*
X135167714Y-110497619D01*
X135167714Y-110640476D01*
X135215333Y-110735714D01*
X135310571Y-110783333D01*
X135834380Y-110783333D01*
X135167714Y-111688095D02*
X135834380Y-111688095D01*
X135167714Y-111259523D02*
X135691523Y-111259523D01*
X135786761Y-111307142D01*
X135834380Y-111402380D01*
X135834380Y-111545238D01*
X135786761Y-111640476D01*
X135739142Y-111688095D01*
X135786761Y-112545238D02*
X135834380Y-112450000D01*
X135834380Y-112259523D01*
X135786761Y-112164285D01*
X135691523Y-112116666D01*
X135310571Y-112116666D01*
X135215333Y-112164285D01*
X135167714Y-112259523D01*
X135167714Y-112450000D01*
X135215333Y-112545238D01*
X135310571Y-112592857D01*
X135405809Y-112592857D01*
X135501047Y-112116666D01*
X135739142Y-113021428D02*
X135786761Y-113069047D01*
X135834380Y-113021428D01*
X135786761Y-112973809D01*
X135739142Y-113021428D01*
X135834380Y-113021428D01*
X135834380Y-113640476D02*
X135786761Y-113545238D01*
X135739142Y-113497619D01*
X135643904Y-113450000D01*
X135358190Y-113450000D01*
X135262952Y-113497619D01*
X135215333Y-113545238D01*
X135167714Y-113640476D01*
X135167714Y-113783333D01*
X135215333Y-113878571D01*
X135262952Y-113926190D01*
X135358190Y-113973809D01*
X135643904Y-113973809D01*
X135739142Y-113926190D01*
X135786761Y-113878571D01*
X135834380Y-113783333D01*
X135834380Y-113640476D01*
X135834380Y-114402380D02*
X135167714Y-114402380D01*
X135358190Y-114402380D02*
X135262952Y-114450000D01*
X135215333Y-114497619D01*
X135167714Y-114592857D01*
X135167714Y-114688095D01*
X135167714Y-115450000D02*
X135977238Y-115450000D01*
X136072476Y-115402380D01*
X136120095Y-115354761D01*
X136167714Y-115259523D01*
X136167714Y-115116666D01*
X136120095Y-115021428D01*
X135786761Y-115450000D02*
X135834380Y-115354761D01*
X135834380Y-115164285D01*
X135786761Y-115069047D01*
X135739142Y-115021428D01*
X135643904Y-114973809D01*
X135358190Y-114973809D01*
X135262952Y-115021428D01*
X135215333Y-115069047D01*
X135167714Y-115164285D01*
X135167714Y-115354761D01*
X135215333Y-115450000D01*
D11*
%TO.C,J2*%
X148022000Y-126806000D02*
X149352000Y-126806000D01*
X148022000Y-125476000D02*
X148022000Y-126806000D01*
X148022000Y-124206000D02*
X150682000Y-124206000D01*
X150682000Y-124206000D02*
X150682000Y-68266000D01*
X148022000Y-124206000D02*
X148022000Y-68266000D01*
X148022000Y-68266000D02*
X150682000Y-68266000D01*
%TO.C,J1*%
X132902000Y-68266000D02*
X131572000Y-68266000D01*
X132902000Y-69596000D02*
X132902000Y-68266000D01*
X132902000Y-70866000D02*
X130242000Y-70866000D01*
X130242000Y-70866000D02*
X130242000Y-126806000D01*
X132902000Y-70866000D02*
X132902000Y-126806000D01*
X132902000Y-126806000D02*
X130242000Y-126806000D01*
%TD*%
M02*
