%TF.GenerationSoftware,KiCad,Pcbnew,5.1.6-c6e7f7d~87~ubuntu18.04.1*%
%TF.CreationDate,2020-09-17T09:17:57+10:00*%
%TF.ProjectId,MSPY-FR2355,4d535059-2d46-4523-9233-35352e6b6963,rev?*%
%TF.SameCoordinates,Original*%
%TF.FileFunction,Paste,Top*%
%TF.FilePolarity,Positive*%
%FSLAX46Y46*%
G04 Gerber Fmt 4.6, Leading zero omitted, Abs format (unit mm)*
G04 Created by KiCad (PCBNEW 5.1.6-c6e7f7d~87~ubuntu18.04.1) date 2020-09-17 09:17:57*
%MOMM*%
%LPD*%
G01*
G04 APERTURE LIST*
%ADD10R,1.300000X1.600000*%
G04 APERTURE END LIST*
D10*
%TO.C,Y1*%
X139938000Y-83440000D03*
X139938000Y-86740000D03*
X137938000Y-86740000D03*
X137938000Y-83440000D03*
%TD*%
%TO.C,U1*%
G36*
G01*
X143962000Y-90826000D02*
X145287000Y-90826000D01*
G75*
G02*
X145362000Y-90901000I0J-75000D01*
G01*
X145362000Y-91051000D01*
G75*
G02*
X145287000Y-91126000I-75000J0D01*
G01*
X143962000Y-91126000D01*
G75*
G02*
X143887000Y-91051000I0J75000D01*
G01*
X143887000Y-90901000D01*
G75*
G02*
X143962000Y-90826000I75000J0D01*
G01*
G37*
G36*
G01*
X143962000Y-91326000D02*
X145287000Y-91326000D01*
G75*
G02*
X145362000Y-91401000I0J-75000D01*
G01*
X145362000Y-91551000D01*
G75*
G02*
X145287000Y-91626000I-75000J0D01*
G01*
X143962000Y-91626000D01*
G75*
G02*
X143887000Y-91551000I0J75000D01*
G01*
X143887000Y-91401000D01*
G75*
G02*
X143962000Y-91326000I75000J0D01*
G01*
G37*
G36*
G01*
X143962000Y-91826000D02*
X145287000Y-91826000D01*
G75*
G02*
X145362000Y-91901000I0J-75000D01*
G01*
X145362000Y-92051000D01*
G75*
G02*
X145287000Y-92126000I-75000J0D01*
G01*
X143962000Y-92126000D01*
G75*
G02*
X143887000Y-92051000I0J75000D01*
G01*
X143887000Y-91901000D01*
G75*
G02*
X143962000Y-91826000I75000J0D01*
G01*
G37*
G36*
G01*
X143962000Y-92326000D02*
X145287000Y-92326000D01*
G75*
G02*
X145362000Y-92401000I0J-75000D01*
G01*
X145362000Y-92551000D01*
G75*
G02*
X145287000Y-92626000I-75000J0D01*
G01*
X143962000Y-92626000D01*
G75*
G02*
X143887000Y-92551000I0J75000D01*
G01*
X143887000Y-92401000D01*
G75*
G02*
X143962000Y-92326000I75000J0D01*
G01*
G37*
G36*
G01*
X143962000Y-92826000D02*
X145287000Y-92826000D01*
G75*
G02*
X145362000Y-92901000I0J-75000D01*
G01*
X145362000Y-93051000D01*
G75*
G02*
X145287000Y-93126000I-75000J0D01*
G01*
X143962000Y-93126000D01*
G75*
G02*
X143887000Y-93051000I0J75000D01*
G01*
X143887000Y-92901000D01*
G75*
G02*
X143962000Y-92826000I75000J0D01*
G01*
G37*
G36*
G01*
X143962000Y-93326000D02*
X145287000Y-93326000D01*
G75*
G02*
X145362000Y-93401000I0J-75000D01*
G01*
X145362000Y-93551000D01*
G75*
G02*
X145287000Y-93626000I-75000J0D01*
G01*
X143962000Y-93626000D01*
G75*
G02*
X143887000Y-93551000I0J75000D01*
G01*
X143887000Y-93401000D01*
G75*
G02*
X143962000Y-93326000I75000J0D01*
G01*
G37*
G36*
G01*
X143962000Y-93826000D02*
X145287000Y-93826000D01*
G75*
G02*
X145362000Y-93901000I0J-75000D01*
G01*
X145362000Y-94051000D01*
G75*
G02*
X145287000Y-94126000I-75000J0D01*
G01*
X143962000Y-94126000D01*
G75*
G02*
X143887000Y-94051000I0J75000D01*
G01*
X143887000Y-93901000D01*
G75*
G02*
X143962000Y-93826000I75000J0D01*
G01*
G37*
G36*
G01*
X143962000Y-94326000D02*
X145287000Y-94326000D01*
G75*
G02*
X145362000Y-94401000I0J-75000D01*
G01*
X145362000Y-94551000D01*
G75*
G02*
X145287000Y-94626000I-75000J0D01*
G01*
X143962000Y-94626000D01*
G75*
G02*
X143887000Y-94551000I0J75000D01*
G01*
X143887000Y-94401000D01*
G75*
G02*
X143962000Y-94326000I75000J0D01*
G01*
G37*
G36*
G01*
X143962000Y-94826000D02*
X145287000Y-94826000D01*
G75*
G02*
X145362000Y-94901000I0J-75000D01*
G01*
X145362000Y-95051000D01*
G75*
G02*
X145287000Y-95126000I-75000J0D01*
G01*
X143962000Y-95126000D01*
G75*
G02*
X143887000Y-95051000I0J75000D01*
G01*
X143887000Y-94901000D01*
G75*
G02*
X143962000Y-94826000I75000J0D01*
G01*
G37*
G36*
G01*
X143962000Y-95326000D02*
X145287000Y-95326000D01*
G75*
G02*
X145362000Y-95401000I0J-75000D01*
G01*
X145362000Y-95551000D01*
G75*
G02*
X145287000Y-95626000I-75000J0D01*
G01*
X143962000Y-95626000D01*
G75*
G02*
X143887000Y-95551000I0J75000D01*
G01*
X143887000Y-95401000D01*
G75*
G02*
X143962000Y-95326000I75000J0D01*
G01*
G37*
G36*
G01*
X143962000Y-95826000D02*
X145287000Y-95826000D01*
G75*
G02*
X145362000Y-95901000I0J-75000D01*
G01*
X145362000Y-96051000D01*
G75*
G02*
X145287000Y-96126000I-75000J0D01*
G01*
X143962000Y-96126000D01*
G75*
G02*
X143887000Y-96051000I0J75000D01*
G01*
X143887000Y-95901000D01*
G75*
G02*
X143962000Y-95826000I75000J0D01*
G01*
G37*
G36*
G01*
X143962000Y-96326000D02*
X145287000Y-96326000D01*
G75*
G02*
X145362000Y-96401000I0J-75000D01*
G01*
X145362000Y-96551000D01*
G75*
G02*
X145287000Y-96626000I-75000J0D01*
G01*
X143962000Y-96626000D01*
G75*
G02*
X143887000Y-96551000I0J75000D01*
G01*
X143887000Y-96401000D01*
G75*
G02*
X143962000Y-96326000I75000J0D01*
G01*
G37*
G36*
G01*
X143137000Y-97151000D02*
X143287000Y-97151000D01*
G75*
G02*
X143362000Y-97226000I0J-75000D01*
G01*
X143362000Y-98551000D01*
G75*
G02*
X143287000Y-98626000I-75000J0D01*
G01*
X143137000Y-98626000D01*
G75*
G02*
X143062000Y-98551000I0J75000D01*
G01*
X143062000Y-97226000D01*
G75*
G02*
X143137000Y-97151000I75000J0D01*
G01*
G37*
G36*
G01*
X142637000Y-97151000D02*
X142787000Y-97151000D01*
G75*
G02*
X142862000Y-97226000I0J-75000D01*
G01*
X142862000Y-98551000D01*
G75*
G02*
X142787000Y-98626000I-75000J0D01*
G01*
X142637000Y-98626000D01*
G75*
G02*
X142562000Y-98551000I0J75000D01*
G01*
X142562000Y-97226000D01*
G75*
G02*
X142637000Y-97151000I75000J0D01*
G01*
G37*
G36*
G01*
X142137000Y-97151000D02*
X142287000Y-97151000D01*
G75*
G02*
X142362000Y-97226000I0J-75000D01*
G01*
X142362000Y-98551000D01*
G75*
G02*
X142287000Y-98626000I-75000J0D01*
G01*
X142137000Y-98626000D01*
G75*
G02*
X142062000Y-98551000I0J75000D01*
G01*
X142062000Y-97226000D01*
G75*
G02*
X142137000Y-97151000I75000J0D01*
G01*
G37*
G36*
G01*
X141637000Y-97151000D02*
X141787000Y-97151000D01*
G75*
G02*
X141862000Y-97226000I0J-75000D01*
G01*
X141862000Y-98551000D01*
G75*
G02*
X141787000Y-98626000I-75000J0D01*
G01*
X141637000Y-98626000D01*
G75*
G02*
X141562000Y-98551000I0J75000D01*
G01*
X141562000Y-97226000D01*
G75*
G02*
X141637000Y-97151000I75000J0D01*
G01*
G37*
G36*
G01*
X141137000Y-97151000D02*
X141287000Y-97151000D01*
G75*
G02*
X141362000Y-97226000I0J-75000D01*
G01*
X141362000Y-98551000D01*
G75*
G02*
X141287000Y-98626000I-75000J0D01*
G01*
X141137000Y-98626000D01*
G75*
G02*
X141062000Y-98551000I0J75000D01*
G01*
X141062000Y-97226000D01*
G75*
G02*
X141137000Y-97151000I75000J0D01*
G01*
G37*
G36*
G01*
X140637000Y-97151000D02*
X140787000Y-97151000D01*
G75*
G02*
X140862000Y-97226000I0J-75000D01*
G01*
X140862000Y-98551000D01*
G75*
G02*
X140787000Y-98626000I-75000J0D01*
G01*
X140637000Y-98626000D01*
G75*
G02*
X140562000Y-98551000I0J75000D01*
G01*
X140562000Y-97226000D01*
G75*
G02*
X140637000Y-97151000I75000J0D01*
G01*
G37*
G36*
G01*
X140137000Y-97151000D02*
X140287000Y-97151000D01*
G75*
G02*
X140362000Y-97226000I0J-75000D01*
G01*
X140362000Y-98551000D01*
G75*
G02*
X140287000Y-98626000I-75000J0D01*
G01*
X140137000Y-98626000D01*
G75*
G02*
X140062000Y-98551000I0J75000D01*
G01*
X140062000Y-97226000D01*
G75*
G02*
X140137000Y-97151000I75000J0D01*
G01*
G37*
G36*
G01*
X139637000Y-97151000D02*
X139787000Y-97151000D01*
G75*
G02*
X139862000Y-97226000I0J-75000D01*
G01*
X139862000Y-98551000D01*
G75*
G02*
X139787000Y-98626000I-75000J0D01*
G01*
X139637000Y-98626000D01*
G75*
G02*
X139562000Y-98551000I0J75000D01*
G01*
X139562000Y-97226000D01*
G75*
G02*
X139637000Y-97151000I75000J0D01*
G01*
G37*
G36*
G01*
X139137000Y-97151000D02*
X139287000Y-97151000D01*
G75*
G02*
X139362000Y-97226000I0J-75000D01*
G01*
X139362000Y-98551000D01*
G75*
G02*
X139287000Y-98626000I-75000J0D01*
G01*
X139137000Y-98626000D01*
G75*
G02*
X139062000Y-98551000I0J75000D01*
G01*
X139062000Y-97226000D01*
G75*
G02*
X139137000Y-97151000I75000J0D01*
G01*
G37*
G36*
G01*
X138637000Y-97151000D02*
X138787000Y-97151000D01*
G75*
G02*
X138862000Y-97226000I0J-75000D01*
G01*
X138862000Y-98551000D01*
G75*
G02*
X138787000Y-98626000I-75000J0D01*
G01*
X138637000Y-98626000D01*
G75*
G02*
X138562000Y-98551000I0J75000D01*
G01*
X138562000Y-97226000D01*
G75*
G02*
X138637000Y-97151000I75000J0D01*
G01*
G37*
G36*
G01*
X138137000Y-97151000D02*
X138287000Y-97151000D01*
G75*
G02*
X138362000Y-97226000I0J-75000D01*
G01*
X138362000Y-98551000D01*
G75*
G02*
X138287000Y-98626000I-75000J0D01*
G01*
X138137000Y-98626000D01*
G75*
G02*
X138062000Y-98551000I0J75000D01*
G01*
X138062000Y-97226000D01*
G75*
G02*
X138137000Y-97151000I75000J0D01*
G01*
G37*
G36*
G01*
X137637000Y-97151000D02*
X137787000Y-97151000D01*
G75*
G02*
X137862000Y-97226000I0J-75000D01*
G01*
X137862000Y-98551000D01*
G75*
G02*
X137787000Y-98626000I-75000J0D01*
G01*
X137637000Y-98626000D01*
G75*
G02*
X137562000Y-98551000I0J75000D01*
G01*
X137562000Y-97226000D01*
G75*
G02*
X137637000Y-97151000I75000J0D01*
G01*
G37*
G36*
G01*
X135637000Y-96326000D02*
X136962000Y-96326000D01*
G75*
G02*
X137037000Y-96401000I0J-75000D01*
G01*
X137037000Y-96551000D01*
G75*
G02*
X136962000Y-96626000I-75000J0D01*
G01*
X135637000Y-96626000D01*
G75*
G02*
X135562000Y-96551000I0J75000D01*
G01*
X135562000Y-96401000D01*
G75*
G02*
X135637000Y-96326000I75000J0D01*
G01*
G37*
G36*
G01*
X135637000Y-95826000D02*
X136962000Y-95826000D01*
G75*
G02*
X137037000Y-95901000I0J-75000D01*
G01*
X137037000Y-96051000D01*
G75*
G02*
X136962000Y-96126000I-75000J0D01*
G01*
X135637000Y-96126000D01*
G75*
G02*
X135562000Y-96051000I0J75000D01*
G01*
X135562000Y-95901000D01*
G75*
G02*
X135637000Y-95826000I75000J0D01*
G01*
G37*
G36*
G01*
X135637000Y-95326000D02*
X136962000Y-95326000D01*
G75*
G02*
X137037000Y-95401000I0J-75000D01*
G01*
X137037000Y-95551000D01*
G75*
G02*
X136962000Y-95626000I-75000J0D01*
G01*
X135637000Y-95626000D01*
G75*
G02*
X135562000Y-95551000I0J75000D01*
G01*
X135562000Y-95401000D01*
G75*
G02*
X135637000Y-95326000I75000J0D01*
G01*
G37*
G36*
G01*
X135637000Y-94826000D02*
X136962000Y-94826000D01*
G75*
G02*
X137037000Y-94901000I0J-75000D01*
G01*
X137037000Y-95051000D01*
G75*
G02*
X136962000Y-95126000I-75000J0D01*
G01*
X135637000Y-95126000D01*
G75*
G02*
X135562000Y-95051000I0J75000D01*
G01*
X135562000Y-94901000D01*
G75*
G02*
X135637000Y-94826000I75000J0D01*
G01*
G37*
G36*
G01*
X135637000Y-94326000D02*
X136962000Y-94326000D01*
G75*
G02*
X137037000Y-94401000I0J-75000D01*
G01*
X137037000Y-94551000D01*
G75*
G02*
X136962000Y-94626000I-75000J0D01*
G01*
X135637000Y-94626000D01*
G75*
G02*
X135562000Y-94551000I0J75000D01*
G01*
X135562000Y-94401000D01*
G75*
G02*
X135637000Y-94326000I75000J0D01*
G01*
G37*
G36*
G01*
X135637000Y-93826000D02*
X136962000Y-93826000D01*
G75*
G02*
X137037000Y-93901000I0J-75000D01*
G01*
X137037000Y-94051000D01*
G75*
G02*
X136962000Y-94126000I-75000J0D01*
G01*
X135637000Y-94126000D01*
G75*
G02*
X135562000Y-94051000I0J75000D01*
G01*
X135562000Y-93901000D01*
G75*
G02*
X135637000Y-93826000I75000J0D01*
G01*
G37*
G36*
G01*
X135637000Y-93326000D02*
X136962000Y-93326000D01*
G75*
G02*
X137037000Y-93401000I0J-75000D01*
G01*
X137037000Y-93551000D01*
G75*
G02*
X136962000Y-93626000I-75000J0D01*
G01*
X135637000Y-93626000D01*
G75*
G02*
X135562000Y-93551000I0J75000D01*
G01*
X135562000Y-93401000D01*
G75*
G02*
X135637000Y-93326000I75000J0D01*
G01*
G37*
G36*
G01*
X135637000Y-92826000D02*
X136962000Y-92826000D01*
G75*
G02*
X137037000Y-92901000I0J-75000D01*
G01*
X137037000Y-93051000D01*
G75*
G02*
X136962000Y-93126000I-75000J0D01*
G01*
X135637000Y-93126000D01*
G75*
G02*
X135562000Y-93051000I0J75000D01*
G01*
X135562000Y-92901000D01*
G75*
G02*
X135637000Y-92826000I75000J0D01*
G01*
G37*
G36*
G01*
X135637000Y-92326000D02*
X136962000Y-92326000D01*
G75*
G02*
X137037000Y-92401000I0J-75000D01*
G01*
X137037000Y-92551000D01*
G75*
G02*
X136962000Y-92626000I-75000J0D01*
G01*
X135637000Y-92626000D01*
G75*
G02*
X135562000Y-92551000I0J75000D01*
G01*
X135562000Y-92401000D01*
G75*
G02*
X135637000Y-92326000I75000J0D01*
G01*
G37*
G36*
G01*
X135637000Y-91826000D02*
X136962000Y-91826000D01*
G75*
G02*
X137037000Y-91901000I0J-75000D01*
G01*
X137037000Y-92051000D01*
G75*
G02*
X136962000Y-92126000I-75000J0D01*
G01*
X135637000Y-92126000D01*
G75*
G02*
X135562000Y-92051000I0J75000D01*
G01*
X135562000Y-91901000D01*
G75*
G02*
X135637000Y-91826000I75000J0D01*
G01*
G37*
G36*
G01*
X135637000Y-91326000D02*
X136962000Y-91326000D01*
G75*
G02*
X137037000Y-91401000I0J-75000D01*
G01*
X137037000Y-91551000D01*
G75*
G02*
X136962000Y-91626000I-75000J0D01*
G01*
X135637000Y-91626000D01*
G75*
G02*
X135562000Y-91551000I0J75000D01*
G01*
X135562000Y-91401000D01*
G75*
G02*
X135637000Y-91326000I75000J0D01*
G01*
G37*
G36*
G01*
X135637000Y-90826000D02*
X136962000Y-90826000D01*
G75*
G02*
X137037000Y-90901000I0J-75000D01*
G01*
X137037000Y-91051000D01*
G75*
G02*
X136962000Y-91126000I-75000J0D01*
G01*
X135637000Y-91126000D01*
G75*
G02*
X135562000Y-91051000I0J75000D01*
G01*
X135562000Y-90901000D01*
G75*
G02*
X135637000Y-90826000I75000J0D01*
G01*
G37*
G36*
G01*
X137637000Y-88826000D02*
X137787000Y-88826000D01*
G75*
G02*
X137862000Y-88901000I0J-75000D01*
G01*
X137862000Y-90226000D01*
G75*
G02*
X137787000Y-90301000I-75000J0D01*
G01*
X137637000Y-90301000D01*
G75*
G02*
X137562000Y-90226000I0J75000D01*
G01*
X137562000Y-88901000D01*
G75*
G02*
X137637000Y-88826000I75000J0D01*
G01*
G37*
G36*
G01*
X138137000Y-88826000D02*
X138287000Y-88826000D01*
G75*
G02*
X138362000Y-88901000I0J-75000D01*
G01*
X138362000Y-90226000D01*
G75*
G02*
X138287000Y-90301000I-75000J0D01*
G01*
X138137000Y-90301000D01*
G75*
G02*
X138062000Y-90226000I0J75000D01*
G01*
X138062000Y-88901000D01*
G75*
G02*
X138137000Y-88826000I75000J0D01*
G01*
G37*
G36*
G01*
X138637000Y-88826000D02*
X138787000Y-88826000D01*
G75*
G02*
X138862000Y-88901000I0J-75000D01*
G01*
X138862000Y-90226000D01*
G75*
G02*
X138787000Y-90301000I-75000J0D01*
G01*
X138637000Y-90301000D01*
G75*
G02*
X138562000Y-90226000I0J75000D01*
G01*
X138562000Y-88901000D01*
G75*
G02*
X138637000Y-88826000I75000J0D01*
G01*
G37*
G36*
G01*
X139137000Y-88826000D02*
X139287000Y-88826000D01*
G75*
G02*
X139362000Y-88901000I0J-75000D01*
G01*
X139362000Y-90226000D01*
G75*
G02*
X139287000Y-90301000I-75000J0D01*
G01*
X139137000Y-90301000D01*
G75*
G02*
X139062000Y-90226000I0J75000D01*
G01*
X139062000Y-88901000D01*
G75*
G02*
X139137000Y-88826000I75000J0D01*
G01*
G37*
G36*
G01*
X139637000Y-88826000D02*
X139787000Y-88826000D01*
G75*
G02*
X139862000Y-88901000I0J-75000D01*
G01*
X139862000Y-90226000D01*
G75*
G02*
X139787000Y-90301000I-75000J0D01*
G01*
X139637000Y-90301000D01*
G75*
G02*
X139562000Y-90226000I0J75000D01*
G01*
X139562000Y-88901000D01*
G75*
G02*
X139637000Y-88826000I75000J0D01*
G01*
G37*
G36*
G01*
X140137000Y-88826000D02*
X140287000Y-88826000D01*
G75*
G02*
X140362000Y-88901000I0J-75000D01*
G01*
X140362000Y-90226000D01*
G75*
G02*
X140287000Y-90301000I-75000J0D01*
G01*
X140137000Y-90301000D01*
G75*
G02*
X140062000Y-90226000I0J75000D01*
G01*
X140062000Y-88901000D01*
G75*
G02*
X140137000Y-88826000I75000J0D01*
G01*
G37*
G36*
G01*
X140637000Y-88826000D02*
X140787000Y-88826000D01*
G75*
G02*
X140862000Y-88901000I0J-75000D01*
G01*
X140862000Y-90226000D01*
G75*
G02*
X140787000Y-90301000I-75000J0D01*
G01*
X140637000Y-90301000D01*
G75*
G02*
X140562000Y-90226000I0J75000D01*
G01*
X140562000Y-88901000D01*
G75*
G02*
X140637000Y-88826000I75000J0D01*
G01*
G37*
G36*
G01*
X141137000Y-88826000D02*
X141287000Y-88826000D01*
G75*
G02*
X141362000Y-88901000I0J-75000D01*
G01*
X141362000Y-90226000D01*
G75*
G02*
X141287000Y-90301000I-75000J0D01*
G01*
X141137000Y-90301000D01*
G75*
G02*
X141062000Y-90226000I0J75000D01*
G01*
X141062000Y-88901000D01*
G75*
G02*
X141137000Y-88826000I75000J0D01*
G01*
G37*
G36*
G01*
X141637000Y-88826000D02*
X141787000Y-88826000D01*
G75*
G02*
X141862000Y-88901000I0J-75000D01*
G01*
X141862000Y-90226000D01*
G75*
G02*
X141787000Y-90301000I-75000J0D01*
G01*
X141637000Y-90301000D01*
G75*
G02*
X141562000Y-90226000I0J75000D01*
G01*
X141562000Y-88901000D01*
G75*
G02*
X141637000Y-88826000I75000J0D01*
G01*
G37*
G36*
G01*
X142137000Y-88826000D02*
X142287000Y-88826000D01*
G75*
G02*
X142362000Y-88901000I0J-75000D01*
G01*
X142362000Y-90226000D01*
G75*
G02*
X142287000Y-90301000I-75000J0D01*
G01*
X142137000Y-90301000D01*
G75*
G02*
X142062000Y-90226000I0J75000D01*
G01*
X142062000Y-88901000D01*
G75*
G02*
X142137000Y-88826000I75000J0D01*
G01*
G37*
G36*
G01*
X142637000Y-88826000D02*
X142787000Y-88826000D01*
G75*
G02*
X142862000Y-88901000I0J-75000D01*
G01*
X142862000Y-90226000D01*
G75*
G02*
X142787000Y-90301000I-75000J0D01*
G01*
X142637000Y-90301000D01*
G75*
G02*
X142562000Y-90226000I0J75000D01*
G01*
X142562000Y-88901000D01*
G75*
G02*
X142637000Y-88826000I75000J0D01*
G01*
G37*
G36*
G01*
X143137000Y-88826000D02*
X143287000Y-88826000D01*
G75*
G02*
X143362000Y-88901000I0J-75000D01*
G01*
X143362000Y-90226000D01*
G75*
G02*
X143287000Y-90301000I-75000J0D01*
G01*
X143137000Y-90301000D01*
G75*
G02*
X143062000Y-90226000I0J75000D01*
G01*
X143062000Y-88901000D01*
G75*
G02*
X143137000Y-88826000I75000J0D01*
G01*
G37*
%TD*%
%TO.C,C4*%
G36*
G01*
X139401000Y-81771500D02*
X139401000Y-81296500D01*
G75*
G02*
X139638500Y-81059000I237500J0D01*
G01*
X140213500Y-81059000D01*
G75*
G02*
X140451000Y-81296500I0J-237500D01*
G01*
X140451000Y-81771500D01*
G75*
G02*
X140213500Y-82009000I-237500J0D01*
G01*
X139638500Y-82009000D01*
G75*
G02*
X139401000Y-81771500I0J237500D01*
G01*
G37*
G36*
G01*
X137651000Y-81771500D02*
X137651000Y-81296500D01*
G75*
G02*
X137888500Y-81059000I237500J0D01*
G01*
X138463500Y-81059000D01*
G75*
G02*
X138701000Y-81296500I0J-237500D01*
G01*
X138701000Y-81771500D01*
G75*
G02*
X138463500Y-82009000I-237500J0D01*
G01*
X137888500Y-82009000D01*
G75*
G02*
X137651000Y-81771500I0J237500D01*
G01*
G37*
%TD*%
%TO.C,R1*%
G36*
G01*
X141763000Y-116602500D02*
X141763000Y-117077500D01*
G75*
G02*
X141525500Y-117315000I-237500J0D01*
G01*
X140950500Y-117315000D01*
G75*
G02*
X140713000Y-117077500I0J237500D01*
G01*
X140713000Y-116602500D01*
G75*
G02*
X140950500Y-116365000I237500J0D01*
G01*
X141525500Y-116365000D01*
G75*
G02*
X141763000Y-116602500I0J-237500D01*
G01*
G37*
G36*
G01*
X143513000Y-116602500D02*
X143513000Y-117077500D01*
G75*
G02*
X143275500Y-117315000I-237500J0D01*
G01*
X142700500Y-117315000D01*
G75*
G02*
X142463000Y-117077500I0J237500D01*
G01*
X142463000Y-116602500D01*
G75*
G02*
X142700500Y-116365000I237500J0D01*
G01*
X143275500Y-116365000D01*
G75*
G02*
X143513000Y-116602500I0J-237500D01*
G01*
G37*
%TD*%
%TO.C,C5*%
G36*
G01*
X141969500Y-84373000D02*
X141494500Y-84373000D01*
G75*
G02*
X141257000Y-84135500I0J237500D01*
G01*
X141257000Y-83560500D01*
G75*
G02*
X141494500Y-83323000I237500J0D01*
G01*
X141969500Y-83323000D01*
G75*
G02*
X142207000Y-83560500I0J-237500D01*
G01*
X142207000Y-84135500D01*
G75*
G02*
X141969500Y-84373000I-237500J0D01*
G01*
G37*
G36*
G01*
X141969500Y-86123000D02*
X141494500Y-86123000D01*
G75*
G02*
X141257000Y-85885500I0J237500D01*
G01*
X141257000Y-85310500D01*
G75*
G02*
X141494500Y-85073000I237500J0D01*
G01*
X141969500Y-85073000D01*
G75*
G02*
X142207000Y-85310500I0J-237500D01*
G01*
X142207000Y-85885500D01*
G75*
G02*
X141969500Y-86123000I-237500J0D01*
G01*
G37*
%TD*%
%TO.C,C3*%
G36*
G01*
X144430000Y-82566500D02*
X144430000Y-83041500D01*
G75*
G02*
X144192500Y-83279000I-237500J0D01*
G01*
X143617500Y-83279000D01*
G75*
G02*
X143380000Y-83041500I0J237500D01*
G01*
X143380000Y-82566500D01*
G75*
G02*
X143617500Y-82329000I237500J0D01*
G01*
X144192500Y-82329000D01*
G75*
G02*
X144430000Y-82566500I0J-237500D01*
G01*
G37*
G36*
G01*
X146180000Y-82566500D02*
X146180000Y-83041500D01*
G75*
G02*
X145942500Y-83279000I-237500J0D01*
G01*
X145367500Y-83279000D01*
G75*
G02*
X145130000Y-83041500I0J237500D01*
G01*
X145130000Y-82566500D01*
G75*
G02*
X145367500Y-82329000I237500J0D01*
G01*
X145942500Y-82329000D01*
G75*
G02*
X146180000Y-82566500I0J-237500D01*
G01*
G37*
%TD*%
%TO.C,C2*%
G36*
G01*
X137826000Y-116602500D02*
X137826000Y-117077500D01*
G75*
G02*
X137588500Y-117315000I-237500J0D01*
G01*
X137013500Y-117315000D01*
G75*
G02*
X136776000Y-117077500I0J237500D01*
G01*
X136776000Y-116602500D01*
G75*
G02*
X137013500Y-116365000I237500J0D01*
G01*
X137588500Y-116365000D01*
G75*
G02*
X137826000Y-116602500I0J-237500D01*
G01*
G37*
G36*
G01*
X139576000Y-116602500D02*
X139576000Y-117077500D01*
G75*
G02*
X139338500Y-117315000I-237500J0D01*
G01*
X138763500Y-117315000D01*
G75*
G02*
X138526000Y-117077500I0J237500D01*
G01*
X138526000Y-116602500D01*
G75*
G02*
X138763500Y-116365000I237500J0D01*
G01*
X139338500Y-116365000D01*
G75*
G02*
X139576000Y-116602500I0J-237500D01*
G01*
G37*
%TD*%
%TO.C,C1*%
G36*
G01*
X144430000Y-84344500D02*
X144430000Y-84819500D01*
G75*
G02*
X144192500Y-85057000I-237500J0D01*
G01*
X143617500Y-85057000D01*
G75*
G02*
X143380000Y-84819500I0J237500D01*
G01*
X143380000Y-84344500D01*
G75*
G02*
X143617500Y-84107000I237500J0D01*
G01*
X144192500Y-84107000D01*
G75*
G02*
X144430000Y-84344500I0J-237500D01*
G01*
G37*
G36*
G01*
X146180000Y-84344500D02*
X146180000Y-84819500D01*
G75*
G02*
X145942500Y-85057000I-237500J0D01*
G01*
X145367500Y-85057000D01*
G75*
G02*
X145130000Y-84819500I0J237500D01*
G01*
X145130000Y-84344500D01*
G75*
G02*
X145367500Y-84107000I237500J0D01*
G01*
X145942500Y-84107000D01*
G75*
G02*
X146180000Y-84344500I0J-237500D01*
G01*
G37*
%TD*%
M02*
